<svg width="281" height="38" viewBox="0 0 281 38" fill="none" xmlns="http://www.w3.org/2000/svg">
<g clip-path="url(#clip0_21_84)">
<path d="M13.8175 13.5065V17.3488H22.7164C22.444 19.5043 21.7478 21.0819 20.6884 22.1908C19.3869 23.5341 17.3589 25.0024 13.8175 25.0024C8.33893 25.0024 4.05596 20.4415 4.05596 14.7873C4.05596 9.13314 8.33893 4.57231 13.8175 4.57231C16.7687 4.57231 18.9329 5.775 20.522 7.3213L23.1401 4.61917C20.9306 2.40124 17.9643 0.714355 13.8175 0.714355C6.31095 0.714355 0 7.02453 0 14.7718C0 22.5189 6.31095 28.8291 13.8175 28.8291C17.8735 28.8291 20.9306 27.4545 23.3217 24.8929C25.7735 22.3626 26.5453 18.7858 26.5453 15.9118C26.5453 15.0217 26.4848 14.1938 26.3486 13.5065H13.8175Z" fill="#4285F4"/>
<path d="M37.6689 10.3826C32.8108 10.3826 28.8457 14.1937 28.8457 19.4574C28.8457 24.6742 32.8108 28.5322 37.6689 28.5322C42.5269 28.5322 46.4921 24.6898 46.4921 19.4574C46.4921 14.1937 42.5269 10.3826 37.6689 10.3826ZM37.6689 24.9553C35.0052 24.9553 32.7048 22.6906 32.7048 19.4574C32.7048 16.1929 35.0052 13.9594 37.6689 13.9594C40.3325 13.9594 42.6329 16.1929 42.6329 19.4574C42.6329 22.6906 40.3325 24.9553 37.6689 24.9553Z" fill="#EA4335"/>
<path d="M80.9224 12.4131H80.7862C79.9236 11.351 78.2588 10.3826 76.1552 10.3826C71.7663 10.3826 67.9373 14.3342 67.9373 19.4574C67.9373 24.5492 71.7663 28.5322 76.1552 28.5322C78.2588 28.5322 79.9236 27.5638 80.7862 26.4704H80.9224V27.7355C80.9224 31.203 79.1215 33.0618 76.2308 33.0618C73.87 33.0618 72.4019 31.3124 71.7965 29.8286L68.4367 31.2656C69.4053 33.6709 71.963 36.623 76.2308 36.623C80.756 36.623 84.5849 33.8739 84.5849 27.1733V10.8511H80.9224V12.4131ZM76.4881 24.9553C73.8245 24.9553 71.7965 22.6124 71.7965 19.4574C71.7965 16.2554 73.8245 13.9594 76.4881 13.9594C79.1215 13.9594 81.1797 16.3022 81.1797 19.4886C81.1948 22.6593 79.1215 24.9553 76.4881 24.9553Z" fill="#4285F4"/>
<path d="M57.3435 10.3826C52.4855 10.3826 48.5203 14.1937 48.5203 19.4574C48.5203 24.6742 52.4855 28.5322 57.3435 28.5322C62.2016 28.5322 66.1668 24.6898 66.1668 19.4574C66.1668 14.1937 62.2016 10.3826 57.3435 10.3826ZM57.3435 24.9553C54.6799 24.9553 52.3795 22.6906 52.3795 19.4574C52.3795 16.1929 54.6799 13.9594 57.3435 13.9594C60.0072 13.9594 62.3076 16.1929 62.3076 19.4574C62.3076 22.6906 60.0072 24.9553 57.3435 24.9553Z" fill="#FBBC05"/>
<path d="M87.6118 1.08936H91.4108V28.5325H87.6118V1.08936Z" fill="#34A853"/>
<path d="M103.14 24.9553C101.172 24.9553 99.7799 24.0338 98.8718 22.2063L110.631 17.1926L110.238 16.1617C109.511 14.1311 107.271 10.3826 102.716 10.3826C98.1908 10.3826 94.4224 14.0531 94.4224 19.4574C94.4224 24.5492 98.1453 28.5322 103.14 28.5322C107.165 28.5322 109.496 25.9862 110.465 24.518L107.468 22.4562C106.469 23.9557 105.107 24.9553 103.14 24.9553ZM102.867 13.7875C104.426 13.7875 105.758 14.6154 106.197 15.7869L98.2512 19.1762C98.2512 15.3651 100.87 13.7875 102.867 13.7875Z" fill="#EA4335"/>
<path d="M123.132 1.06519H138.921V4.22179H126.335V13.7695H137.7V16.8872H126.335V28.9681H123.132V1.06519Z" fill="#5F6368"/>
<path d="M144.279 5.42978C143.644 5.42978 143.097 5.19596 142.638 4.72831C142.181 4.26067 141.953 3.70209 141.953 3.05258C141.953 2.40308 142.181 1.85749 142.638 1.41582C143.097 0.948178 143.644 0.714355 144.279 0.714355C144.915 0.714355 145.461 0.948178 145.919 1.41582C146.377 1.85749 146.605 2.40308 146.605 3.05258C146.605 3.70209 146.377 4.26067 145.919 4.72831C145.487 5.19596 144.94 5.42978 144.279 5.42978ZM142.677 9.093H145.88V28.968H142.677V9.093Z" fill="#5F6368"/>
<path d="M150.976 9.09301H154.064V12.0158H154.218C154.751 11.0285 155.602 10.1972 156.773 9.52168C157.942 8.82021 159.188 8.46948 160.51 8.46948C162.849 8.46948 164.629 9.17095 165.849 10.5739C167.095 11.9508 167.718 13.8345 167.718 16.2246V28.968H164.476V16.7312C164.476 14.8866 164.044 13.5486 163.18 12.7173C162.316 11.8859 161.132 11.4702 159.633 11.4702C158.59 11.4702 157.65 11.769 156.811 12.3665C155.997 12.9641 155.362 13.7564 154.903 14.7437C154.446 15.7049 154.218 16.7182 154.218 17.7835V28.968H150.976V9.09301Z" fill="#5F6368"/>
<path d="M178.383 29.5915C176.959 29.5915 175.689 29.3057 174.57 28.7342C173.452 28.1625 172.587 27.3832 171.976 26.396C171.366 25.3827 171.061 24.2395 171.061 22.9664C171.061 20.8621 171.836 19.2253 173.387 18.0562C174.938 16.8611 176.896 16.2636 179.261 16.2636C180.431 16.2636 181.51 16.3935 182.502 16.6533C183.52 16.9131 184.295 17.2118 184.829 17.5495V16.3415C184.829 14.8606 184.32 13.6785 183.303 12.7952C182.287 11.8859 181.003 11.4312 179.452 11.4312C178.358 11.4312 177.354 11.678 176.439 12.1717C175.523 12.6393 174.798 13.3018 174.265 14.1592L171.824 12.2886C172.587 11.0935 173.629 10.1582 174.951 9.48272C176.299 8.80722 177.786 8.46948 179.414 8.46948C182.057 8.46948 184.13 9.18394 185.629 10.6129C187.155 12.0158 187.919 13.9384 187.919 16.3805V28.968H184.829V26.1231H184.677C184.117 27.0844 183.278 27.9027 182.159 28.5783C181.04 29.2537 179.782 29.5915 178.383 29.5915ZM178.689 26.6686C179.782 26.6686 180.799 26.3829 181.74 25.8113C182.681 25.2398 183.431 24.4733 183.99 23.5121C184.55 22.5508 184.829 21.4986 184.829 20.3555C184.219 19.9398 183.469 19.6021 182.579 19.3423C181.689 19.0824 180.748 18.9525 179.757 18.9525C177.977 18.9525 176.629 19.3292 175.714 20.0827C174.824 20.8361 174.379 21.8104 174.379 23.0054C174.379 24.0966 174.786 24.98 175.6 25.6555C176.414 26.3309 177.443 26.6686 178.689 26.6686Z" fill="#5F6368"/>
<path d="M192.428 9.09301H195.518V12.0158H195.67C196.203 11.0285 197.055 10.1972 198.226 9.52168C199.395 8.82021 200.641 8.46948 201.963 8.46948C204.301 8.46948 206.082 9.17095 207.302 10.5739C208.548 11.9508 209.171 13.8345 209.171 16.2246V28.968H205.929V16.7312C205.929 14.8866 205.497 13.5486 204.633 12.7173C203.768 11.8859 202.585 11.4702 201.086 11.4702C200.043 11.4702 199.103 11.769 198.264 12.3665C197.45 12.9641 196.815 13.7564 196.356 14.7437C195.899 15.7049 195.67 16.7182 195.67 17.7835V28.968H192.428V9.09301Z" fill="#5F6368"/>
<path d="M222.617 29.5915C220.734 29.5915 219.043 29.1368 217.544 28.2275C216.043 27.2922 214.874 26.0322 214.035 24.4473C213.196 22.8367 212.776 21.0309 212.776 19.0304C212.776 17.03 213.196 15.2243 214.035 13.6135C214.874 12.0028 216.043 10.7428 217.544 9.83345C219.043 8.92414 220.734 8.46948 222.617 8.46948C224.726 8.46948 226.494 8.9761 227.918 9.98932C229.367 10.9766 230.396 12.3016 231.007 13.9644L228.07 15.2113C227.587 13.9902 226.862 13.068 225.897 12.4445C224.955 11.795 223.811 11.4702 222.464 11.4702C221.319 11.4702 220.252 11.795 219.26 12.4445C218.268 13.068 217.467 13.9514 216.857 15.0944C216.273 16.2376 215.98 17.5495 215.98 19.0304C215.98 20.5113 216.273 21.8234 216.857 22.9664C217.467 24.1096 218.268 25.006 219.26 25.6555C220.252 26.279 221.319 26.5907 222.464 26.5907C223.836 26.5907 225.02 26.266 226.01 25.6165C227.002 24.967 227.74 24.0447 228.222 22.8495L231.12 24.0966C230.46 25.7334 229.392 27.0584 227.918 28.0716C226.469 29.0849 224.701 29.5915 222.617 29.5915Z" fill="#5F6368"/>
<path d="M243.097 29.5915C241.241 29.5915 239.575 29.1368 238.101 28.2275C236.627 27.3182 235.47 26.0711 234.631 24.4863C233.817 22.8755 233.41 21.0699 233.41 19.0694C233.41 17.1469 233.792 15.3802 234.554 13.7694C235.343 12.1587 236.448 10.8727 237.872 9.91139C239.295 8.95012 240.948 8.46948 242.83 8.46948C244.737 8.46948 246.389 8.91115 247.788 9.79447C249.186 10.6518 250.255 11.8469 250.992 13.3797C251.754 14.9126 252.136 16.6663 252.136 18.6408C252.136 19.0304 252.097 19.3683 252.021 19.654H236.652C236.727 21.1608 237.084 22.4339 237.719 23.4731C238.355 24.5123 239.156 25.2918 240.122 25.8113C241.114 26.3309 242.143 26.5907 243.211 26.5907C245.704 26.5907 247.623 25.3957 248.97 23.0054L251.716 24.3694C250.877 25.9802 249.733 27.2533 248.284 28.1885C246.86 29.1238 245.13 29.5915 243.097 29.5915ZM248.704 16.9261C248.652 16.0947 248.424 15.2633 248.017 14.432C247.61 13.6006 246.961 12.8991 246.072 12.3276C245.207 11.756 244.114 11.4702 242.792 11.4702C241.266 11.4702 239.969 11.9768 238.902 12.9901C237.859 13.9774 237.172 15.2893 236.842 16.9261H248.704Z" fill="#5F6368"/>
<path d="M280.98 19.3382H274.039V26.4308H271.369V19.3382H264.429V16.6102H271.369V9.51758H274.039V16.6102H280.98V19.3382Z" fill="#5F6368"/>
</g>
<defs>
<clipPath id="clip0_21_84">
<rect width="280.98" height="37.3375" fill="white"/>
</clipPath>
</defs>
</svg>
