<svg width="65" height="65" viewBox="0 0 65 65" fill="none" xmlns="http://www.w3.org/2000/svg">
<g clip-path="url(#clip0_1_172)">
<path d="M62.6337 11.7466H1.92884C1.01779 11.7466 0.28125 12.4843 0.28125 13.3942V51.5744C0.28125 52.4843 1.01779 53.2231 1.92884 53.2231H62.6337C63.5448 53.2231 64.2812 52.4854 64.2812 51.5755V13.3942C64.2812 12.4843 63.5448 11.7466 62.6337 11.7466ZM41.9594 34.3392H49.1482V36.0684H43.9628V38.1228H48.7254V39.8497H43.9628V42.3823H49.3782V44.1103H41.9594V34.3392ZM37.9459 24.0084C38.2122 23.6832 38.3685 23.3137 38.5442 22.9693C38.7357 22.6293 38.8501 22.2803 38.9453 21.9517C39.0359 21.6231 39.1707 21.3251 39.2048 21.0463C39.249 20.7664 39.2897 20.5228 39.3192 20.3222C39.3849 19.9154 39.4212 19.6832 39.4212 19.6832C39.4212 19.6832 39.436 19.9177 39.4598 20.3279C39.4734 20.5353 39.4858 20.7891 39.5051 21.0781C39.5299 21.3704 39.4666 21.6934 39.4439 22.056C39.419 22.4186 39.3792 22.814 39.2557 23.2174C39.1516 23.6254 39.0631 24.073 38.8546 24.4922C38.764 24.7098 38.6687 24.9296 38.5724 25.1528C38.4693 25.3738 38.3265 25.5744 38.202 25.7897C37.9571 26.2316 37.6376 26.6237 37.3078 27.0169C36.9894 27.4248 36.5928 27.7443 36.2326 28.1058C35.8326 28.4061 35.4552 28.7517 35.0462 28.9976C34.6461 29.2673 34.2495 29.5109 33.8574 29.7126C33.4721 29.9358 33.0881 30.0922 32.7379 30.2599C32.1951 30.49 31.7146 30.669 31.3169 30.7982C31.4972 31.2061 31.6535 31.631 31.7736 32.0854C31.8959 32.5534 32.007 33.0316 32.0343 33.5778C31.5016 33.4463 31.0541 33.2458 30.6201 33.035C30.1861 32.8208 29.7872 32.5783 29.4144 32.3177C28.6643 31.7976 28.0183 31.1891 27.4291 30.5353C26.9826 30.039 26.9226 29.3307 27.2285 28.7778L27.292 28.6679C27.7883 27.7783 28.3843 26.9477 29.1152 26.1987C29.4767 25.8225 29.8767 25.4701 30.3209 25.1426C30.5486 24.9806 30.7822 24.8242 31.0245 24.6735C31.275 24.5273 31.5413 24.3902 31.8326 24.269C31.8619 24.5817 31.8676 24.882 31.8517 25.171C31.8326 25.4565 31.8041 25.7364 31.7703 26.0129C31.6887 26.5579 31.5651 27.0769 31.4007 27.5732C31.3826 27.6265 31.3612 27.6764 31.3442 27.7296C31.5176 27.7035 31.6989 27.6741 31.8948 27.639C32.202 27.5642 32.5499 27.5098 32.8965 27.3965C33.2557 27.3047 33.6207 27.1789 33.9901 27.0316C34.3776 26.9047 34.722 26.6939 35.1152 26.5228C35.4563 26.2962 35.8609 26.1069 36.1827 25.8327C36.5238 25.5721 36.8683 25.3069 37.1436 24.9851C37.2887 24.8288 37.4541 24.6849 37.581 24.5194C37.7023 24.3483 37.8235 24.1795 37.9459 24.0084ZM24.7854 25.2129C24.8218 24.8503 24.8716 24.4571 25.0075 24.0571C25.1243 23.6526 25.2251 23.2084 25.4461 22.7948C25.5448 22.5817 25.6444 22.363 25.7475 22.1432C25.8574 21.9268 26.0071 21.7307 26.1385 21.5188C26.3946 21.0837 26.7278 20.7018 27.0688 20.3188C27.3986 19.9188 27.8064 19.6129 28.177 19.2616C28.5837 18.9738 28.9714 18.6407 29.3873 18.4061C29.7952 18.1477 30.1985 17.9154 30.5973 17.7262C30.9883 17.5154 31.3781 17.3704 31.7328 17.2129C32.2812 16.9999 32.7686 16.8344 33.1697 16.7166C33.0019 16.3041 32.8581 15.8747 32.7504 15.4169C32.6416 14.9455 32.5452 14.4639 32.534 13.9166C33.0609 14.0639 33.504 14.2792 33.9323 14.5024C34.3595 14.729 34.7504 14.9817 35.1152 15.256C35.8495 15.7987 36.4772 16.4265 37.0472 17.0973C37.479 17.6061 37.5163 18.3166 37.1945 18.8594L37.1288 18.9681C36.6041 19.8429 35.9821 20.6543 35.2319 21.3817C34.858 21.7477 34.4455 22.0888 33.9945 22.4027C33.7622 22.5557 33.5232 22.7052 33.2751 22.8492C33.0201 22.9885 32.7504 23.1166 32.4557 23.2299C32.4365 22.9149 32.4398 22.6146 32.4626 22.3268C32.4921 22.0412 32.5283 21.7625 32.5714 21.4871C32.6699 20.9455 32.8082 20.4299 32.9873 19.9381C33.0065 19.886 33.028 19.8361 33.0484 19.784C32.8739 19.8044 32.6926 19.8282 32.4954 19.8577C32.186 19.9234 31.836 19.9687 31.4858 20.0707C31.1243 20.1523 30.7571 20.2667 30.382 20.4027C29.99 20.5171 29.6388 20.7177 29.2411 20.8775C28.8909 21.0939 28.4853 21.2718 28.1532 21.5358C27.8053 21.7874 27.4541 22.0412 27.1674 22.3551C27.0212 22.5069 26.8513 22.6452 26.7187 22.8084C26.5918 22.9749 26.466 23.1415 26.3424 23.3047C26.067 23.622 25.8994 23.9868 25.7136 24.3268C25.5085 24.6599 25.3861 25.0055 25.2796 25.3319C25.1788 25.6571 25.0359 25.9517 24.9928 26.2293C24.9408 26.5069 24.8942 26.7494 24.8568 26.9489C24.781 27.3545 24.7379 27.5857 24.7379 27.5857C24.7379 27.5857 24.7299 27.3511 24.7164 26.9398C24.7108 26.7313 24.7028 26.4786 24.6938 26.1885C24.6756 25.8962 24.7503 25.5755 24.7854 25.2129ZM18.8932 46.2293H17.4858V50.056H16.517V46.2293H15.1118V45.4055H18.8943L18.8932 46.2293ZM17.4336 44.1103L14.6711 34.337H16.8466C18.0988 39.6888 18.2234 40.3687 18.4002 41.4837H18.4275C18.6042 40.4628 18.7526 39.469 19.7883 34.337H21.9527C23.0949 39.7024 23.1923 40.2191 23.4088 41.4837H23.4359C23.599 40.5579 23.7612 39.7137 25.0292 34.337H27.0982L24.347 44.1103H22.3878C21.3805 39.3194 21.2013 38.3664 20.8762 36.4877H20.85C20.5487 38.3676 20.3877 39.0735 19.3384 44.1103H17.4336ZM22.2925 50.0526C22.2279 49.8339 22.1905 49.5948 22.1905 49.1143C22.1905 48.482 22.151 48.2339 21.4314 48.2339H20.4286V50.0537H19.4744V45.4021H21.8269C23.0643 45.4021 23.2897 46.3177 23.2897 46.7188C23.2897 47.231 23.0302 47.6707 22.5702 47.8271C22.952 47.9936 23.1605 48.1375 23.1605 49.0055C23.1605 49.6843 23.1605 49.8543 23.3668 49.9302L23.368 50.0526H22.2925ZM27.0257 50.056L26.7265 49.0973H25.011L24.688 50.056H23.6637L25.3214 45.4055H26.4433L28.0807 50.056H27.0257ZM28.1805 34.337H30.2211V44.1103H28.1805V34.337ZM31.479 50.056L29.5821 46.7404H29.5686V50.056H28.6632V45.4055H29.6852L31.5333 48.6429H31.5448V45.4055H32.4512L32.4524 50.056H31.479ZM35.139 50.1806C33.4416 50.1806 33.1516 49.2016 33.1516 48.6259H34.0807C34.0875 48.8854 34.2178 49.3772 35.0676 49.3772C35.5255 49.3772 36.0387 49.2673 36.0387 48.7755C36.0387 48.4118 35.6897 48.3155 35.1956 48.1987L34.6982 48.082C33.9459 47.9075 33.2217 47.7387 33.2217 46.7143C33.2217 46.1965 33.4982 45.2832 35.0075 45.2832C36.433 45.2832 36.8138 46.2157 36.8206 46.7857H35.8914C35.8619 46.5795 35.7873 46.0865 34.9374 46.0865C34.5703 46.0865 34.1272 46.2214 34.1272 46.6429C34.1272 47.0067 34.4263 47.0837 34.6212 47.129L35.752 47.4078C36.3888 47.5642 36.9714 47.8237 36.9714 48.6577C36.9714 50.056 35.5458 50.1806 35.139 50.1806ZM36.2382 40.2849H34.1295V44.1103H32.1261V34.3358H37.0653C39.666 34.3358 40.1441 36.2554 40.1441 37.0996C40.1441 38.1761 39.6003 39.1007 38.6325 39.4271C39.4359 39.7817 39.8711 40.0832 39.8711 41.9064C39.8711 43.3353 39.8711 43.69 40.3074 43.852V44.1103H38.05C37.9142 43.648 37.8326 43.1449 37.8326 42.1364C37.8326 40.8027 37.7499 40.286 36.2382 40.2849ZM41.0224 46.2293H38.6857V47.2786H40.7312V48.1013H38.6857V50.0571H37.7146V45.4067H41.0224V46.2293ZM45.2058 50.0537H41.6762V45.4021H45.096V46.2271H42.6279V47.205H44.8942V48.0276H42.6279V49.2322H45.2058V50.0537ZM49.8926 50.0537H48.8195C48.755 49.8339 48.7175 49.5948 48.7175 49.1143C48.7175 48.482 48.6756 48.2339 47.9584 48.2339H46.9554V50.0537H46.0014V45.4021H48.3516C49.589 45.4021 49.8167 46.3177 49.8167 46.7188C49.8167 47.231 49.5538 47.6707 49.096 47.8271C49.4767 47.9936 49.6864 48.1375 49.6864 49.0055C49.6864 49.6843 49.6863 49.8543 49.8914 49.9302H49.8926V50.0537Z" fill="#C4CFE0"/>
<path d="M36.6745 36.0264H34.1318V38.6394H36.5238C37.5867 38.6394 38.1046 38.2723 38.1046 37.3057C38.1046 36.789 37.8745 36.0264 36.6745 36.0264Z" fill="#C4CFE0"/>
<path d="M48.1622 46.21H46.9543V47.4542H48.092C48.5985 47.4542 48.8444 47.2785 48.8444 46.8185C48.8444 46.5715 48.7345 46.21 48.1622 46.21Z" fill="#C4CFE0"/>
<path d="M25.8768 46.4561H25.8677L25.2706 48.2952H26.457L25.8768 46.4561Z" fill="#C4CFE0"/>
<path d="M21.6376 46.21H20.4274V47.4542H21.5651C22.0716 47.4542 22.3175 47.2797 22.3175 46.8185C22.3175 46.5715 22.2065 46.21 21.6376 46.21Z" fill="#C4CFE0"/>
</g>
<defs>
<clipPath id="clip0_1_172">
<rect width="64" height="64" fill="white" transform="translate(0.28125 0.484375)"/>
</clipPath>
</defs>
</svg>
