<svg width="121" height="121" viewBox="0 0 121 121" fill="none" xmlns="http://www.w3.org/2000/svg">
<g clip-path="url(#clip0_1_180)">
<path fill-rule="evenodd" clip-rule="evenodd" d="M51.2197 58.8195L50.289 62.9339H40.6899L40.8368 62.3954H42.5507L44.8529 51.8158H43.0406L43.2361 51.2281H49.0152L48.8683 51.8158H47.0075L44.7059 62.3954H46.5667C47.7913 62.3954 48.2806 62.4439 49.0644 61.7585C49.6521 61.2686 50.3867 60.1909 50.7297 58.8201L51.2197 58.8195ZM55.1865 63.2265C53.3258 63.2265 51.8074 61.6589 51.8074 59.6026C51.8074 56.8603 54.5011 54.6559 56.6066 54.6559C58.5166 54.6559 59.7903 56.4195 59.7903 58.1334C59.7903 59.1619 59.3987 60.1418 58.811 61.0718C57.7334 62.6394 56.3127 63.2265 55.1865 63.2265ZM58.0272 56.8603C58.0272 55.9296 57.6357 55.1464 56.6558 55.1464C55.9212 55.1464 55.1865 55.5872 54.7943 56.2234C54.2558 57.1541 53.5212 59.4557 53.5212 60.778C53.5212 62.1495 54.3542 62.5909 55.0396 62.5909C55.5781 62.5909 56.1658 62.3449 56.5088 61.954C57.0965 61.2679 57.4887 59.9948 57.7334 58.9178C57.8803 58.1334 58.0272 57.5457 58.0272 56.8603ZM64.394 54.9012L64.0025 56.8603C64.6873 55.195 66.1085 54.5581 67.2833 54.5581C68.1648 54.5581 69.0464 54.852 69.0464 56.0765C69.0464 56.4195 68.9978 56.7128 68.9492 57.0072L67.8722 61.121C67.7253 61.8556 67.7739 61.6595 67.7253 61.8071C67.6269 62.2485 67.9208 62.2485 68.1169 62.2485C68.4113 62.2485 68.6554 62.053 68.8029 61.8556C69.2929 61.22 69.2431 61.3669 69.6359 60.6317L70.1744 60.9255C69.7816 61.7585 68.9984 63.2271 67.48 63.2271C66.7454 63.2271 66.1098 62.7372 66.1098 61.8556C66.1098 61.611 66.1583 61.4155 66.2069 61.121L67.1868 56.8117C67.2354 56.5665 67.2839 56.3218 67.3337 56.1257C67.4308 55.5872 66.8923 55.3911 66.5979 55.3911C66.1092 55.3911 65.5209 55.8319 64.8834 56.5173C63.9047 57.5949 63.4633 58.9172 63.2187 59.7987L62.4841 62.9824H60.7204L62.5326 55.4397H60.9165L60.9657 54.9012H64.394ZM80.2136 61.0233C79.5768 62.2478 78.8421 63.0796 77.6176 63.1294C76.6377 63.1779 76.4914 62.3948 76.4416 61.9048V61.6589L76.2959 61.8544C75.9031 62.4427 74.973 63.2259 73.797 63.2259C72.4753 63.2259 70.9078 61.9527 70.9078 59.8958C70.9078 57.006 73.5038 54.6061 75.5115 54.6061C76.7361 54.6061 77.2746 54.9976 77.569 55.4882L78.5477 51.3252H76.7361L76.9316 50.7861H80.4577L78.1561 60.0913C77.9606 61.0227 77.8131 61.5612 77.8131 61.9042C77.8131 62.1974 77.9114 62.2958 78.1561 62.2472C78.5477 62.1974 78.6946 61.9527 78.9891 61.6103C79.0862 61.4634 79.5276 60.8272 79.6259 60.6803L80.2136 61.0233ZM75.8545 55.1458C75.316 55.1458 74.5814 55.3911 73.9931 56.3704C72.9659 58.1826 72.6714 59.4557 72.6714 60.778C72.6714 61.954 73.2585 62.5411 73.9931 62.5411C74.3361 62.5411 74.7775 62.4439 75.2177 62.0026C76.0021 61.3165 76.2959 60.534 76.7853 58.9664C77.8131 55.8804 76.5885 55.1458 75.8545 55.1458ZM84.3766 63.1294C82.5152 63.1294 80.9962 61.611 80.9962 59.5534C80.9962 56.8111 83.6906 54.6067 85.7966 54.6067C87.7552 54.6067 89.0283 56.3206 89.0283 58.0836C89.0283 59.0635 88.6367 60.092 87.9998 60.9729C86.9228 62.5411 85.5028 63.1294 84.3766 63.1294ZM87.2173 56.8111C87.2173 55.8319 86.8257 55.0973 85.8458 55.0973C85.1112 55.0973 84.3772 55.538 83.9844 56.1743C83.4459 57.0558 82.7113 59.4065 82.7113 60.6803C82.7113 62.1003 83.5443 62.5404 84.2297 62.5404C84.7682 62.5404 85.3559 62.2472 85.6983 61.8544C86.2853 61.1683 86.6782 59.945 86.9228 58.8188C87.1183 58.0842 87.2173 57.4474 87.2173 56.8111ZM93.6818 54.9012L93.2405 56.8603C93.9265 55.195 95.3465 54.5581 96.5219 54.5581C97.452 54.5581 98.3335 54.852 98.3335 56.0765C98.3335 56.4195 98.2364 56.7128 98.1866 57.0072L97.1582 61.121C97.0125 61.8556 97.0125 61.6595 97.0125 61.8071C96.9141 62.2485 97.1582 62.2485 97.3543 62.2485C97.6487 62.2485 97.894 62.053 98.0901 61.8556C98.5801 61.22 98.5303 61.3669 98.9218 60.6317L99.4118 60.9255C99.0688 61.7585 98.2856 63.2271 96.7186 63.2271C96.0326 63.2271 95.3957 62.7372 95.3957 61.8556C95.3957 61.611 95.4455 61.4155 95.4941 61.121L96.4242 56.8117C96.5225 56.5665 96.5711 56.3218 96.5711 56.1257C96.6695 55.5872 96.1795 55.3911 95.8365 55.3911C95.3951 55.3911 94.808 55.8319 94.1705 56.5173C93.1919 57.5949 92.7505 58.9172 92.5058 59.7987L91.7214 62.9824H90.0082L91.8198 55.4397H90.1551L90.2037 54.9012H93.6818ZM17.5242 51.1298H17.9158L17.965 50.689H18.3566L17.8666 51.5213C17.8666 51.6191 18.0135 51.5705 18.1119 51.5705L18.1611 51.5213V51.9129C17.7695 52.0598 17.3287 51.9129 17.3287 51.9129V51.5213C17.3779 51.5705 17.574 51.6191 17.6226 51.5213L17.1326 50.689H17.5242V51.1298ZM9.19822 57.9865C9.29596 58.1334 9.34514 58.2803 9.3937 58.4273C9.54062 58.7703 9.68755 59.0641 9.88365 59.4065L9.2474 59.9457C9.59043 60.3864 9.98201 60.778 10.3244 61.2194C11.3529 60.4842 12.3813 59.701 13.5082 59.1133C13.9981 58.8686 14.6835 59.0641 15.222 58.8195C14.7813 59.1625 14.5366 59.6518 14.1444 59.9948C14.3897 60.2887 14.4874 60.6809 14.6835 61.0239C14.1936 61.0239 13.6551 61.0725 13.2143 60.9255C13.3121 61.1702 13.3121 61.8071 13.3612 62.1015C12.9205 61.9061 12.4305 61.8071 12.0389 61.4647C12.0875 62.1015 11.8428 62.5921 11.6467 63.1306C11.3043 62.8361 11.0105 62.5423 10.8144 62.1993C10.6183 62.6407 10.1781 62.9837 9.88365 63.4238L9.2474 64.3552C9.39432 63.9623 9.44351 63.4736 9.44351 63.0322C8.21895 62.8368 6.8481 62.2491 6.35753 60.9747C6.26174 60.7247 6.21196 60.4593 6.21061 60.1916C6.55301 60.8776 7.28762 61.2686 7.97367 61.3675C6.89604 60.7307 6.06369 59.6039 5.96533 58.3308C6.30835 59.0168 7.04296 59.7022 7.72838 59.9961V59.9469C6.60219 58.8699 5.91615 57.547 6.06369 55.9794C6.27384 56.9444 6.85411 57.7884 7.67983 58.3301C6.74912 57.1056 6.06369 55.5878 6.60282 53.9717C6.65138 55.6358 7.77819 57.105 9.19822 57.9865ZM29.3763 58.3781C30.2578 57.8396 30.7963 56.9089 31.0416 56.0273C31.1394 57.5949 30.4539 58.9172 29.3277 59.9942C30.0623 59.7004 30.7484 59.0635 31.0908 58.3781C31.0416 59.2104 30.65 59.9457 30.0623 60.5819C29.7685 60.8764 29.4255 61.169 29.0831 61.3663C29.4058 61.313 29.7192 61.2139 30.0138 61.0718C30.3765 60.856 30.6795 60.553 30.8953 60.1903C30.8461 61.2188 30.063 62.198 29.1323 62.5902C28.6423 62.7857 28.153 62.9333 27.6139 63.0304C27.6139 63.4718 27.663 63.9605 27.81 64.3533C27.4184 63.7164 26.9278 63.0789 26.4385 62.4919C26.3563 62.4062 26.2901 62.3064 26.243 62.1974C26.0469 62.5404 25.7531 62.8343 25.4107 63.1287C25.2152 62.5902 24.9699 62.1003 25.0191 61.4628C24.6275 61.8544 24.1376 61.9042 23.6968 62.0997C23.6968 61.7081 23.6968 61.3153 23.8437 60.9722C23.3052 61.0706 22.7667 61.022 22.3745 61.022C22.5214 60.679 22.6683 60.2868 22.913 59.993C22.4722 59.6499 22.2276 59.1606 21.8354 58.8176C22.2761 59.0131 22.9622 58.9153 23.4521 59.0623C23.9918 59.3601 24.5149 59.687 25.0191 60.0415L26.3414 60.9716L26.6844 61.2175H26.7336L27.8112 59.9438L27.2235 59.4538C27.4682 59.0131 27.6643 58.5231 27.8112 58.0338C29.2312 57.1031 30.4066 55.6831 30.4558 53.9686C30.9924 55.5866 30.307 57.1542 29.3763 58.3781Z" fill="#C4CFE0"/>
<path fill-rule="evenodd" clip-rule="evenodd" d="M9.10062 57.5949C8.70904 57.3988 8.36602 57.0072 8.12073 56.6642C8.16991 55.7341 8.41458 54.9011 8.80678 54.0688C8.61068 55.2927 8.80678 56.5173 9.10062 57.5949ZM28.9357 56.7127C28.6904 57.0558 28.348 57.3988 27.9564 57.5949C28.2502 56.5173 28.4463 55.2927 28.2502 54.1173C28.6547 54.9261 28.888 55.8097 28.9357 56.7127ZM9.98215 56.3703C10.0799 56.0766 10.1783 55.7826 10.3744 55.4888C10.3744 55.8318 10.3252 56.2234 10.5213 56.5173C11.0598 56.4195 11.6967 56.3212 12.2844 56.4195C11.9905 56.5173 11.6475 56.7625 11.5006 57.0558C11.4514 57.0066 11.4514 56.9088 11.4028 56.8603C11.2559 56.8603 11.109 56.9095 10.9621 56.9095L11.4028 57.3502C11.3536 57.5955 11.3051 57.9379 11.4028 58.1826C11.452 57.5457 11.7944 56.958 12.3335 56.6642C12.6274 56.5173 12.9704 56.4195 13.2642 56.615C13.4105 56.7619 13.4597 56.958 13.4105 57.1541C13.4105 57.0558 13.3128 56.958 13.2151 56.9088C12.7743 56.7619 12.4313 57.1043 12.1866 57.4473C12.1374 57.4965 12.0397 57.5943 12.0397 57.6926C12.2352 57.8395 12.4805 57.7904 12.7251 57.7412C12.9212 57.6926 13.0681 57.6435 13.2642 57.4965C12.9212 57.9859 12.3821 58.182 11.942 58.3781L12.0883 58.6233C11.9905 58.7211 11.8928 58.8194 11.7944 58.8686L11.5006 58.477C11.1582 58.7217 10.8151 58.9178 10.5213 59.1631L10.766 59.5055C10.6682 59.6032 10.5705 59.7016 10.4721 59.7016C9.63975 58.624 9.00288 57.0564 9.63975 55.6855L9.83585 55.3917C9.83523 55.7341 9.83523 56.0766 9.98215 56.3703ZM26.7804 59.4557L26.5849 59.701C26.4872 59.701 26.3888 59.6026 26.2911 59.5541C26.3403 59.4071 26.4872 59.3088 26.5364 59.1625C26.2425 58.9172 25.8995 58.7217 25.5571 58.4764L25.2626 58.868H25.2141C25.1163 58.7696 25.018 58.7211 24.9202 58.6719C24.9694 58.5742 25.0672 58.4764 25.1163 58.3781C24.9202 58.2803 24.7241 58.2311 24.5286 58.0842C24.2348 57.9865 23.941 57.7904 23.794 57.4972C24.0879 57.7418 24.5772 57.8396 25.018 57.7418C25.018 57.6441 24.9202 57.5955 24.9202 57.4972C24.6749 57.1541 24.2834 56.8603 23.8426 56.9095C23.7449 56.9095 23.6957 57.0072 23.6471 57.1049V57.1541C23.5979 57.0558 23.5979 56.8111 23.6963 56.7134C23.8432 56.5179 24.0879 56.5179 24.3325 56.5664C24.8717 56.6642 25.4102 57.1541 25.5571 57.6933C25.6057 57.8402 25.6057 58.0363 25.6548 58.2318C25.7526 57.9379 25.7034 57.5457 25.6548 57.3502C25.8018 57.2033 25.9487 57.0564 26.0956 56.9586C25.9487 56.9095 25.8018 56.9095 25.6548 56.8609C25.6548 56.9101 25.6057 57.0078 25.5571 57.0564C25.4102 56.8117 25.1163 56.518 24.7733 56.4688C25.3118 56.3219 25.9972 56.4195 26.5364 56.5664C26.7318 56.2726 26.6833 55.8804 26.6341 55.538C26.8794 55.7826 26.9771 56.0765 27.0749 56.4195C27.2218 56.0765 27.2703 55.7826 27.2218 55.3911C28.1027 56.6642 27.5642 58.3781 26.7804 59.4557Z" fill="#C4CFE0"/>
<path fill-rule="evenodd" clip-rule="evenodd" d="M17.8182 48.2901H18.3081V47.8979H18.7489V48.2901H19.1896V47.8979H19.6304V49.4163L19.3366 49.6615V50.7393H20.1689C20.2181 50.6409 20.3158 50.5431 20.4634 50.5924H21.2957C21.2465 50.8375 21.1488 51.1308 20.9041 51.2783C20.8372 51.3395 20.7502 51.3743 20.6595 51.376C20.8549 51.523 20.9041 51.7676 20.8549 52.0123C20.8058 52.1107 20.7572 52.2084 20.6595 52.2576C20.8549 52.5514 20.9041 52.9436 20.6595 53.2368C21.1002 53.4821 20.6595 53.8245 20.7087 54.1676C20.8556 54.2653 21.0025 54.363 21.0517 54.5591C21.0517 54.7552 21.0025 54.9507 20.8556 55.0491C20.8064 55.0983 20.7086 55.0983 20.6601 55.0983C20.6601 55.2452 20.807 55.3921 20.9539 55.4898C21.2478 55.6853 21.7377 55.6368 22.0807 55.4898C22.2277 55.3921 22.4238 55.196 22.4723 54.9999C22.5215 54.9022 22.4723 54.8045 22.4231 54.7062C22.2762 54.51 22.0316 54.4608 21.8355 54.51C21.6762 54.5623 21.5386 54.6655 21.4439 54.8038C21.297 54.2653 21.3461 53.5792 21.8355 53.2362C22.0807 53.1385 22.4231 53.1385 22.6684 53.2854C22.7176 53.2854 22.7662 53.3839 22.8639 53.4324C22.8147 52.6486 22.9131 51.8163 23.6477 51.3755C24.0885 51.1302 24.7247 51.1793 25.1655 51.4732L25.4599 51.7184C25.7283 51.7408 25.9973 51.6829 26.2327 51.5521C26.4682 51.4213 26.6594 51.2235 26.7822 50.9838C26.8806 50.8855 26.9292 50.69 26.9292 50.5431C27.2122 50.7516 27.4249 51.0415 27.5387 51.3742C27.6525 51.7068 27.662 52.0663 27.566 52.4045C27.5168 52.4531 27.566 52.5022 27.6152 52.5508C28.1543 52.6493 28.5459 52.3061 28.9375 51.9632C28.9867 52.7955 28.6922 53.6284 27.909 54.0201C27.4683 54.2155 26.8806 54.1177 26.489 53.8245C26.0974 53.5307 25.8521 53.1385 25.6567 52.7469C25.5097 52.5508 25.2159 52.6 24.9221 52.6493C24.5305 52.6983 24.1383 52.9922 23.9422 53.3352C23.8936 53.4821 23.8444 53.5799 23.8444 53.7268C23.8936 53.7268 23.9913 53.6776 24.0405 53.6284C24.3836 53.4815 24.8243 53.5792 25.069 53.8245C25.3143 54.0698 25.3628 54.4608 25.2645 54.7552C25.1667 55.0983 24.8237 55.4407 24.5299 55.539C24.4807 55.196 24.2846 55.0491 24.0891 55.0491C23.5991 54.9507 23.403 55.4407 23.0606 55.6853C22.7176 56.0283 22.1299 56.273 22.1785 56.8121C22.1785 57.0568 22.3254 57.3021 22.5215 57.4484C22.6193 57.4976 22.7176 57.5461 22.8154 57.5461C22.1785 57.7914 21.297 57.84 20.7585 57.3506C20.6115 57.5461 20.8076 57.9383 20.8562 57.9869C21.0031 58.2808 21.1992 58.526 21.1992 58.869C20.9054 58.5752 20.563 58.4774 20.1222 58.5752C20.1222 58.5752 19.8769 58.5752 18.7507 59.2612C18.4569 59.4567 18.2122 59.5551 18.2122 59.5551C18.2122 59.5551 18.1145 59.5059 18.0653 59.5059C17.7223 59.2612 17.3307 59.0651 16.9877 58.9182C16.8613 58.7865 16.7911 58.6108 16.7922 58.4283C16.815 58.3332 16.8636 58.2464 16.9327 58.1772C17.0019 58.1081 17.0887 58.0595 17.1838 58.0367V57.9383L16.9391 57.5467C16.7577 57.5043 16.5779 57.4553 16.4 57.3998C15.7631 57.6937 14.8816 57.7914 14.1962 57.5467C14.4408 57.4982 14.6861 57.3513 14.7839 57.106C14.8816 56.8613 14.8816 56.5183 14.6861 56.3222C14.3431 55.9306 13.9023 55.6859 13.6091 55.2452C13.413 55.0983 13.1192 54.9999 12.8745 55.0497C12.7766 55.0902 12.6923 55.1579 12.6316 55.2447C12.5708 55.3315 12.5361 55.4338 12.5315 55.5396C12.1399 55.3927 11.7477 54.9028 11.7477 54.462C11.7477 54.119 11.8946 53.8743 12.1399 53.6782C12.4823 53.5313 12.9237 53.5313 13.1683 53.7274C13.1683 53.3844 12.9729 53.0905 12.7276 52.8944C12.3845 52.6498 11.846 52.5029 11.4545 52.699C11.1606 53.1397 10.916 53.5805 10.4752 53.8743C10.083 54.119 9.4959 54.1682 9.05452 53.9235C8.36909 53.5319 8.07525 52.7481 8.1238 51.9644C8.36909 52.1605 8.66231 52.4051 8.95615 52.5035C9.10307 52.552 9.39692 52.6012 9.54384 52.4543C9.4461 52.3074 9.39692 52.0135 9.39692 51.9158C9.4461 51.3773 9.69076 50.8388 10.1315 50.4958C10.1315 50.9857 10.5723 51.475 11.0131 51.622C11.2092 51.6711 11.4047 51.7203 11.6008 51.7203C11.9923 51.3287 12.4823 51.1326 13.0208 51.2304C13.4616 51.3287 13.9023 51.7203 14.0492 52.1125C14.1962 52.5041 14.1962 52.994 14.1962 53.4348C14.3916 53.1895 14.6861 53.0918 15.0285 53.1895C15.3715 53.2387 15.567 53.6303 15.6162 53.9241C15.6654 54.218 15.6654 54.5604 15.6162 54.8057C15.4693 54.6096 15.2738 54.4626 14.9793 54.5118C14.8324 54.5118 14.6855 54.561 14.5877 54.7079C14.4894 54.8548 14.5386 55.0995 14.6369 55.2464C14.9793 55.6872 15.6162 55.7365 16.1061 55.6381C16.2531 55.5889 16.3514 55.5403 16.4977 55.4911C16.4 55.6381 16.4 55.8827 16.5469 56.0296C17.0369 56.5195 17.8692 56.4704 18.5054 56.3234C18.9984 56.1784 19.4746 55.9818 19.9261 55.7365C19.5831 56.1771 20.0245 56.6665 20.1222 57.1072C20.2685 56.8626 20.4652 56.6173 20.563 56.3234C20.6115 56.8134 20.9054 57.2541 21.3953 57.4011C21.5908 57.4502 21.8361 57.4502 22.0807 57.4011C21.8853 57.1564 21.7869 56.8626 21.8853 56.5687C21.9338 56.1771 22.326 55.9811 22.3752 55.6381C21.9836 55.8828 21.3959 55.9804 20.9546 55.7849C20.6607 55.6872 20.4161 55.3933 20.2685 55.0995C19.4853 55.7364 18.5054 56.0788 17.3793 55.981C17.477 55.7364 17.6245 55.5403 17.7223 55.2956H17.3307L16.9877 55.9325C16.8538 55.8545 16.7503 55.7337 16.6938 55.5894C16.6938 55.4425 16.7424 55.2464 16.8401 55.1487C16.7916 55.0995 16.6938 55.0995 16.6446 55.0995C16.5408 55.0676 16.4463 55.0108 16.3694 54.934C16.2926 54.8571 16.2357 54.7626 16.2039 54.6587C16.2039 54.4141 16.3508 54.1694 16.5961 54.1694C16.5961 54.0717 16.5469 53.8756 16.5961 53.7778C16.6212 53.7067 16.6676 53.645 16.729 53.6012C16.7903 53.5573 16.8637 53.5333 16.9391 53.5326C16.9391 53.5326 16.9391 53.4834 16.9877 53.4834V53.1403L16.4 52.9935L15.8123 51.475C15.8123 51.475 16.2531 51.1812 16.4492 51.0343C16.3022 50.9365 16.4984 50.8388 16.4984 50.6912L16.743 50.3974C16.6945 50.1521 16.743 49.9075 16.6453 49.7114C16.8906 49.8091 17.086 50.0052 17.3313 50.0052L17.6743 49.956V49.6622L17.4291 49.4169V47.8979H17.8206V48.2901H17.8182ZM18.5036 49.0241C18.1612 49.171 18.2097 49.514 18.2097 49.8564H18.7974C18.7974 49.6609 18.846 49.5134 18.7974 49.3179C18.7489 49.2202 18.6505 49.0241 18.5036 49.0241ZM16.9366 50.1509L16.9852 50.4939C16.8874 50.6408 16.7399 50.7392 16.7399 50.9347L16.9852 51.2777C16.9852 51.4246 16.8874 51.5715 16.8383 51.7184L17.1327 52.3061H17.4266L17.7204 52.6493L18.0143 52.3061H18.2589L18.6019 51.7184C18.5036 51.5715 18.4058 51.4246 18.4058 51.2777L18.7003 50.9347C18.6511 50.7392 18.5534 50.6408 18.455 50.4939V50.1509L18.1612 50.2978C17.8586 50.2001 17.533 50.2001 17.2305 50.2978L16.9366 50.1509ZM20.4136 50.8363C20.365 50.8849 20.3158 50.934 20.2181 50.9832C19.9728 51.0324 19.5812 50.934 19.3366 51.0324C19.2382 51.0816 19.1896 51.1793 19.1404 51.2777C19.1404 51.3754 19.0913 51.5223 19.1896 51.5715C19.3857 51.8654 19.8265 51.7676 20.1203 51.7676L20.2181 51.8654C20.2181 51.9145 20.1689 51.9632 20.1203 51.9632H18.7489C18.6511 52.1593 18.5036 52.3061 18.5036 52.5508H18.112L17.7204 53.0407L17.3288 52.5508H16.8881V52.4045L16.545 51.7184C16.5996 51.5901 16.6486 51.4595 16.692 51.327L16.5942 51.2285L16.1535 51.5715L16.5942 52.7961L16.9858 52.8938V52.7961H17.2311L17.1819 53.6284C17.1819 53.7753 17.0356 53.6776 16.9372 53.7268C16.7903 53.8245 16.8881 54.0698 16.8389 54.1676C16.9437 54.0916 17.0658 54.0429 17.1942 54.0259C17.3225 54.0088 17.4531 54.0239 17.5741 54.0698L17.868 53.2368C18.4556 53.286 19.0925 53.1391 19.5333 52.6983C19.6802 52.9922 19.8763 53.2368 20.121 53.4821V53.629C20.121 53.776 19.974 53.629 19.8757 53.7274C19.7779 53.7274 19.7779 53.9229 19.7779 54.0213L19.9734 54.1682C20.1203 54.0704 20.3164 54.0704 20.4634 54.0704L20.6097 53.4827L20.365 53.1889C20.4627 53.1397 20.5113 53.042 20.5605 52.9442C20.609 52.699 20.5605 52.4543 20.365 52.2582C20.5605 52.1605 20.6097 52.0129 20.6097 51.8174C20.5611 51.3275 19.9734 51.5236 19.6304 51.4744C19.4349 51.4744 19.4349 51.2291 19.6304 51.2291C19.9734 51.2291 20.4142 51.2783 20.708 51.1314C20.8549 51.0822 20.9527 50.9359 20.9527 50.8375H20.4136V50.8363ZM9.98211 51.081L9.93355 51.1301C9.63971 51.5709 9.63971 52.2078 9.93355 52.6485C9.83581 52.6977 9.78663 52.7463 9.68827 52.7955C9.29669 52.9424 8.80674 52.8446 8.46372 52.6C8.56146 52.9916 8.80674 53.4323 9.19832 53.677C9.54135 53.8239 9.93293 53.8239 10.2268 53.6278C10.9128 53.2362 11.0106 52.5502 11.4022 52.0117C10.8145 52.0117 10.2268 51.6201 9.98211 51.081ZM27.0257 51.081C26.8295 51.6686 26.2419 52.0117 25.6542 52.0117C25.9966 52.5016 26.0949 53.0893 26.6334 53.5301C26.9273 53.7262 27.2697 53.8731 27.6619 53.7262C28.1518 53.5792 28.4942 53.0893 28.5926 52.5994C28.4457 52.6971 28.2502 52.7948 28.0541 52.844C27.7111 52.8932 27.3681 52.844 27.1234 52.6485C27.1726 52.5994 27.1726 52.5502 27.2218 52.5016C27.4172 52.0608 27.3681 51.4732 27.0257 51.081ZM19.4343 53.0401L19.0913 53.2848C19.0913 53.3831 19.189 53.4317 19.2382 53.4809C19.2382 53.5301 19.2382 53.6764 19.189 53.6764C19.1398 53.7255 18.9935 53.6764 18.9443 53.7255C18.846 53.7255 18.7974 53.8233 18.7974 53.921C18.9443 53.921 19.0913 53.921 19.189 54.0679C19.2874 54.0188 19.3851 53.921 19.532 53.9696C19.532 53.8227 19.532 53.7249 19.6298 53.578C19.6298 53.5288 19.7281 53.4803 19.7767 53.4803C19.6474 53.346 19.5327 53.1984 19.4343 53.0401ZM18.945 54.1669C18.8466 54.1177 18.6511 54.1177 18.5534 54.2155C18.7987 54.3624 18.8472 54.7055 19.1411 54.7547C19.2388 54.8039 19.3372 54.7546 19.3864 54.7054C19.2382 54.5585 19.1404 54.3132 18.945 54.1669ZM18.1612 54.1669C18.0143 54.1177 17.9159 54.1669 17.8182 54.2647L18.2097 54.6562C18.3567 54.7547 18.5528 54.8032 18.6997 54.7054C18.5036 54.5093 18.3573 54.2647 18.1612 54.1669ZM19.3366 54.2155C19.4835 54.4116 19.5812 54.6071 19.7773 54.8032C19.8312 54.8275 19.8897 54.8401 19.9488 54.8401C20.008 54.8401 20.0664 54.8275 20.1203 54.8032C19.9734 54.6071 19.8751 54.4116 19.7288 54.2647C19.6304 54.1669 19.4343 54.1669 19.3366 54.2155ZM17.4751 54.2647C17.3282 54.2155 17.1813 54.2155 17.0835 54.3132C17.2796 54.4601 17.4266 54.6562 17.6227 54.8032C17.7204 54.8524 17.9165 54.8032 18.0143 54.754C17.8182 54.5585 17.6712 54.3624 17.4751 54.2647ZM20.0712 54.3624C20.2181 54.5093 20.3164 54.754 20.5119 54.8524C20.6097 54.9015 20.708 54.9015 20.7572 54.8032C20.8064 54.754 20.8064 54.6563 20.8064 54.5579C20.6588 54.3132 20.3158 54.2647 20.0712 54.3624ZM16.7897 54.4116C16.7405 54.3624 16.6428 54.4116 16.5444 54.4116C16.4952 54.4608 16.4952 54.5585 16.4952 54.6562C16.5444 54.7547 16.5936 54.8524 16.6913 54.8524C16.8868 54.9015 17.1321 54.9015 17.279 54.8032C17.1327 54.6562 16.9858 54.4608 16.7897 54.4116ZM14.6836 55.6847C15.0266 56.1255 15.3199 56.664 15.0752 57.2031C15.0266 57.3008 14.9775 57.35 14.9289 57.3986C15.4674 57.4478 15.9082 57.3494 16.3004 57.1047C16.545 57.2031 16.8389 57.2516 17.1327 57.2516C17.4266 57.8393 17.7204 58.3778 17.9159 59.0147C17.9651 58.5739 17.9159 58.084 17.8182 57.6432C17.769 57.4969 17.7204 57.3494 17.6712 57.2516C18.0628 57.2025 18.455 57.0555 18.798 56.9086C19.0427 56.7617 19.3366 56.6148 19.5327 56.3209C18.8964 56.7125 18.1612 56.9086 17.3288 56.9578C16.8389 56.9578 16.3004 56.9578 16.0557 56.4679C15.958 56.2718 16.1049 56.0271 16.1535 55.8802C15.6635 56.0277 15.0752 55.93 14.6836 55.6847ZM13.1167 58.9176L11.7452 59.8483L10.4229 60.7785H10.3743L9.68827 59.946C9.78601 59.8483 9.93355 59.7499 10.0313 59.6522L10.4229 60.093C10.6682 59.946 10.9128 59.75 11.1581 59.5546C11.1089 59.4567 10.962 59.3092 10.9128 59.2114L11.4028 58.82L11.6966 59.2114C11.9419 59.016 12.2351 58.8691 12.4798 58.7215L12.3821 58.526C12.529 58.4276 12.6759 58.3299 12.872 58.2807L13.1167 58.9176ZM24.6749 58.5254L24.5772 58.7209L25.361 59.2108C25.4593 59.1131 25.5571 58.9662 25.6548 58.8685L26.1447 59.2108L25.8995 59.5538L26.6341 60.1415C26.781 59.9946 26.8794 59.8477 27.0257 59.7008C27.1234 59.7493 27.2703 59.8477 27.3681 59.9454V59.9946L26.6334 60.7778L24.8704 59.5538L23.9397 58.9661L24.185 58.2801C24.3811 58.3299 24.528 58.4276 24.6749 58.5254ZM15.859 61.4638L16.4467 60.5337L17.035 61.4638H15.859ZM21.1488 61.4638H20.0226C20.1835 61.1434 20.3633 60.8328 20.5611 60.5337C20.7566 60.8282 20.9527 61.17 21.1488 61.4638ZM16.7405 63.4728C16.6428 63.6683 16.5942 63.9615 16.545 64.2559C16.6428 64.3045 16.7903 64.2559 16.8881 64.2074H16.9372V64.5006C16.8389 64.452 16.7411 64.452 16.5942 64.452C16.5942 64.599 16.6428 64.7466 16.5942 64.9421H16.3004C16.3004 64.7466 16.3004 64.599 16.3496 64.452C16.2026 64.452 16.0557 64.452 15.958 64.5006V64.2074C16.0557 64.2559 16.2026 64.3045 16.3496 64.2559C16.3496 63.9615 16.2518 63.7174 16.1535 63.4728C16.2518 63.3258 16.3987 63.1297 16.4473 62.9828C16.4959 63.1297 16.6428 63.3252 16.7405 63.4728Z" fill="#C4CFE0"/>
<path fill-rule="evenodd" clip-rule="evenodd" d="M21.1973 59.2111H21.785C21.9805 59.5049 22.2258 59.7987 22.4704 59.9948C22.1766 60.4356 22.0297 60.9741 21.6873 61.4155H22.2258C22.2743 61.9054 22.3235 62.3954 22.5682 62.787H19.3359V65.1371H22.3235C22.1766 67.2917 20.5113 69.3978 18.5029 70.1822C16.4952 69.3978 14.8791 67.2917 14.7322 65.1371H17.6706V62.787H14.4869C14.7322 62.3954 14.7807 61.9054 14.7807 61.4155H15.3192V61.3669C14.9762 60.9741 14.8785 60.4848 14.5846 60.044C14.5846 60.044 14.5354 59.9948 14.5846 59.9948C14.8228 59.7559 15.036 59.4933 15.2209 59.2111H16.9354C17.3761 59.4065 17.7677 59.6026 18.1593 59.8971C18.747 59.6033 19.2861 59.2609 19.8732 58.9178C20.167 58.8201 20.5592 58.7217 20.8524 58.9178C20.9527 59.015 21.0996 59.1127 21.1973 59.2111ZM21.3934 60.2395H15.6629V60.435H16.2506L15.5645 61.5624C15.6137 61.7093 15.7114 61.9054 15.8583 62.0026C16.1036 62.198 16.446 62.2485 16.7399 62.1495C16.9852 62.0524 17.2298 61.855 17.3276 61.5624L16.6913 60.435H18.1605V60.8764H18.4544L18.0628 61.3663L18.5036 61.8065L18.9443 61.3663L18.5527 60.8764H18.8466L18.8958 60.435H20.365C20.365 60.435 19.9242 61.2194 19.6789 61.5624C19.7281 61.6595 19.8258 61.8071 19.8744 61.9054C20.1197 62.1987 20.5107 62.2485 20.8537 62.1501C21.099 62.1015 21.3928 61.8071 21.4414 61.563L20.7553 60.4356H21.3922V60.2395H21.3934ZM17.6712 66.46H15.3696C15.712 67.5862 16.5942 68.7118 17.6712 69.3978V66.46ZM19.3365 66.46V69.3978C20.0226 68.9577 20.6096 68.3694 21.0996 67.6846C21.3449 67.2917 21.5403 66.9001 21.6873 66.46H19.3365ZM26.9273 69.1046C26.8787 69.4619 26.8787 69.8242 26.9273 70.1816H26.6826C26.7803 69.9357 26.7318 69.5933 26.7318 69.3001C26.634 69.5447 26.5849 69.79 26.5363 70.0347H26.3396C26.3396 69.79 26.2904 69.5933 26.1927 69.3978V70.1337L26.2418 70.1822C26.1441 70.2308 26.0457 70.2308 25.9966 70.2308L26.0457 70.1337C26.0457 69.8392 26.0457 69.4968 25.9966 69.2023C26.0949 69.1538 26.1927 69.1538 26.3396 69.1538C26.3396 69.3007 26.4373 69.4968 26.4373 69.6437C26.4865 69.4968 26.5842 69.3007 26.5842 69.1052L26.9273 69.1046ZM11.3044 69.3486V70.1816L11.3536 70.2787C11.2558 70.2787 11.1581 70.2302 11.0597 70.2302L11.1089 70.133C11.1089 69.79 11.1581 69.447 11.0597 69.1531L11.3536 69.2017L11.3044 69.3486ZM25.7525 69.3486C25.7033 69.6916 25.8503 70.133 25.557 70.3285C25.4101 70.3771 25.2626 70.4256 25.1648 70.3285L25.1163 70.2302V69.4955L25.0671 69.447C25.1163 69.3972 25.2626 69.3486 25.3609 69.3486L25.2626 69.447L25.3117 70.1816C25.4095 70.3285 25.5072 70.1816 25.557 70.133V69.3972L25.5079 69.3001C25.6056 69.2515 25.7033 69.2515 25.8017 69.2017L25.7525 69.3486ZM10.8145 69.3001C10.9122 69.5447 10.9122 69.79 10.7653 69.9861C10.6183 70.2308 10.3245 70.1816 10.0306 70.1816C10.2261 69.9357 10.1284 69.5447 10.1284 69.2017C10.1284 69.1531 10.0792 69.1531 10.0792 69.1046C10.3737 69.1046 10.6675 69.0548 10.8145 69.3001ZM10.3737 69.2515L10.3245 70.0347C10.4222 70.0347 10.5206 70.0347 10.5698 69.9363C10.6675 69.7906 10.6675 69.5447 10.6189 69.3492C10.5698 69.2515 10.472 69.2515 10.3737 69.2515ZM12.1859 69.447V69.6917C12.0876 69.6431 12.039 69.4962 11.8921 69.5447C11.6966 69.6917 11.7452 69.8878 11.7943 70.0832C11.7943 70.1816 11.8435 70.2787 11.9413 70.3291C12.039 70.3291 12.0876 70.3291 12.1859 70.2793V70.5252C11.9413 70.5252 11.7452 70.4767 11.5982 70.2308C11.4999 70.0353 11.4999 69.6923 11.6468 69.5447C11.7445 69.3978 11.8921 69.3492 12.039 69.3978C12.0876 69.3972 12.1374 69.447 12.1859 69.447ZM24.9687 69.6431V69.6917C24.871 69.6431 24.8218 69.6431 24.7234 69.6917L24.6743 69.7402C24.7234 69.9861 24.6743 70.3285 24.7726 70.5732L24.4788 70.7201C24.5765 70.4256 24.4788 70.0832 24.528 69.79C24.4302 69.79 24.3319 69.9357 24.2827 70.0347C24.2335 69.9363 24.2827 69.8392 24.2827 69.7402C24.4788 69.6431 24.6743 69.5933 24.9195 69.447C24.9687 69.4962 24.9687 69.5933 24.9687 69.6431ZM12.9697 70.0832C12.9205 69.9861 12.8228 69.8878 12.7244 69.8878C12.6753 70.1822 12.6753 70.5246 12.7244 70.7693L12.4791 70.6722C12.5283 70.3777 12.4791 70.0839 12.5283 69.7408C12.43 69.7408 12.3814 69.6923 12.283 69.7408V69.5454L12.9691 69.8398L12.9697 70.0832ZM24.1358 70.0832C24.1358 70.0347 24.038 70.0347 23.9888 70.0347C23.9309 70.0717 23.8828 70.1223 23.8487 70.182C23.8147 70.2418 23.7957 70.309 23.7934 70.3777C23.7934 70.5246 23.7934 70.7207 23.9397 70.7693C24.038 70.8191 24.1358 70.7207 24.1849 70.6224V70.8683C24.0872 70.9168 23.9397 71.0152 23.8419 70.9654C23.7658 70.9331 23.7015 70.8782 23.6577 70.8082C23.6138 70.7382 23.5925 70.6563 23.5966 70.5738C23.5481 70.2793 23.6458 70.0353 23.9397 69.8878C23.9888 69.8392 24.0866 69.8878 24.1358 69.8392V70.0832ZM13.3613 70.0347L13.3121 70.133V70.8676C13.3121 70.9162 13.4099 70.9648 13.459 71.0146C13.5082 71.0146 13.606 70.9648 13.606 70.9162C13.5568 70.6715 13.6545 70.3777 13.5568 70.133L13.8021 70.2787C13.7043 70.4256 13.7529 70.6217 13.7529 70.8185C13.7529 71.3072 13.3613 71.1602 13.2636 71.0631C13.1652 70.9648 13.1166 70.9162 13.1166 70.7687C13.0675 70.4754 13.1658 70.133 13.0675 69.8871L13.3613 70.0347ZM14.3412 70.4761C14.3412 70.6715 14.3904 70.8191 14.4389 71.0146C14.5373 70.8676 14.5859 70.7201 14.635 70.5732C14.6842 70.5732 14.8305 70.5732 14.9289 70.6217L14.8797 70.7687L14.9289 71.5531V71.6502C14.8797 71.6987 14.7328 71.6502 14.6836 71.6502C14.6344 71.6016 14.7328 71.5531 14.7328 71.5531V70.7687C14.635 71.0146 14.5373 71.21 14.4875 71.4055L14.3406 71.3557C14.3406 71.1111 14.2428 70.867 14.1936 70.6211C14.1444 70.8966 14.1444 71.1786 14.1936 71.4541C14.0953 71.4541 14.0467 71.4055 13.9975 71.4055H13.9484L13.9975 71.3557C14.0467 71.0625 13.9975 70.7201 13.9975 70.4256L13.9484 70.3285L14.3412 70.4761ZM23.3034 70.2787C23.3526 70.5732 23.4503 70.8185 23.5487 71.0631L23.5973 71.1602C23.4995 71.1602 23.4018 71.2586 23.3034 71.2586C23.3526 71.1602 23.3034 71.1117 23.3034 71.0139C23.2057 71.0139 23.1079 71.0625 23.0096 71.1111C23.0096 71.2094 23.0096 71.3065 23.0587 71.4055C22.9604 71.4541 22.8626 71.5026 22.7649 71.5026C22.9118 71.1596 22.9604 70.8178 23.0096 70.4754V70.3771C23.1079 70.3285 23.2057 70.2787 23.3034 70.2787ZM23.2542 70.8676L23.1565 70.4761L23.0587 70.9162L23.2542 70.8676ZM22.7157 70.6715C22.7649 70.7687 22.7649 70.9648 22.6665 71.0631C22.6174 71.1602 22.4704 71.1602 22.3235 71.21C22.3235 71.3557 22.3235 71.5033 22.3727 71.6016C22.2743 71.6502 22.1766 71.6016 22.0789 71.6502C22.1766 71.3557 22.128 71.0146 22.128 70.6715L22.0789 70.5732C22.3241 70.6217 22.5688 70.4263 22.7157 70.6715ZM22.3241 70.6715V71.0631C22.3733 71.0631 22.4711 71.0631 22.4711 71.0146C22.5202 70.9162 22.5202 70.8191 22.5202 70.7687C22.5196 70.6715 22.3727 70.6715 22.3241 70.6715Z" fill="#C4CFE0"/>
<path fill-rule="evenodd" clip-rule="evenodd" d="M14.439 61.3666C14.4881 61.9051 14.3412 62.395 13.9982 62.8352C14.0474 62.9335 14.1451 63.0306 14.1943 63.0798C14.3898 63.0798 14.5373 63.1296 14.6351 63.0313C14.782 62.9342 14.8797 63.0313 14.9289 63.1296C15.0266 63.1296 15.0752 63.1296 15.1736 63.0798C15.1736 63.1296 15.125 63.2267 15.0758 63.2267C15.0273 63.2766 15.0273 63.2766 14.9781 63.2766C14.8803 63.3737 14.8312 63.472 14.6842 63.4222C14.6351 63.3251 14.5373 63.3737 14.439 63.3737C14.5859 63.5206 14.7328 63.6681 14.9289 63.7167H15.2228C15.3205 63.7653 15.2719 63.9122 15.3697 63.9614H15.516C15.4674 64.1083 15.2713 64.0597 15.1729 64.1581C14.9283 64.2066 14.8305 63.9614 14.6836 63.9122L14.4383 63.7167C14.4383 63.9614 14.5367 64.1581 14.6836 64.3536C14.7814 64.4021 14.8791 64.4021 14.9289 64.4507C15.0266 64.4992 14.9289 64.6462 15.0752 64.6462H15.2221C15.1244 64.7931 14.9283 64.7445 14.8305 64.8416C14.7328 64.8914 14.6351 64.8416 14.5367 64.7931C14.4875 64.696 14.4875 64.5976 14.4875 64.4986C14.2429 64.254 14.1445 63.9116 14.0468 63.6183C13.9976 63.6669 13.949 63.7155 13.9976 63.764C13.9976 63.8138 14.0953 63.9109 13.9976 64.0099C13.9484 64.0585 13.9976 64.1568 13.9976 64.2054C13.9484 64.1568 13.8998 64.107 13.8021 64.0585C13.7529 64.0585 13.6066 63.9601 13.7529 63.7155C13.7529 63.5685 13.8513 63.421 13.8998 63.2753C13.8998 63.2255 13.8021 63.1284 13.7529 63.0786C13.1652 63.6183 12.4306 63.863 11.7446 64.1568C11.5983 64.254 11.4022 64.4501 11.353 64.6455C11.353 64.7439 11.4022 64.7925 11.4999 64.8914C12.0876 65.0384 12.5775 64.4986 13.1652 64.8416C13.5568 65.0875 13.3613 65.7244 13.8998 65.8701C13.6546 65.9685 13.3613 66.116 13.2636 66.4086C13.2144 66.7031 13.2144 67.1445 13.4099 67.3885C13.8507 67.8784 14.7814 67.3885 14.9775 68.1717C14.9775 68.3186 14.9775 68.4661 14.8305 68.5645C14.8311 68.6527 14.8089 68.7396 14.766 68.8167C14.7232 68.8938 14.6611 68.9585 14.5859 69.0046L14.439 69.0532C14.4881 68.9561 14.5373 68.8577 14.4881 68.76C14.4499 68.6726 14.3801 68.6028 14.2927 68.5645C14.2927 68.6616 14.2435 68.8091 14.1949 68.9075C14.0966 69.0532 13.9496 69.0532 13.8033 69.103C13.9011 68.9561 13.9011 68.8571 13.8525 68.7102C13.8525 68.6616 13.8033 68.5645 13.7542 68.5645C13.6564 68.76 13.4603 68.9561 13.2157 69.0046C13.2648 68.9075 13.3134 68.8091 13.2648 68.6616C13.2648 68.4661 12.971 68.5147 12.9218 68.3186C12.7257 68.0241 12.4319 67.8286 12.0888 67.8784C12.2849 67.584 12.5788 67.2901 12.4319 66.8985C12.3827 66.7031 12.1872 66.507 11.9911 66.4584H11.6973C11.5995 66.1639 11.4034 65.8215 11.1096 65.7724C11.0604 65.7724 11.0604 65.7238 11.0118 65.7724C11.3057 66.1639 11.3549 66.8494 11.1096 67.3399C10.9141 67.927 10.228 68.0745 9.885 68.5645C11.5012 68.4661 12.7749 69.1515 14.048 69.789C14.2933 69.8862 14.5871 69.9845 14.8804 70.0337C14.9295 69.8868 14.8804 69.7392 15.0273 69.6907C15.5166 69.5438 16.1043 69.6907 16.4965 70.0337C16.6926 70.1806 16.5948 70.4751 16.6434 70.6706C16.8389 70.7677 17.0842 70.7677 17.3295 70.866C18.2602 70.9632 19.3378 70.9632 20.2193 70.7677C20.2679 70.7191 20.3662 70.7191 20.4148 70.6706C20.4148 70.4751 20.3662 70.2777 20.464 70.1321C20.9048 69.7392 21.4924 69.5438 22.0316 69.6907C22.1779 69.789 22.1293 69.8862 22.1293 70.0337C23.0108 69.9353 23.6963 69.3968 24.4801 69.1036C25.3124 68.7606 26.1939 68.5153 27.1738 68.5651C26.7822 68.0752 26.047 67.8791 25.8515 67.1936C25.7046 66.7522 25.7538 66.1652 26.047 65.7736C25.9461 65.7716 25.8468 65.798 25.7602 65.8499C25.6737 65.9018 25.6035 65.9769 25.5577 66.0668C25.4599 66.2137 25.4108 66.3613 25.3616 66.4596C25.1169 66.4596 24.8231 66.5082 24.6755 66.7529C24.5286 66.9483 24.5286 67.2914 24.6755 67.5373L24.9208 67.8803C24.5778 67.8305 24.2839 68.0758 24.0885 68.369C23.9907 68.5657 23.6969 68.5159 23.7454 68.7618C23.7454 68.859 23.7454 68.9088 23.8432 68.9573C23.6963 68.9573 23.5493 68.9088 23.4516 68.7618C23.3532 68.712 23.3532 68.5664 23.2555 68.5664C23.1086 68.6635 23.1578 68.8596 23.2063 69.0065V69.0551C23.1086 69.1049 23.0102 69.0551 22.9125 69.0065C22.8207 68.8777 22.7695 68.7244 22.7656 68.5664C22.6678 68.5664 22.6186 68.6149 22.5694 68.712C22.5203 68.7618 22.5203 68.8589 22.5203 68.9579L22.5694 69.0551C22.4225 69.0065 22.227 68.8596 22.1779 68.712V68.5664C22.0801 68.468 22.0316 68.2719 22.0801 68.125C22.3254 67.2434 23.6963 68.0266 23.7946 66.949C23.8432 66.6059 23.7946 66.2629 23.4516 66.0189C23.3532 65.9703 23.2555 65.9218 23.1086 65.872C23.6471 65.7263 23.4516 65.0402 23.9901 64.795C24.5286 64.5503 25.0186 65.0894 25.5577 64.8435C25.704 64.7949 25.704 64.6978 25.704 64.5503C25.3616 64.0603 24.7739 64.0118 24.2839 63.7173C23.9409 63.5218 23.5979 63.3743 23.3047 63.0804C23.2069 63.1303 23.1578 63.2274 23.1578 63.2772C23.1578 63.4229 23.2555 63.5704 23.3047 63.7659C23.4024 63.8642 23.3539 64.0118 23.2555 64.0118C23.2063 64.1089 23.1086 64.1587 23.0102 64.2073C23.0594 64.1587 23.0594 64.1089 23.0594 64.0603C22.961 64.0118 22.961 63.9134 23.0102 63.8157C23.0594 63.7659 23.0102 63.7173 23.0102 63.6688V63.6202C22.9135 63.9516 22.7648 64.2656 22.5694 64.5503C22.5694 64.6474 22.5694 64.7458 22.4717 64.795C22.374 64.8441 22.2756 64.8435 22.1779 64.8435C22.0801 64.7464 21.884 64.795 21.7863 64.648C21.884 64.648 21.9818 64.648 22.0316 64.5995C22.0316 64.5011 22.1293 64.4526 22.1779 64.404C22.227 64.3554 22.2756 64.404 22.3248 64.3554C22.4717 64.16 22.5694 63.9626 22.6186 63.7671H22.5694C22.4225 63.914 22.227 63.9626 22.0309 64.1101C21.9326 64.16 21.8348 64.16 21.7365 64.0616C21.6879 64.1101 21.541 64.0616 21.4918 63.9632C21.541 63.9632 21.6387 64.013 21.6879 63.9147C21.6879 63.8661 21.7365 63.7677 21.7857 63.7192C21.8834 63.6706 21.9811 63.7192 22.0309 63.7677C22.0795 63.7677 22.1772 63.7677 22.2264 63.6706C22.3242 63.6221 22.4711 63.4751 22.5688 63.3762C22.4219 63.279 22.275 63.5231 22.1281 63.3762L22.0789 63.279C22.0284 63.2797 21.9787 63.2662 21.9354 63.2403C21.8921 63.2144 21.8569 63.1769 21.8336 63.1321V63.0823C21.8828 63.0823 21.9805 63.1321 22.0789 63.1321C22.1281 63.0338 22.1766 63.0338 22.2744 63.0338C22.3235 63.0338 22.4213 63.0338 22.4705 63.0823C22.6174 63.0823 22.7643 63.1807 22.862 63.0338L23.0581 62.8383C22.7151 62.4467 22.519 61.9082 22.6174 61.3697C22.9112 61.3697 23.1565 61.3697 23.4504 61.3199C23.4012 61.7127 23.4012 62.1529 23.352 62.5444C23.352 62.5444 23.9889 62.3988 24.7726 62.0557C24.8218 62.6428 25.1157 63.1327 25.3112 63.6233C25.605 63.3288 25.9474 63.1334 26.2419 62.7903C26.8295 63.426 27.4664 64.112 27.7111 64.945C27.8094 65.4349 27.8094 66.022 28.3479 66.2667C28.4457 66.3165 28.544 66.3165 28.6418 66.3165C28.7395 66.3165 28.7887 66.2181 28.7887 66.1695C28.8379 65.7294 28.544 65.4349 28.3971 65.0433C28.2016 64.7003 28.1525 64.112 28.3971 63.8188C28.7402 63.3774 29.4256 63.7204 29.7686 63.3288C29.8178 63.2305 29.867 63.1334 29.9155 63.0344C29.9647 63.2299 29.8663 63.426 29.8663 63.6227C29.9641 63.5729 30.111 63.5243 30.2094 63.4758L30.5032 63.1813C30.2579 63.7198 30.3563 64.503 29.6217 64.6499C29.4256 64.6499 29.2301 64.6499 29.034 64.6013C28.9363 64.6013 28.8877 64.6499 28.8385 64.6997V64.8454C29.034 65.4337 29.6223 66.0214 29.2301 66.6582C29.034 66.9029 28.7402 66.9515 28.4955 66.9029C28.2508 66.8058 28.0547 66.6582 27.8592 66.4628L27.8101 66.6084C27.7609 67.3443 27.8592 68.2258 28.5447 68.6174C28.5932 68.6174 28.691 68.666 28.7402 68.666L28.6424 68.7643V68.8129C28.9854 68.8614 29.377 68.8614 29.7194 68.8129L29.7686 70.9675C29.2301 71.0659 28.6424 70.9675 28.1525 70.8704C27.7603 71.1151 27.6133 71.5565 27.2218 71.7021C27.1234 71.7519 27.1234 71.8491 27.1726 71.948C27.1726 71.9966 27.2218 72.0452 27.2703 72.095C27.0748 72.095 26.8787 71.948 26.8295 71.8005C26.7804 71.7519 26.7804 71.7021 26.7804 71.605C26.6334 71.6536 26.5849 71.8005 26.5849 71.948V72.0452C26.3888 71.9966 26.2419 71.7519 26.2419 71.5565C26.1441 71.5565 26.0458 71.7021 26.0458 71.8011L25.9966 71.8995C25.8497 71.7028 25.8011 71.2134 25.9474 70.9196L26.0451 70.8225C25.7513 70.8225 25.5066 70.9196 25.2613 70.9681C23.9391 71.3112 22.862 72.4865 21.3928 72.1441V71.6056C21.2459 71.5571 21.1475 71.6542 21.0498 71.7028V72.5357C20.5599 72.9771 19.8744 72.9771 19.2868 73.0742H17.8138C17.1913 73.0306 16.6005 72.9099 16.103 72.6341L16.0053 72.5855V71.7028C15.9076 71.6056 15.8092 71.6056 15.6623 71.5571V72.1441L15.6131 72.1927C15.0254 72.2911 14.4377 72.1441 13.8992 71.948L12.3316 71.1636C11.9401 71.0179 11.4993 70.8704 11.0093 70.8218C11.2546 71.0665 11.2546 71.5565 11.0585 71.8491V71.8989C11.0093 71.7519 10.9608 71.6044 10.8139 71.506C10.7647 71.6529 10.7647 71.8005 10.6669 71.8989C10.6177 71.9474 10.5692 71.996 10.4714 72.0445C10.4714 71.8989 10.4714 71.7015 10.3245 71.6044C10.276 71.7999 10.0792 72.0445 9.83519 72.0943H9.78601C9.88374 71.996 9.93294 71.8484 9.88375 71.7513C9.49217 71.5558 9.29607 71.0653 8.90448 70.8698C8.41454 70.9669 7.87602 71.0653 7.33691 70.9669V68.8123C7.67992 68.8608 8.07151 68.8608 8.41454 68.7637L8.31617 68.6653C8.70837 68.6168 9.00222 68.2252 9.14915 67.8822C9.29607 67.4408 9.29607 66.9508 9.19833 66.4621L8.90448 66.7554C8.6592 66.9023 8.26823 66.9508 7.97376 66.8052C7.87701 66.7329 7.80265 66.6348 7.75925 66.5221C7.71585 66.4094 7.7052 66.2868 7.72849 66.1683C7.77767 65.6783 8.0715 65.2868 8.26761 64.7968C8.26761 64.6997 8.21844 64.6499 8.16988 64.6013C7.72911 64.6499 7.28773 64.6997 6.99388 64.3567C6.70004 64.0137 6.74921 63.5237 6.60229 63.1807C6.74921 63.4253 6.99387 63.5237 7.18998 63.6221C7.18998 63.4253 7.09225 63.2292 7.1408 63.0338C7.23854 63.2292 7.43464 63.4253 7.63074 63.4751C8.02232 63.5723 8.46309 63.4751 8.70837 63.8667C9.14914 64.6499 8.36535 65.2868 8.26761 66.0214C8.26761 66.1197 8.26761 66.1683 8.31617 66.266C8.41454 66.3158 8.51227 66.3644 8.61063 66.3158C9.44298 66.0699 9.14914 65.0913 9.49216 64.503C9.83519 63.9159 10.3245 63.3282 10.8145 62.7897C11.1083 63.0829 11.4022 63.3282 11.7446 63.6227C11.9407 63.1327 12.2345 62.6428 12.2837 62.0551C12.7245 62.2506 13.2144 62.3981 13.6552 62.5438C13.6552 62.1522 13.6552 61.7121 13.6066 61.3193C13.8513 61.3666 14.1451 61.3168 14.439 61.3666ZM9.73746 68.9088C9.59053 69.202 9.6397 69.5936 9.68826 69.936C9.73745 70.1327 9.88374 70.3773 10.0799 70.4259C11.0106 70.4259 11.8921 70.6214 12.6267 70.9644C13.5083 71.356 14.292 71.9929 15.3697 71.8957V70.3282C14.8797 70.3767 14.3898 70.2784 13.949 70.0823C12.6267 69.3975 11.3536 68.712 9.73746 68.9088ZM24.7235 69.3003L23.1565 70.0349C22.7157 70.2304 22.2258 70.378 21.6873 70.3294V71.897C22.1281 71.9455 22.5196 71.8472 22.9112 71.7003L24.4296 70.9657C25.0659 70.721 25.7027 70.5255 26.3882 70.477C26.5843 70.4272 26.8781 70.5255 27.0742 70.3786C27.1641 70.3325 27.2392 70.2622 27.2912 70.1756C27.3431 70.089 27.3697 69.9896 27.3681 69.8886C27.4172 69.5942 27.4664 69.2026 27.3195 68.91C26.4349 68.8105 25.5397 68.9451 24.7235 69.3003ZM8.61063 69.0551C8.26761 69.1049 7.97377 69.1534 7.63074 69.1534V70.721C7.87602 70.721 8.16988 70.721 8.4631 70.6226C8.70838 70.231 8.80611 69.6925 8.70837 69.2026L8.61063 69.0551ZM28.4457 69.0551C28.201 69.545 28.2988 70.231 28.5926 70.6724C28.8871 70.721 29.1803 70.721 29.4748 70.721V69.1534C29.0826 69.1534 28.7887 69.1049 28.4457 69.0551ZM16.3004 70.8679V72.4355C16.3981 72.5326 16.5942 72.5824 16.7411 72.631C17.6233 72.8265 18.6511 72.8756 19.5818 72.7281C19.9734 72.6795 20.4142 72.631 20.7572 72.3851V70.8673C20.4634 71.0142 20.121 71.0628 19.7779 71.112C18.6505 71.2595 17.3282 71.2595 16.3004 70.8679Z" fill="#C4CFE0"/>
<path fill-rule="evenodd" clip-rule="evenodd" d="M16.9857 71.3563C16.9857 71.553 17.0349 71.6993 17.0835 71.8462C17.1326 71.6993 17.1812 71.553 17.1812 71.4061C17.2796 71.4061 17.4265 71.4061 17.5242 71.4546L17.475 71.553C17.5242 71.896 17.475 72.1886 17.5242 72.4831H17.2796C17.3287 72.2384 17.3287 71.896 17.3287 71.6501C17.231 71.8456 17.1333 72.0417 17.1333 72.287C17.1333 72.287 17.0355 72.287 16.9863 72.2384C16.9863 71.9925 16.8886 71.797 16.8394 71.5523C16.7908 71.8275 16.7908 72.109 16.8394 72.3841L16.6439 72.287C16.7417 72.0411 16.6931 71.7485 16.6931 71.454C16.6439 71.4054 16.6439 71.3071 16.6439 71.2585L16.9857 71.3563ZM20.4135 71.3077C20.3157 71.5536 20.3649 71.896 20.3649 72.239V72.2876C20.2975 72.3485 20.2104 72.383 20.1196 72.3847C20.1682 72.0915 20.1682 71.8462 20.1682 71.553C20.1196 71.7976 20.0219 71.9931 19.9727 72.239C19.9235 72.2876 19.875 72.2876 19.8258 72.2876C19.8258 72.0417 19.7281 71.8462 19.6789 71.6507C19.6789 71.8966 19.6297 72.239 19.7281 72.4837C19.6297 72.4837 19.5319 72.4837 19.4342 72.5322C19.5319 72.239 19.4834 71.8966 19.5319 71.5536L19.4342 71.4546C19.5811 71.4546 19.6795 71.4546 19.7772 71.4061C19.8264 71.4546 19.8264 71.553 19.8264 71.6015L19.9242 71.896C19.9733 71.6993 20.0225 71.553 20.0225 71.3563C20.1688 71.3563 20.2666 71.3077 20.4135 71.3077ZM18.308 71.6993C18.2103 71.6022 18.1125 71.6022 18.0142 71.6507V71.8966C18.0634 71.9452 18.1611 71.9452 18.2588 71.8966V72.0921C18.1611 72.0423 18.1119 72.0423 18.0142 72.0423V72.3853C18.0634 72.4351 18.2097 72.4351 18.308 72.3853H18.3572V72.582C18.1611 72.582 17.9164 72.5322 17.7203 72.5322C17.7695 72.4351 17.8181 72.3368 17.8181 72.1892C17.7689 71.9446 17.8673 71.6993 17.7203 71.4546L18.308 71.5032V71.6993ZM19.2873 71.4546C19.1889 71.7491 19.2381 72.0915 19.1889 72.3847C19.1889 72.4345 19.1397 72.5316 19.042 72.5814C18.6504 72.6785 18.5521 72.3847 18.5521 72.3847C18.5521 72.0915 18.6012 71.7491 18.5029 71.5032H18.7973C18.6996 71.7491 18.7482 72.0417 18.7482 72.3361C18.7973 72.3847 18.8459 72.3847 18.8951 72.4345C18.9443 72.4345 19.042 72.3847 19.0906 72.3361C19.0906 72.0417 19.0906 71.7976 19.0414 71.553V71.5032C19.0912 71.4546 19.1895 71.5032 19.2873 71.4546ZM42.4038 69.153C42.4038 69.3 42.4038 69.4475 42.4529 69.5446C42.5999 69.8391 42.9429 69.9362 43.2853 69.9362C43.5306 69.9362 43.9713 69.8391 43.9713 69.4475C43.9713 69.153 43.7261 69.0547 42.796 68.8106C41.9144 68.566 40.9352 68.3207 40.9352 67.2431C40.9352 65.97 42.0122 65.4314 43.139 65.4314C44.3144 65.4314 45.392 65.8716 45.4406 67.1945H43.8244C43.8736 66.999 43.7752 66.8515 43.6283 66.7531C43.4814 66.6604 43.312 66.6096 43.1384 66.6062C42.8931 66.6062 42.5021 66.7046 42.5021 66.999C42.5507 67.3906 43.3345 67.489 44.1183 67.6851C44.9021 67.8812 45.6367 68.2721 45.6367 69.2527C45.6367 70.6727 44.3636 71.1614 43.139 71.1614C42.5028 71.1614 40.7397 70.9167 40.7397 69.1537L42.4038 69.153ZM47.3505 66.9486H45.783V65.5279H50.5336V66.9486H49.0159V71.0145H47.3505V66.9486ZM52.3951 68.2715C52.3951 67.047 53.0313 66.7531 53.4721 66.7531C53.9128 66.7531 54.5497 67.0476 54.5497 68.2715C54.5497 69.4954 53.9128 69.7899 53.4721 69.7899C53.0313 69.7899 52.3951 69.4961 52.3951 68.2715ZM50.6812 68.2715C50.6812 69.9362 51.8074 71.1608 53.4727 71.1608C55.138 71.1608 56.2156 69.9362 56.2156 68.2715C56.2156 66.6056 55.138 65.4314 53.4727 65.4314C51.8074 65.4314 50.6812 66.6056 50.6812 68.2715ZM60.4272 67.5855C60.378 67.39 60.2311 66.7525 59.5456 66.7525C58.7619 66.7525 58.468 67.5369 58.468 68.2709C58.468 69.0049 58.7619 69.7893 59.5456 69.7893C60.0842 69.7893 60.3288 69.3965 60.4272 68.858H62.0925C62.0925 69.9854 61.1612 71.1595 59.5942 71.1595C57.7826 71.1595 56.8027 69.8864 56.8027 68.2703C56.8027 66.5558 57.8803 65.4302 59.5942 65.4302C61.064 65.4302 61.897 66.2134 62.0427 67.5848L60.4272 67.5855ZM62.7785 65.5279H64.4918V67.4385L66.0102 65.5279H68.0677L66.1086 67.6838L68.4107 71.0145H66.3047L64.9332 68.8586L64.4918 69.3971V71.0145H62.7785V65.5279ZM70.6625 65.5279H75.1685V66.9486H72.3284V67.634H74.9239V68.9084H72.3284V69.5932H75.2669V71.0145H70.6625V65.5279ZM77.5199 68.124L75.7556 65.5279H77.716L78.5477 67.047L79.3321 65.5279H81.2421L79.479 68.124L81.4376 71.0145H79.3807L78.4506 69.3971L77.4701 71.0145H75.5601L77.5199 68.124ZM85.0614 67.5855C85.0129 67.39 84.866 66.7525 84.1799 66.7525C83.3482 66.7525 83.1029 67.5369 83.1029 68.2709C83.1029 69.0049 83.3488 69.7893 84.1799 69.7893C84.7197 69.7893 84.9643 69.3965 85.0614 68.858H86.6788C86.6788 69.9854 85.7973 71.1595 84.1799 71.1595C82.4168 71.1595 81.4382 69.8864 81.4382 68.2703C81.4382 66.5558 82.5152 65.4302 84.1799 65.4302C85.6983 65.4302 86.5313 66.2134 86.6788 67.5848L85.0614 67.5855ZM87.4614 65.5279H89.1273V67.4385H90.6936V65.5279H92.4075V71.0145H90.6936V68.8586H89.1273V71.0145H87.4614V65.5279ZM95.1025 69.0547L95.641 67.39L96.1297 69.0547H95.1025ZM92.7991 71.0145H94.465L94.7097 70.2301H96.4727L96.7187 71.0145H98.4332L96.4734 65.5286H94.8087L92.7991 71.0145ZM98.9212 65.5279H100.636L102.203 68.467H102.252V65.5279H103.82V71.0145H102.203L100.539 68.0256H100.489V71.0145H98.9212V65.5279ZM108.717 70.476C108.374 70.9161 107.787 71.1608 107.15 71.1608C105.533 71.1608 104.554 69.8877 104.554 68.3207C104.554 66.2632 106.023 65.4314 107.248 65.4314C108.668 65.4314 109.549 66.1661 109.794 67.4392H108.178C108.08 67.0476 107.786 66.7531 107.345 66.7531C106.219 66.7531 106.268 67.9777 106.268 68.3693C106.268 68.8592 106.464 69.7905 107.493 69.7905C107.884 69.7905 108.277 69.5938 108.374 69.1537H107.591V67.9777H109.844V71.0151H108.766L108.717 70.476ZM110.774 65.5279H115.329V66.9486H112.489V67.634H115.035V68.9084H112.489V69.5932H115.378V71.0145H110.774V65.5279Z" fill="#C4CFE0"/>
</g>
<defs>
<clipPath id="clip0_1_180">
<rect width="120" height="120" fill="white" transform="translate(0.671875 0.484375)"/>
</clipPath>
</defs>
</svg>
