<svg width="65" height="65" viewBox="0 0 65 65" fill="none" xmlns="http://www.w3.org/2000/svg">
<g clip-path="url(#clip0_1_131)">
<path d="M35.9396 25.4839H28.4529C27.9747 26.3893 27.6575 27.0737 27.5679 27.2437H36.649C36.4439 26.6386 36.2083 26.0528 35.9396 25.4839Z" fill="#C4CFE0"/>
<path d="M24.6581 29.8433C23.9386 29.8433 23.3119 29.9351 22.3374 30.1821L22.0825 31.6314L22.2445 31.5895L22.5233 31.5192C22.9403 31.4082 23.5669 31.3413 24.1244 31.3413C25.0286 31.3413 25.3776 31.4999 25.3776 31.9249C25.3776 32.0427 25.3539 32.1311 25.3074 32.343C25.006 32.3113 24.7272 32.2931 24.5187 32.2931C22.3612 32.2931 21.108 33.2099 21.108 34.7736C21.108 35.8138 21.8275 36.5311 22.8723 36.5311C23.7539 36.5311 24.4281 36.2829 24.9142 35.7538L24.8677 36.4201H26.4915L26.5142 36.2456L26.538 36.0246L26.5844 35.6982L26.6536 35.2903L27.0717 33.0036C27.1884 32.2875 27.2111 32.0461 27.2111 31.7288C27.2111 30.4982 26.3295 29.8433 24.6581 29.8433ZM23.6847 35.1668C23.2439 35.1668 22.989 34.9084 22.989 34.5107C22.989 33.8603 23.5465 33.5317 24.6366 33.5317C24.776 33.5317 24.8689 33.5351 25.0785 33.5566C25.0309 34.5084 24.4734 35.1668 23.6847 35.1668Z" fill="#C4CFE0"/>
<path d="M18.556 28.5093L16.3974 33.4102L16.2581 28.5093H13.2178L11.7085 36.4232H13.4717L14.632 30.3767L14.9572 36.4232H16.7215L19.3901 30.3382L18.2297 36.4232H20.1787L21.7108 28.5093H18.556Z" fill="#C4CFE0"/>
<path d="M53.9953 35.8308C53.9941 35.7878 53.9715 35.7436 53.9488 35.7198C53.9023 35.6971 53.8559 35.6948 53.8332 35.6948H53.6474V36.139H53.7403V35.9657H53.8094L53.8797 36.139H53.9953L53.9261 35.9464C53.9726 35.9271 53.9953 35.8796 53.9953 35.8308ZM53.8559 35.8807C53.8332 35.8898 53.8094 35.8898 53.8094 35.8898H53.7392V35.7742H53.7879C53.8106 35.7742 53.857 35.7742 53.857 35.7844C53.8808 35.7934 53.8808 35.8116 53.8808 35.8286C53.8808 35.8478 53.8785 35.8705 53.8559 35.8807Z" fill="#C4CFE0"/>
<path d="M58.0699 41.4895C58.0676 41.4453 58.0461 41.4011 58.0223 41.3785C57.9759 41.3558 57.9294 41.3535 57.9056 41.3535H57.7209V41.7977H57.8138V41.6232H57.8829L57.9532 41.7977H58.0699L57.9997 41.604C58.0461 41.587 58.0699 41.5394 58.0699 41.4895ZM57.9294 41.5394C57.9056 41.5484 57.8829 41.5484 57.8829 41.5484H57.8127V41.434H57.8591C57.8829 41.434 57.9294 41.434 57.9294 41.4431C57.9532 41.4521 57.9532 41.4714 57.9532 41.4873C57.9532 41.5076 57.9532 41.528 57.9294 41.5394Z" fill="#C4CFE0"/>
<path d="M62.4462 11.7466H1.74134C0.830294 11.7466 0.09375 12.4843 0.09375 13.3942V51.5755C0.09375 52.4854 0.830294 53.2231 1.74134 53.2231H62.4462C63.3573 53.2231 64.0938 52.4854 64.0938 51.5755V13.3942C64.0938 12.4843 63.3573 11.7466 62.4462 11.7466ZM58.3475 41.8645C58.2999 41.9506 58.2354 42.0163 58.1516 42.0628C58.0676 42.1092 57.9793 42.133 57.8886 42.133C57.7957 42.133 57.7074 42.1092 57.6235 42.0628C57.5408 42.0163 57.475 41.9506 57.4263 41.8645C57.3798 41.7817 57.356 41.6934 57.356 41.6016C57.356 41.5098 57.3798 41.4225 57.4274 41.3364C57.4739 41.2503 57.542 41.1857 57.6258 41.1392C57.7108 41.095 57.7969 41.0713 57.8876 41.0713C57.9771 41.0713 58.0631 41.095 58.147 41.1392C58.2319 41.1857 58.2988 41.2503 58.3453 41.3364C58.3929 41.4225 58.4156 41.5109 58.4156 41.6016C58.4156 41.6922 58.3951 41.784 58.3475 41.8645ZM59.5351 32.4854C59.5373 41.5562 52.1878 48.9126 43.1158 48.9149C38.8733 48.916 35.0047 47.3081 32.0903 44.6667C29.1759 47.3035 25.3153 48.9103 21.0795 48.9103C12.0132 48.9103 4.65466 41.5528 4.65466 32.4854C4.65466 23.4543 11.9556 16.1183 20.9743 16.0594C21.0094 16.0594 21.0444 16.0594 21.0795 16.0594C25.3153 16.0594 29.177 17.6662 32.0914 20.303C35.0047 17.665 38.8688 16.0571 43.1079 16.056C52.1798 16.0526 59.5351 23.4055 59.5373 32.4775C59.5351 32.4797 59.5351 32.4809 59.5351 32.4854Z" fill="#C4CFE0"/>
<path d="M33.7175 21.9995H30.5969C30.1776 22.5661 29.7833 23.1689 29.4263 23.7582H34.9935C34.6071 23.144 34.1799 22.557 33.7175 21.9995Z" fill="#C4CFE0"/>
<path d="M37.169 31.3625C37.5645 31.3625 38.0744 31.3965 38.5855 31.4566L38.8643 29.9687C38.3533 29.8985 37.5873 29.8418 37.1227 29.8418C34.9425 29.8418 34.1742 30.8322 34.1754 32.0163C34.1754 32.8277 34.64 33.3886 35.6836 33.8101C36.4711 34.1308 36.589 34.226 36.589 34.5206C36.589 34.9194 36.2422 35.1007 35.4762 35.1007C34.8711 35.1007 34.3385 35.0214 33.7108 34.8469L33.4332 36.3313L33.5261 36.3483L33.8739 36.4118C33.9895 36.4345 34.1754 36.4537 34.4076 36.4696C34.8711 36.5036 35.2179 36.5228 35.4739 36.5228C37.5635 36.5228 38.5153 35.8441 38.5153 34.3767C38.5153 33.4928 38.121 32.9772 37.1227 32.5852C36.3102 32.26 36.2173 32.1863 36.2173 31.8849C36.2173 31.5393 36.5413 31.3625 37.169 31.3625Z" fill="#C4CFE0"/>
<path d="M47.338 29.9724C47.2439 29.9497 47.1737 29.9373 47.1737 29.9339C47.1045 29.9237 47.0343 29.918 46.964 29.918C46.3363 29.918 45.8728 30.2035 45.27 30.9639L45.4558 29.9871H43.6915L42.5074 36.4234H44.4575C45.1544 32.488 45.4547 31.7967 46.3827 31.7967C46.453 31.7967 46.5221 31.8024 46.615 31.8126L46.8473 31.8602L47.5465 30.0426C47.3844 29.9803 47.3606 29.9803 47.338 29.9724Z" fill="#C4CFE0"/>
<path d="M41.4853 31.552H42.4836L42.7623 29.9859H41.7652L42.0439 28.5083H40.1176L39.2122 33.4216L39.1193 33.9304L39.0026 34.5638C38.9788 34.7678 38.9561 34.9604 38.9561 35.1406C38.9561 36.0539 39.4898 36.5548 40.4881 36.5548C40.9289 36.5548 41.347 36.4913 41.8807 36.3452L42.1357 34.9174C41.9986 34.9593 41.8354 34.9797 41.6258 34.9797C41.1623 34.9797 40.9516 34.8369 40.9516 34.5038C40.9516 34.4449 40.9516 34.3554 40.9754 34.2375L41.4853 31.552Z" fill="#C4CFE0"/>
<path d="M53.8094 35.417C53.5307 35.417 53.2984 35.6425 53.2984 35.9179C53.2984 36.1966 53.5307 36.4221 53.8094 36.4221C54.0882 36.4221 54.3205 36.1966 54.3205 35.9179C54.3205 35.6436 54.0882 35.417 53.8094 35.417ZM53.8094 36.302C53.6009 36.302 53.4151 36.1309 53.4151 35.9179C53.4151 35.7071 53.6009 35.5371 53.8094 35.5371C54.0202 35.5371 54.1811 35.7071 54.1811 35.9179C54.1811 36.1309 54.0202 36.302 53.8094 36.302Z" fill="#C4CFE0"/>
<path d="M50.5606 29.8032C48.24 29.8032 46.7317 31.35 46.7317 33.6287C46.7317 35.2616 47.6122 36.5964 49.8196 36.5964C51.8139 36.5964 53.2994 35.6457 53.602 33.5064C53.6485 33.1324 53.6485 33.1064 53.6485 32.7075C53.6485 31.0735 52.581 29.8032 50.5606 29.8032ZM51.5125 33.4508C51.3504 34.4537 50.4462 35.0282 50.0281 35.0282C49.3312 35.0418 48.9142 34.4537 48.9142 33.58C48.9142 32.5466 49.517 31.3738 50.5153 31.3738C51.304 31.3738 51.5816 32.0117 51.5816 32.6826C51.5816 32.9613 51.5589 33.2151 51.5125 33.4508Z" fill="#C4CFE0"/>
<path d="M33.3368 33.7547C33.5012 33.102 33.5714 32.6395 33.5714 32.1636C33.5714 30.737 32.5493 29.8271 30.9493 29.8271C28.9992 29.8271 27.5612 31.4531 27.5612 33.6594C27.5601 35.5574 28.6978 36.5444 30.8791 36.5444C31.5521 36.5444 32.2014 36.4594 32.8519 36.2849L33.1759 34.6735C32.4802 34.9568 31.8536 35.0826 31.1567 35.0826C30.0428 35.0826 29.4626 34.703 29.4626 33.9574C29.4626 33.8973 29.4626 33.8531 29.4864 33.7547H33.3368ZM30.9255 31.3002C31.5057 31.3002 31.8309 31.605 31.8309 32.1274C31.8309 32.2135 31.8309 32.32 31.8309 32.4582L29.6723 32.456C29.8581 31.7081 30.3 31.3002 30.9255 31.3002Z" fill="#C4CFE0"/>
<path d="M28.2162 39.4214C28.5007 40.031 28.8327 40.6123 29.1862 41.1801H35.014C35.3675 40.6146 35.6871 40.0288 35.9703 39.4214H28.2162Z" fill="#C4CFE0"/>
<path d="M30.4088 42.8672C30.9289 43.5052 31.4796 44.1137 32.0881 44.6621C32.1017 44.6496 32.1164 44.6395 32.13 44.6259H32.1323C32.7306 44.0808 33.2892 43.4938 33.8003 42.8672H30.4088Z" fill="#C4CFE0"/>
</g>
<defs>
<clipPath id="clip0_1_131">
<rect width="64" height="64" fill="white" transform="translate(0.09375 0.484375)"/>
</clipPath>
</defs>
</svg>
