<svg width="111" height="27" viewBox="0 0 111 27" fill="none" xmlns="http://www.w3.org/2000/svg">
<g clip-path="url(#clip0_1_188)">
<path d="M0 14.2511L2.41371 0.84668H7.6045C11.4149 0.84668 13.569 3.27105 12.7758 7.6829C11.8658 12.7303 8.88597 14.2511 5.09183 14.2511H0Z" fill="#C4CFE0"/>
<path d="M4.4397 11.1253H5.26049C7.06753 11.1253 8.24681 10.0463 8.70425 7.51271C9.2071 4.7193 8.53555 3.97461 6.46735 3.97461H5.72604L4.4397 11.1253Z" fill="#EFF6FE"/>
<path d="M25.9684 7.476C25.146 12.0368 21.9748 14.6068 18.4759 14.6068C14.7645 14.6068 12.753 12.0004 13.5755 7.43959C14.3314 3.23128 17.3388 0.494141 21.0177 0.494141C25.2385 0.494141 26.6059 3.93791 25.9684 7.476Z" fill="#C4CFE0"/>
<path d="M17.4443 7.47625C17.1361 9.18904 17.2107 11.3305 19.0664 11.3305C20.7421 11.3305 21.6943 9.69211 22.0933 7.47625C22.421 5.65094 22.1128 3.71641 20.3949 3.77268C18.6366 3.77102 17.7493 5.78168 17.4443 7.47625Z" fill="#EFF6FE"/>
<path d="M37.7808 8.25296H37.8132L40.7363 0.849121H44.2271L38.5188 14.2519H34.7085L34.3403 6.47069H34.3078L31.1561 14.2519H27.4965L26.7163 0.849121H30.259L30.7051 8.25296H30.7392L33.7433 0.849121H37.2504L37.7808 8.25296Z" fill="#C4CFE0"/>
<path d="M92.6603 12.5084C93.481 12.1229 93.9531 11.3881 94.2061 9.98973C95.0853 5.11285 88.0599 6.36061 88.4217 4.34997C88.5092 3.8651 88.9375 3.58707 89.7907 3.58707C90.1687 3.58707 90.5012 3.66155 90.7494 3.82869C90.9992 3.99748 91.1614 4.27716 91.1436 4.74217H94.8225C94.9637 2.39227 93.812 0.494141 90.5272 0.494141C87.5717 0.494141 84.84 1.56484 84.3274 4.41451C83.4061 9.53465 90.1411 8.25875 90.1411 10.3207C90.1411 11.355 88.3405 11.1134 88.3405 11.1134C86.1101 11.1134 86.308 9.28973 86.308 9.28973H82.595C82.5285 10.6782 82.741 11.5486 83.1676 12.0931C82.6788 12.0816 82.19 12.0711 81.7012 12.0616L81.8618 10.708H77.3393L77.7189 8.39776H82.1911L82.6015 5.63248H78.2802L78.6257 3.50764H83.2763L83.7386 0.846626H75.3149L73.3051 12.0136L71.5808 12.0269L73.7447 0.846626H70.4891L69.1671 7.49255L66.416 0.848281H62.7857L60.6639 12.6276C59.6955 12.7302 58.7369 12.8477 57.7847 12.9735C59.2446 11.7621 60.346 9.90036 60.7824 7.476C61.4215 3.93791 60.0524 0.494141 55.8317 0.494141C52.1527 0.494141 49.1469 3.23128 48.3894 7.43793C47.7762 10.8453 48.743 13.1605 50.8177 14.1137C48.962 14.4744 47.1517 14.8683 45.3917 15.2903C46.3552 13.7099 46.7397 11.2458 47.1306 9.07625L48.6132 0.846626H44.9391L42.8904 12.017C42.8904 12.017 42.5676 14.0094 41.4029 14.0094H39.6283L38.5301 17.1272C26.3026 20.0165 15.0938 26.4722 15.0938 26.4722H21.4817C21.4817 26.4722 57.2689 5.83769 110.598 15.7669L111.003 15.3019C111 15.3035 106.748 13.4302 92.6603 12.5084Z" fill="#C4CFE0"/>
<path d="M52.2599 7.47625C52.5648 5.78333 53.4521 3.77268 55.2105 3.77268C56.9283 3.71641 57.2365 5.6526 56.9089 7.47625C56.5098 9.69211 55.5576 11.3305 53.882 11.3305C52.0263 11.3305 51.9517 9.18903 52.2599 7.47625ZM65.0211 6.72329L67.584 12.1182C66.4242 12.1645 65.2709 12.2307 64.1273 12.3167L65.0211 6.72329Z" fill="#EFF6FE"/>
</g>
<defs>
<clipPath id="clip0_1_188">
<rect width="111" height="26" fill="white" transform="translate(0 0.484375)"/>
</clipPath>
</defs>
</svg>
