<svg width="129" height="129" viewBox="0 0 129 129" fill="none" xmlns="http://www.w3.org/2000/svg">
<g clip-path="url(#clip0_1_212)">
<path fill-rule="evenodd" clip-rule="evenodd" d="M98.2501 86.6012H99.0376V82.5299H96.1477V83.3832H98.0529V83.9749C98.0529 85.2227 97.264 85.9451 96.0169 85.9451C94.5719 85.9451 93.6522 84.6974 93.6522 82.3978C93.6522 80.1659 94.5055 78.9181 96.0169 78.9181C97.001 78.9181 97.6591 79.5085 97.9871 80.7562L98.9068 80.559C98.4466 78.9181 97.5269 78.1299 96.0169 78.1299C93.9809 78.1299 92.7331 79.7057 92.7331 82.4642C92.7331 85.1569 93.9809 86.7327 96.0169 86.7327C96.9366 86.7327 97.6591 86.4047 98.1843 85.6822L98.2501 86.6012ZM101.27 86.6012H102.123V83.2524C102.451 82.0047 103.109 81.3472 103.963 81.3472H104.029V80.4939H103.832C103.043 80.4939 102.518 80.9528 102.124 81.9389V80.559H101.27V86.6012ZM104.949 83.5805C104.949 85.6164 105.868 86.732 107.444 86.732C109.02 86.732 109.94 85.6164 109.94 83.5805C109.94 81.5445 109.02 80.4275 107.444 80.4275C105.868 80.4275 104.949 81.5438 104.949 83.5805ZM105.802 83.5805C105.802 82.0047 106.394 81.15 107.444 81.15C108.495 81.15 109.086 82.0047 109.086 83.5805C109.086 85.1563 108.495 86.0096 107.444 86.0096C106.394 86.0096 105.802 85.1563 105.802 83.5805ZM116.046 80.5583H115.259V85.0912C114.667 85.6815 114.142 86.0096 113.551 86.0096C112.828 86.0096 112.567 85.6164 112.567 84.7618V80.5583H111.712V85.0254C111.712 86.1424 112.304 86.732 113.289 86.732C114.012 86.732 114.668 86.404 115.324 85.6815V86.6012H116.046V80.5583ZM118.477 88.8344H119.266V85.9445C119.659 86.4698 120.186 86.732 120.842 86.732C122.484 86.732 123.338 85.6164 123.338 83.6469C123.338 81.6109 122.418 80.4275 120.842 80.4275C120.12 80.4275 119.659 80.7556 119.266 81.2808L119.069 80.5583H118.477V88.8344ZM119.266 85.0912V82.0691C119.659 81.4774 120.185 81.1494 120.841 81.1494C121.958 81.1494 122.484 82.004 122.484 83.6462C122.484 85.222 121.892 86.0096 120.908 86.0096C120.25 86.0096 119.724 85.7473 119.266 85.0912ZM6.63147 78.195H8.60172C9.71799 78.195 10.572 78.3258 11.2287 78.8511C12.1484 79.5736 12.7388 80.7549 12.7388 82.3971C12.7388 85.1556 11.2938 86.6006 8.40449 86.6006H6.63147V78.195ZM7.55119 78.9825V85.7479H8.27368C9.32487 85.7479 10.1124 85.6815 10.7041 85.1563C11.4266 84.631 11.8204 83.6469 11.8204 82.3978C11.8204 81.0192 11.4266 80.0995 10.7041 79.5078C10.0474 79.049 9.32487 78.9825 8.40516 78.9825H7.55119ZM19.1097 85.2871C18.5838 86.2068 17.7955 86.667 16.6799 86.667C15.1035 86.667 14.2495 85.6164 14.2495 83.514C14.2495 81.5438 15.1685 80.4275 16.6142 80.4275C18.0592 80.4275 18.9789 81.4781 18.9789 83.4496V83.7119H15.1041V83.9092C15.1041 85.2233 15.7609 85.9451 16.7463 85.9451C17.4688 85.9451 18.1256 85.6171 18.4536 84.8946L19.1097 85.2871ZM18.0592 82.9888C18.0592 81.8074 17.4682 81.1494 16.6142 81.1494C15.6951 81.1494 15.1692 81.8068 15.1035 82.9888H18.0592ZM25.0211 86.6012H24.2986V85.6815C23.6418 86.3389 22.9844 86.667 22.2626 86.667C21.2778 86.667 20.6862 86.0753 20.6862 85.0248V80.4933H21.5401V84.6967C21.5401 85.55 21.8031 85.9445 22.5249 85.9445C23.1166 85.9445 23.6418 85.6815 24.2329 85.0248V80.4933H25.0211V86.6012ZM29.8155 86.5348C29.4868 86.667 29.2245 86.667 28.8958 86.667C27.9761 86.667 27.5166 86.2725 27.5166 85.4843V81.2158H26.5969V80.4933H27.5166V78.523H28.3706V80.4933H29.7498V81.2158H28.3706V85.1563C28.3706 85.7479 28.502 85.9451 29.2245 85.9451C29.4211 85.9451 29.6183 85.8787 29.8155 85.8787V86.5348ZM31.2599 85.0254C31.7858 85.6815 32.3111 86.0096 33.0329 86.0096C33.7547 86.0096 34.2149 85.5507 34.2149 84.959C34.2149 84.1715 33.5581 84.1057 32.3761 83.7113C31.3249 83.449 30.7997 82.858 30.7997 82.0691C30.7997 81.0849 31.5879 80.4269 32.6384 80.4269C33.5581 80.4269 34.2806 80.7549 34.8716 81.4123L34.2806 82.004C33.8211 81.4123 33.2952 81.0843 32.7042 81.0843C32.1125 81.0843 31.7194 81.4774 31.7194 82.004C31.7194 82.2663 31.7851 82.4629 31.9817 82.5943C32.3761 82.9224 32.9671 82.9888 33.6239 83.186C34.6087 83.514 35.0689 84.0393 35.0689 84.8939C35.0689 85.9445 34.2806 86.667 32.9014 86.667C31.9817 86.667 31.1284 86.2725 30.6031 85.55L31.2599 85.0254ZM38.747 86.667C37.1706 86.667 36.2515 85.6164 36.2515 83.514C36.2515 81.5438 37.237 80.4275 38.747 80.4275C39.7982 80.4275 40.5865 81.0192 40.9145 82.0047L40.0605 82.3327C39.864 81.5438 39.3387 81.15 38.6813 81.15C37.6965 81.15 37.1706 81.9389 37.1706 83.5147C37.1706 85.1569 37.6965 85.9451 38.747 85.9451C39.4038 85.9451 39.9291 85.5507 40.3235 84.7625L41.046 85.1569C40.5201 86.2068 39.7976 86.667 38.747 86.667ZM42.6875 78.195H43.4758V81.413C44.1982 80.6905 44.7892 80.4275 45.5775 80.4275C46.628 80.4275 47.2197 81.0192 47.2197 82.0697V86.6012H46.3657V82.3978C46.3657 81.5445 46.1027 81.15 45.3152 81.15C44.7242 81.15 44.0674 81.413 43.4758 82.0697V86.6012H42.6875V78.195ZM53.8522 85.2871C53.3263 86.2068 52.5387 86.667 51.4225 86.667C49.846 86.667 48.927 85.6164 48.927 83.514C48.927 81.5438 49.9117 80.4275 51.3567 80.4275C52.8017 80.4275 53.7214 81.4781 53.7214 83.4496V83.7119H49.8467V83.9092C49.8467 85.2233 50.5034 85.9451 51.4889 85.9451C52.2114 85.9451 52.8681 85.6171 53.1968 84.8946L53.8522 85.2871ZM52.8017 82.9888C52.8017 81.8074 52.2107 81.1494 51.3567 81.1494C50.437 81.1494 49.9117 81.8068 49.846 82.9888H52.8017ZM59.5664 78.195H61.8647C64.0321 78.195 65.0827 78.7853 65.0827 80.296C65.0827 81.2158 64.6232 81.8068 63.7034 82.1355C64.6889 82.5299 65.3456 83.2524 65.3456 84.3029C65.3456 85.8123 64.2287 86.6012 62.127 86.6012H59.5657L59.5664 78.195ZM60.4854 78.9175V81.8074H62.2591C63.5069 81.8074 64.1636 81.2808 64.1636 80.2967C64.1636 79.377 63.4411 78.9181 61.9962 78.9181L60.4854 78.9175ZM60.4854 82.5943V85.8123H62.1934C63.7034 85.8123 64.3609 85.3535 64.3609 84.2365C64.3609 83.1196 63.6384 82.5943 62.1934 82.5943H60.4854ZM67.8412 78.3265H68.7609V79.377H67.8412V78.3265ZM69.6799 78.3265H70.5996V79.377H69.6799V78.3265ZM69.2211 80.4275C70.7968 80.4275 71.7823 81.5445 71.7823 83.514C71.7823 85.55 70.7968 86.667 69.2211 86.667C67.6439 86.667 66.6598 85.55 66.6598 83.514C66.6591 81.5438 67.6439 80.4275 69.2211 80.4275ZM69.2211 86.0096C70.2716 86.0096 70.8633 85.1563 70.8633 83.5805C70.8633 81.9383 70.2716 81.15 69.2211 81.15C68.1705 81.15 67.5789 81.9389 67.5789 83.5147C67.5789 85.1563 68.1705 86.0096 69.2211 86.0096ZM73.4896 80.4933H74.3442V81.8718C74.8031 80.8877 75.3283 80.4269 76.1172 80.4269H76.3145V81.2802H76.248C75.3947 81.2802 74.7373 81.9376 74.3442 83.1853V86.6006H73.4896V80.4933ZM77.6266 85.0254C78.0868 85.6815 78.6771 86.0096 79.3346 86.0096C80.1235 86.0096 80.5823 85.5507 80.5823 84.959C80.5823 84.1715 79.9262 84.1057 78.7429 83.7113C77.6924 83.449 77.1671 82.858 77.1671 82.0691C77.1671 81.0849 77.9547 80.4269 79.0065 80.4269C79.9262 80.4269 80.6487 80.7549 81.174 81.4123L80.6487 82.004C80.1885 81.4123 79.6633 81.0843 79.0716 81.0843C78.4155 81.0843 78.0211 81.4774 78.0211 82.004C78.0211 82.2663 78.1519 82.4629 78.3491 82.5943C78.7436 82.9224 79.3346 82.9888 79.9262 83.186C80.9768 83.514 81.4356 84.0393 81.4356 84.8939C81.4356 85.9445 80.5823 86.667 79.2682 86.667C78.284 86.667 77.4287 86.2725 76.9699 85.55L77.6266 85.0254ZM87.5449 85.2871C87.0196 86.2068 86.2307 86.667 85.1145 86.667C83.5387 86.667 82.619 85.6164 82.619 83.514C82.619 81.5438 83.6031 80.4275 85.0481 80.4275C86.493 80.4275 87.4128 81.4781 87.4128 83.4496V83.7119H83.5387V83.9092C83.5387 85.2233 84.1948 85.9451 85.1809 85.9451C85.9034 85.9451 86.5594 85.6171 86.8875 84.8946L87.5449 85.2871ZM86.493 82.9888C86.493 81.8074 85.9027 81.1494 85.0481 81.1494C84.1284 81.1494 83.6031 81.8068 83.5387 82.9888H86.493Z" fill="#C4CFE0"/>
<path fill-rule="evenodd" clip-rule="evenodd" d="M18.9131 59.8711L6.63147 66.8324V74.3196L25.4806 63.5486L18.9131 59.8711Z" fill="#C4CFE0"/>
<path fill-rule="evenodd" clip-rule="evenodd" d="M38.6156 62.4988L33.0329 59.2808H19.898L32.0481 66.177L38.6156 62.4988Z" fill="#C4CFE0"/>
<path fill-rule="evenodd" clip-rule="evenodd" d="M58.4494 52.2524L33.0329 66.7672H46.2342L64.8861 56.062L58.4494 52.2524Z" fill="#C4CFE0"/>
<path fill-rule="evenodd" clip-rule="evenodd" d="M78.1519 54.9451L72.439 51.7271H59.3692L71.5193 58.7547L78.1519 54.9451Z" fill="#C4CFE0"/>
<path fill-rule="evenodd" clip-rule="evenodd" d="M123.337 37.7384L85.6391 59.2802H72.5048L123.337 30.3169V37.7384Z" fill="#C4CFE0"/>
</g>
<defs>
<clipPath id="clip0_1_212">
<rect width="128" height="128" fill="white" transform="translate(0.984375 0.484375)"/>
</clipPath>
</defs>
</svg>
