<svg width="65" height="43" viewBox="0 0 65 43" fill="none" xmlns="http://www.w3.org/2000/svg">
<g clip-path="url(#clip0_1_165)">
<path d="M62.7344 0.484375H2.73438C1.62981 0.484375 0.734375 1.37981 0.734375 2.48438V40.4844C0.734375 41.5889 1.62981 42.4844 2.73438 42.4844H62.7344C63.8389 42.4844 64.7344 41.5889 64.7344 40.4844V2.48438C64.7344 1.37981 63.8389 0.484375 62.7344 0.484375Z" fill="#C4CFE0"/>
<path d="M28.1455 31.7559C28.0542 31.4995 27.8886 31.3247 27.7687 31.0975C27.4776 30.7071 27.135 30.3691 26.7925 30.0312C26.6726 29.9904 26.6212 29.8738 26.5071 29.8272C26.4328 29.7282 26.313 29.6757 26.2159 29.6C26.0218 29.4485 25.8106 29.3203 25.5936 29.1921C25.1826 28.9241 24.6745 28.7551 24.1721 28.5803C23.6298 28.4463 23.0589 28.3472 22.4652 28.2656C21.8772 28.1782 21.2892 28.0967 20.8439 27.8578C20.587 27.782 20.3986 27.6363 20.176 27.5198C19.9704 27.3799 19.7478 27.2634 19.5765 27.0886C19.3653 26.9604 19.234 26.7448 19.0684 26.57C19.0113 26.4535 18.9143 26.3836 18.8686 26.2554C18.8115 26.2321 18.7944 26.1621 18.7602 26.1213C18.7202 26.0747 18.7202 25.9815 18.6517 25.964C18.6174 26.2029 18.6289 26.4884 18.6517 26.7332C18.6802 26.8381 18.6916 26.9662 18.7202 27.0711C18.7373 27.1644 18.823 27.3159 18.7887 27.3858C17.0075 27.2925 15.7059 26.7157 14.5756 25.9582C14.0161 25.5794 13.5366 25.1191 13.0913 24.6238C12.8972 24.35 12.6859 24.0878 12.5147 23.7848C12.3377 23.4876 12.1893 23.1496 12.0294 22.835C11.7668 22.1533 11.5213 21.454 11.43 20.5975C11.3101 19.7992 11.3387 18.7795 11.5156 18.0395C11.5784 17.6316 11.7097 17.2878 11.8239 16.9324C11.8981 16.7692 11.978 16.6061 12.0466 16.4371C12.1436 16.2973 12.195 16.105 12.3149 15.9826C12.6403 15.3591 13.1255 14.893 13.6222 14.4443C14.1588 14.0423 14.7697 13.716 15.5061 13.5178C16.214 13.3547 17.1788 13.3256 17.9438 13.4945C19.4966 13.8208 20.6669 14.5317 21.6488 15.4407C22.6422 16.3322 23.4072 17.4626 23.9324 18.8378C24.4747 20.143 24.6631 22.1766 24.1779 23.6566C23.978 23.54 23.7782 23.4293 23.5784 23.3186C23.3387 23.2487 23.1046 23.1671 22.8249 23.138C22.488 23.1322 22.1569 23.138 21.94 23.2487C22.3796 23.2021 22.7335 23.3245 23.0075 23.4293C23.1674 23.4934 23.2587 23.5342 23.3843 23.61C23.6298 23.7556 23.8467 23.8897 24.0294 24.0878C24.5489 24.5539 24.92 25.1716 25.097 25.9873C25.097 26.0106 25.1255 26.0048 25.1198 25.964C25.1426 25.9582 25.1541 25.9407 25.1655 25.9174C25.194 25.8824 25.2283 25.8475 25.2568 25.8067C25.3139 25.7368 25.371 25.6668 25.411 25.5794C25.5309 25.4338 25.6279 25.2706 25.7192 25.1016C25.9305 24.787 26.0903 24.4257 26.273 24.0819C26.587 23.3478 26.8439 22.5553 27.0037 21.658C27.3234 19.6652 26.9409 17.7773 26.273 16.3847C25.5879 14.9804 24.6289 13.8558 23.39 13.0109C22.1398 12.1718 20.6783 11.5542 18.6688 11.4959C18.6574 11.4551 18.6403 11.5018 18.6003 11.4959C17.5385 11.461 16.6821 11.6125 15.8315 11.8339C15.4376 11.9679 15.0266 12.0844 14.6783 12.2651C14.2787 12.3991 13.959 12.6205 13.5936 12.7837C13.4623 12.9119 13.2625 12.976 13.1255 13.0983C12.9485 13.1857 12.8172 13.3256 12.6403 13.413C12.3548 13.6693 12.0523 13.8966 11.7725 14.1588C11.4985 14.4152 11.2587 14.7065 10.9961 14.9746C10.9562 15.0678 10.8877 15.1319 10.8191 15.2018C10.7735 15.2892 10.7164 15.365 10.6421 15.4291C10.6136 15.5339 10.5223 15.5747 10.488 15.6796C10.4138 15.7379 10.3967 15.8544 10.311 15.9069C10.2368 16.0933 10.1055 16.2273 10.0199 16.4021C9.91712 16.5711 9.8372 16.7576 9.73444 16.9207C9.57459 17.2995 9.40332 17.6666 9.27202 18.0745C9.13501 18.4707 9.02083 18.8902 8.94091 19.3447C8.85527 19.7701 8.77535 20.3236 8.78677 20.7723C8.72968 20.9354 8.77535 21.2384 8.78677 21.4307C8.78677 21.4657 8.76393 21.4773 8.76393 21.5006C8.76393 21.7162 8.82102 21.9784 8.83244 22.1125C8.87811 22.6077 8.96374 23.0681 9.10075 23.4701C9.18639 23.9188 9.36907 24.2684 9.50037 24.6705C9.70018 25.0084 9.8372 25.4105 10.077 25.7135C10.2539 26.0689 10.5051 26.3486 10.7449 26.6399C11.0018 26.9196 11.2587 27.2051 11.567 27.4324C12.1322 27.9335 12.7944 28.3356 13.5194 28.6793C14.8724 29.3494 16.8934 29.7864 18.7088 29.6757C19.1712 29.6116 19.6393 29.5534 20.0618 29.4485C20.45 29.3028 20.901 29.2154 21.3691 29.1571C22.4367 29.0872 23.3615 29.1863 24.1836 29.431C25.0171 29.6582 25.7364 30.002 26.3586 30.4507C26.6897 30.6488 26.9638 30.9052 27.2435 31.1499C27.5289 31.4005 27.7573 31.7093 28.0199 31.989C28.0542 32.0939 28.1227 32.1696 28.174 32.2629C28.2426 32.3386 28.2083 32.5134 28.3739 32.4901C28.4766 32.3852 28.3567 32.2337 28.351 32.1055C28.2483 31.9948 28.2254 31.8491 28.1455 31.7559Z" fill="#F0F6FE"/>
<path d="M23.9999 25.5559C23.9771 25.5559 23.9714 25.5734 23.9542 25.5793C23.9143 25.6667 23.9314 25.8065 23.9542 25.8939C24.0741 26.1445 24.1141 26.4708 24.3767 26.5756C24.5023 26.5349 24.4909 26.3484 24.4852 26.1678C24.4281 25.9463 24.3481 25.7482 24.2168 25.6026C24.1255 25.5676 24.0627 25.5093 23.9999 25.5559ZM22.4471 26.1911C22.4471 26.1794 22.43 26.1678 22.4243 26.1911C22.2073 26.1619 22.1331 26.2843 22.0246 26.3717C21.8362 26.8786 22.1388 27.3739 22.6697 27.3681C22.881 27.3157 23.0123 27.1758 23.0465 26.9369C23.018 26.5116 22.841 26.2377 22.4471 26.1911Z" fill="#F0F6FE"/>
<path d="M35.2463 24.5772C35.3319 24.9443 35.5146 25.2065 35.7201 25.4512C35.9256 25.6959 36.1654 25.8999 36.4566 26.0514C36.7306 26.2262 37.0274 26.3719 37.37 26.4709C37.5355 26.5292 37.6954 26.5991 37.9009 26.6224C38.0436 26.704 38.2149 26.7448 38.2263 26.9545C38.2206 27.2051 38.055 27.2983 37.8438 27.3449C37.6326 27.2983 37.37 27.3042 37.193 27.2226C36.7477 27.1701 36.388 27.0245 36.0113 26.8905C35.2919 26.6049 34.6868 26.1912 34.1844 25.6843C34.0817 25.5095 33.939 25.3696 33.8305 25.2007C33.722 25.0317 33.6478 24.8277 33.5336 24.6588C32.6545 24.5422 32.055 24.1344 31.5298 23.6624C31.0446 23.0972 30.6564 22.4213 30.4965 21.5239C30.3081 20.6615 30.3652 19.5836 30.5879 18.7503C31.0731 17.1363 32.0893 16.0642 34.0075 15.9185C34.5384 15.936 35.0008 16.0001 35.4233 16.1632C35.8514 16.3205 36.2567 16.6119 36.5764 16.9149C36.605 16.9382 36.6164 16.944 36.6335 16.9731C36.702 17.0722 36.8676 17.212 36.9589 17.3344C36.9761 17.3577 36.9704 17.3985 36.9875 17.4276C37.0217 17.4801 37.0731 17.5034 37.1074 17.55C37.1245 17.5791 37.1188 17.6141 37.1359 17.6374C37.1587 17.6724 37.1873 17.7248 37.2215 17.7889C37.233 17.8122 37.2729 17.8297 37.2786 17.8472C37.33 17.9462 37.3528 18.0686 37.3985 18.1793C37.4442 18.2958 37.507 18.3949 37.5469 18.5114C37.6611 18.8552 37.7353 19.2631 37.781 19.6826C37.8952 20.8946 37.6611 21.9784 37.2215 22.7825C37.016 23.2021 36.7306 23.5458 36.3938 23.8372C36.0855 24.1693 35.663 24.3674 35.2463 24.5772ZM33.8305 16.9906C33.5736 17.0081 33.4194 17.1305 33.2082 17.2004C33.0712 17.3286 32.8999 17.4276 32.7972 17.5908C32.6259 17.6898 32.5802 17.9113 32.4432 18.0395C32.3291 18.3308 32.2206 18.6571 32.1464 19.0359C32.0779 19.4088 32.0322 19.8283 32.0265 20.242C32.0208 21.2792 32.2377 22.3105 32.643 22.9224C32.8828 23.2195 33.174 23.4643 33.5279 23.6449C33.7334 23.6624 33.8933 23.7323 34.1159 23.7381C34.2415 23.6915 34.447 23.7381 34.527 23.6449C34.7096 23.6565 34.7496 23.5342 34.9095 23.5225C34.9951 23.4351 35.0864 23.3652 35.2063 23.3128C35.3148 23.1904 35.4175 23.068 35.5317 22.9515C35.5888 22.8641 35.6231 22.7417 35.7087 22.6776C36.2225 21.6754 36.2796 19.84 35.9428 18.6746C35.8172 18.2492 35.6402 17.9054 35.4404 17.6199C35.2234 17.3927 34.9665 17.2004 34.6754 17.0489C34.4413 16.9965 34.2187 16.9324 33.9104 16.9615C33.8933 16.9615 33.8762 16.9673 33.8819 16.9906C33.8704 16.9906 33.8533 16.9906 33.8305 16.9906ZM40.0588 16.1457C40.5213 16.1632 41.0636 16.1049 41.4746 16.1749C41.566 16.3205 41.5317 16.4953 41.5317 16.6585C41.566 18.8669 41.5317 21.2384 41.5317 23.4934C41.5317 23.674 41.5374 23.8605 41.5317 24.0353C41.526 24.1868 41.566 24.3499 41.4746 24.4898C41.2691 24.5422 40.9723 24.5189 40.7096 24.5189C40.4299 24.5189 40.1559 24.5597 39.9732 24.4607C39.9218 21.792 39.9218 18.9135 39.9732 16.239C39.9846 16.1923 40.0132 16.1632 40.0588 16.1457ZM43.5983 16.1457H44.9856C45.1112 16.3205 45.1511 16.5827 45.1911 16.8391C45.6078 18.459 46.0189 20.0847 46.4014 21.7453C46.4927 21.757 46.4642 21.6463 46.4927 21.5938C46.5327 21.5531 46.5098 21.454 46.5498 21.4132C46.5669 21.2792 46.6469 21.2093 46.6411 21.0519C46.7439 20.848 46.7782 20.5683 46.8752 20.3585C46.9951 19.8691 47.1549 19.4146 47.292 18.9426C47.4233 18.4532 47.6002 18.0103 47.703 17.4976C47.8971 17.0839 47.9428 16.5186 48.1768 16.1457H48.7648C48.9761 16.5536 49.056 17.0955 49.2387 17.5325C49.3586 18.022 49.5241 18.4648 49.6497 18.9484C49.9409 19.8866 50.2434 20.813 50.506 21.7803C50.6259 21.5997 50.6259 21.2967 50.7116 21.0869C50.7629 20.848 50.8086 20.6033 50.8885 20.3935C51.1169 19.4379 51.3338 18.4765 51.5964 17.5617C51.6935 17.0839 51.7905 16.5944 51.9504 16.1749C52.2929 16.1224 52.8181 16.1224 53.1607 16.1749C53.1892 16.5303 53.0293 16.9149 52.9266 17.2295C52.8695 17.6141 52.7325 17.9113 52.6583 18.2842C52.447 18.9659 52.2872 19.6885 52.0703 20.3644C51.9047 21.0869 51.6821 21.7512 51.5108 22.4737C51.3966 22.8058 51.3167 23.1729 51.2139 23.5284C51.0998 23.8547 51.0598 24.2567 50.8885 24.5248H50.0607C49.8495 24.146 49.7753 23.6332 49.5869 23.2312C49.1759 21.9027 48.7192 20.6266 48.3195 19.2864C48.1825 19.4321 48.1825 19.7292 48.0855 19.9157C48.0227 20.143 47.9599 20.3702 47.88 20.58C47.7658 21.0403 47.5945 21.4307 47.4975 21.9027C47.3319 22.3164 47.212 22.7767 47.0864 23.2312C46.9152 23.6274 46.8524 24.1344 46.6411 24.4956C46.4242 24.5655 46.0817 24.5073 45.8134 24.5248C45.6078 24.2858 45.585 23.8547 45.4594 23.5284C45.3624 23.1904 45.2939 22.8175 45.1683 22.5028C45.0084 21.7686 44.7686 21.1219 44.6088 20.3935C44.3976 19.7176 44.2149 19.0125 44.0208 18.3133C43.9123 17.9812 43.8324 17.6258 43.7239 17.2878C43.6725 16.9265 43.4328 16.6002 43.5184 16.204C43.5298 16.1749 43.5641 16.1574 43.5983 16.1457ZM55.2501 16.1457C55.7125 16.1632 56.2491 16.1049 56.6659 16.1749C56.7686 16.4895 56.723 16.8275 56.723 17.1654V23.4876C56.723 23.8314 56.7629 24.1635 56.6659 24.484C56.3462 24.5189 55.8781 24.5364 55.4842 24.5131C55.37 24.5073 55.233 24.5422 55.1587 24.4548C55.056 24.1402 55.1017 23.808 55.1017 23.4584V17.2004C55.1017 16.8216 55.0674 16.4546 55.1587 16.204C55.1816 16.1749 55.2158 16.1574 55.2501 16.1457Z" fill="#F0F6FE"/>
</g>
<defs>
<clipPath id="clip0_1_165">
<rect width="64" height="42" fill="white" transform="translate(0.734375 0.484375)"/>
</clipPath>
</defs>
</svg>
