<svg width="115" height="35" viewBox="0 0 115 35" fill="none" xmlns="http://www.w3.org/2000/svg">
<g clip-path="url(#clip0_1_198)">
<path d="M84.7042 22.7256C80.7704 22.7256 78.2817 20.3893 78.2817 16.7639C78.2817 12.8968 80.5296 10.5604 84.1423 10.5604H84.4634C85.1056 10.5604 85.7479 10.5604 86.3901 10.641V5.96826H88.9592V22.2422C87.5944 22.5645 86.1493 22.7256 84.7042 22.7256ZM84.6239 12.5745C82.1352 12.5745 80.931 13.9441 80.931 16.6833C80.931 19.1808 82.3761 20.7115 84.7845 20.7115C85.2662 20.7115 85.7479 20.7115 86.4704 20.631V12.7357C85.8282 12.6551 85.2662 12.5745 84.6239 12.5745ZM49.4606 22.4034L42.4761 10.1576V22.4034H40.0676V6.93503H43.4394L50.4239 19.0197V6.93503H52.9127V22.4034H49.4606ZM71.6183 22.6451C70.3338 22.6451 69.0493 22.4839 67.7648 22.2422H67.6042V20.067L67.8451 20.1476C68.969 20.4698 70.1732 20.631 71.2972 20.631C72.1803 20.631 74.2676 20.4698 74.2676 19.1808C74.2676 18.0529 72.8225 17.8112 71.6986 17.5695H71.6183L70.9761 17.3278C69.2901 16.925 67.4437 16.1999 67.4437 13.9441C67.4437 11.6883 69.2099 10.4799 72.2606 10.4799C73.3845 10.4799 74.5085 10.5604 75.6324 10.8021L76.0338 10.8827V12.9774H75.793C74.7493 12.7357 73.6254 12.6551 72.5817 12.5745C71.3775 12.5745 69.9324 12.8162 69.9324 13.8636C69.9324 14.7498 71.1366 14.9915 72.5014 15.3137C74.4282 15.7165 76.7563 16.2805 76.7563 18.8585C76.8366 21.2755 74.9099 22.6451 71.6183 22.6451ZM96.2648 22.6451C93.6155 22.6451 91.1268 22.1617 91.1268 18.778C91.1268 15.072 94.9803 15.072 97.2282 15.072C97.469 15.072 98.5127 15.1526 98.8338 15.1526C98.8338 13.0579 98.8338 12.5745 95.7831 12.5745C94.5789 12.6551 93.2944 12.7357 92.0902 13.0579H91.8493V11.0438H92.0099C93.2944 10.8021 94.6592 10.641 96.0239 10.641C98.9141 10.641 101.403 10.9633 101.403 14.5886V22.4839H101.242C99.5563 22.4839 97.9507 22.5645 96.2648 22.6451ZM97.1479 16.8444C94.9803 16.8444 93.6155 17.1667 93.6155 18.778C93.6155 20.631 95.3817 20.7921 96.9873 20.7921C97.6296 20.7921 98.6732 20.7115 98.9944 20.7115V16.925L97.1479 16.8444ZM60.138 22.6451C57.4887 22.6451 55 22.1617 55 18.778C55 15.072 58.8535 15.072 61.1014 15.072C61.3423 15.072 62.3859 15.1526 62.707 15.1526C62.707 13.0579 62.707 12.5745 59.6563 12.5745C58.4521 12.6551 57.1676 12.7357 55.9634 13.0579H55.7225V11.0438H55.8831C57.1676 10.8021 58.5324 10.641 59.8972 10.641C62.7873 10.641 65.2761 10.9633 65.2761 14.5886V22.4839H65.1155C63.5099 22.4839 61.8239 22.5645 60.138 22.6451ZM61.0211 16.8444C58.8535 16.8444 57.4887 17.1667 57.4887 18.778C57.4887 20.631 59.2549 20.7921 60.8606 20.7921C61.5028 20.7921 62.5465 20.7115 62.8676 20.7115V16.925L61.0211 16.8444ZM111.679 27.64V22.5645C111.037 22.6451 110.394 22.7256 109.752 22.7256C108.708 22.7256 107.665 22.4839 106.701 22.1617C104.775 21.356 103.57 19.2614 103.57 16.6028C103.57 15.2332 103.891 12.8162 106.059 11.5272C107.344 10.8021 108.869 10.4799 110.394 10.641C111.117 10.641 112 10.7216 112.883 10.7216L114.328 10.8021V26.5121L111.679 27.64ZM110.153 12.5745C107.504 12.5745 106.22 13.9441 106.22 16.5222C106.22 19.9059 108.227 20.631 109.832 20.631C110.475 20.631 111.117 20.5504 111.679 20.4698V12.5745H110.153Z" fill="#C4CFE0"/>
</g>
<defs>
<clipPath id="clip0_1_198">
<rect width="114" height="34" fill="white" transform="translate(0.328125 0.484375)"/>
</clipPath>
</defs>
</svg>
