<svg width="65" height="65" viewBox="0 0 65 65" fill="none" xmlns="http://www.w3.org/2000/svg">
<g clip-path="url(#clip0_1_158)">
<path d="M62.5399 11.7466H1.83509C0.924044 11.7466 0.1875 12.4843 0.1875 13.3942V51.5755C0.1875 52.4854 0.924044 53.2231 1.83509 53.2231H62.5399C63.451 53.2231 64.1875 52.4854 64.1875 51.5755V13.3942C64.1875 12.4843 63.451 11.7466 62.5399 11.7466ZM59.3195 30.2339L58.4368 31.0305L57.6402 30.1455L58.524 29.3489L59.3195 30.2339ZM54.7733 29.4622L53.5779 28.1341L54.9059 26.9387L56.1014 28.2667L54.7733 29.4622ZM56.1286 29.6084L57.3252 30.9353L55.9971 32.1307L54.8017 30.8038L56.1286 29.6084ZM53.6935 29.1687L51.9235 30.7619L50.3314 28.9919L52.1014 27.3987L53.6935 29.1687ZM53.366 30.4186L54.9592 32.1885L53.1892 33.7806L51.596 32.0106L53.366 30.4186ZM54.6249 33.4781L56.2181 35.248L54.4481 36.8435L52.8549 35.0735L54.6249 33.4781ZM55.9359 33.6084L57.264 32.4118L58.4606 33.7398L57.1325 34.9353L55.9359 33.6084ZM58.1909 27.6027L57.3059 28.3993L56.5093 27.5143L57.3943 26.7177L58.1909 27.6027ZM9.46795 35.4373H8.55011L7.39543 31.2004H7.33538L6.2147 35.4373H5.29685L3.92121 29.418H4.87305L5.82376 33.9098H5.88382L6.9875 29.418H7.74331L8.92404 33.9098H8.9841L9.85096 29.418H10.8447L9.46795 35.4373ZM14.7348 33.4781H11.9677C11.9677 34.4956 12.3835 34.9477 13.2583 34.9477C13.7161 34.9477 14.141 34.7857 14.6079 34.5058V35.1506C14.226 35.3704 13.7161 35.5415 13.1053 35.5415C11.6787 35.5415 11.0929 34.6588 11.0929 33.316C11.0929 32.0254 11.7467 31.0928 13.0204 31.0928C14.0821 31.0928 14.7359 31.7806 14.7359 33.1664L14.7348 33.4781ZM17.1631 35.5404C16.7133 35.5404 16.0164 35.3953 15.5065 35.1245V29.1982L16.3892 28.9863V31.4067C16.6453 31.2707 17.077 31.0928 17.5371 31.0928C18.5898 31.0928 19.1586 31.8237 19.1586 33.1823C19.1586 34.7698 18.3949 35.5404 17.1631 35.5404ZM25.9371 35.4373H25.9348H25.0181V31.0724H24.9422L23.2096 35.4373H22.6668L20.9342 31.1744H20.8583V35.4373H20.0946V29.418H21.1212L23.0238 34.1647H23.0668L24.8844 29.418H25.9371V35.4373ZM28.8062 35.5404C27.6436 35.5404 26.8697 34.7664 26.8697 33.3149C26.8697 31.8282 27.6855 31.0916 28.8062 31.0916C29.9269 31.0916 30.7427 31.8305 30.7427 33.3149C30.7427 34.7698 29.9699 35.5404 28.8062 35.5404ZM35.1155 35.4373H34.2328V32.5579C34.2328 31.8883 33.9031 31.7693 33.468 31.7693C33.128 31.7693 32.6951 31.9222 32.4323 32.0752V35.4373H31.5495V31.7183C31.9314 31.4894 32.7382 31.0905 33.715 31.0905C34.7337 31.0905 35.1155 31.4894 35.1155 32.3642V35.4373ZM39.5484 33.4781H36.7801C36.7801 34.4956 37.196 34.9477 38.0731 34.9477C38.5308 34.9477 38.9558 34.7857 39.4215 34.5058V35.1506C39.0385 35.3704 38.5308 35.5415 37.9178 35.5415C36.4912 35.5415 35.9076 34.6588 35.9076 33.316C35.9076 32.0254 36.5614 31.0928 37.834 31.0928C38.8969 31.0928 39.5507 31.7806 39.5507 33.1664L39.5484 33.4781ZM42.2226 35.4815C41.7977 36.652 41.2799 37.2639 40.3053 37.2639V36.5681C40.8833 36.5681 41.2379 36.1103 41.443 35.4815L39.8136 31.2344H40.7473L41.834 34.3596H41.885L42.8527 31.2344H43.7614L42.2226 35.4815ZM56.6215 38.9568C55.5393 39.5744 54.285 39.9268 52.9535 39.9268C48.8549 39.9268 45.511 36.584 45.511 32.4854C45.511 28.3868 48.8549 25.0429 52.9535 25.0429C54.1206 25.0429 55.2289 25.3149 56.2147 25.7976C56.3699 25.8713 56.524 25.9528 56.677 26.0412L55.9926 26.6543L54.9637 25.5902L53.2266 27.1404L52.1966 26.014L48.9592 28.9307L51.034 31.2186L50.2181 31.9347L52.2623 34.2248L51.451 34.9409L54.3722 38.1919L56.1036 36.5965L57.6017 38.3075C57.3048 38.5364 56.9807 38.754 56.6215 38.9568ZM58.2997 37.6152L57.1031 36.2894L58.4311 35.0928L59.6266 36.4197L58.2997 37.6152ZM59.5665 33.6582L58.7699 32.7732L59.6549 31.9766L60.4515 32.8616L59.5665 33.6582Z" fill="#C4CFE0"/>
<path d="M28.8062 31.6865C28.2465 31.6865 27.7615 32.1693 27.7615 33.316C27.7615 34.4798 28.2034 34.9466 28.8062 34.9466C29.4091 34.9466 29.851 34.4798 29.851 33.316C29.851 32.1681 29.383 31.6865 28.8062 31.6865Z" fill="#C4CFE0"/>
<path d="M17.3071 31.7549C16.9694 31.7549 16.7224 31.8478 16.3824 32.0348V34.8121C16.6544 34.9311 16.9502 34.9481 17.1632 34.9481C17.7921 34.9481 18.268 34.5572 18.268 33.1815C18.268 32.1028 17.8759 31.7549 17.3071 31.7549Z" fill="#C4CFE0"/>
<path d="M37.808 31.6606C37.289 31.6606 36.8901 32.0594 36.7949 32.9082H38.7417C38.6997 32.0175 38.2657 31.6606 37.808 31.6606Z" fill="#C4CFE0"/>
<path d="M12.9943 31.6606C12.4764 31.6606 12.0764 32.0594 11.9835 32.9082H13.928C13.8861 32.0175 13.4532 31.6606 12.9943 31.6606Z" fill="#C4CFE0"/>
</g>
<defs>
<clipPath id="clip0_1_158">
<rect width="64" height="64" fill="white" transform="translate(0.1875 0.484375)"/>
</clipPath>
</defs>
</svg>
