<svg width="65" height="65" viewBox="0 0 65 65" fill="none" xmlns="http://www.w3.org/2000/svg">
<g clip-path="url(#clip0_1_148)">
<path d="M7.36809 24.3428C7.34883 24.3881 7.32503 24.4335 7.3103 24.481C7.1324 25.0793 7.26951 25.6267 7.7511 26.0992C8.17149 26.5116 8.74713 26.3757 9.29897 26.3813C9.29897 25.3819 9.29897 24.4119 9.29897 23.4272C8.19869 23.289 7.72617 23.519 7.36809 24.3428Z" fill="#C4CFE0"/>
<path d="M7.74205 33.7261C7.74319 33.9312 7.74545 34.1159 7.74319 34.3017C7.73412 35.5063 7.73639 36.7142 7.39531 37.8915C7.22647 38.4785 6.94659 39.0428 6.71656 39.615C7.57208 39.615 8.48313 39.615 9.40211 39.615C9.40211 37.6286 9.40211 35.6728 9.40211 33.7261C8.8378 33.7261 8.29843 33.7261 7.74205 33.7261Z" fill="#C4CFE0"/>
<path d="M16.1942 33.964C16.0321 33.6898 15.7931 33.4779 15.3897 33.4598C14.9772 33.4394 14.7313 33.6525 14.5466 33.912C14.1126 34.5228 13.9857 35.2015 13.9177 35.9245C14.8355 35.9245 15.7069 35.9245 16.6089 35.9245C16.6123 35.2389 16.5534 34.5782 16.1942 33.964Z" fill="#C4CFE0"/>
<path d="M29.589 37.5529C29.4054 36.668 28.695 36.3133 27.6309 36.5388C27.5528 36.5558 27.444 36.6566 27.444 36.719C27.4304 37.6595 27.4349 38.6022 27.4349 39.5575C28.4978 39.8102 29.3794 39.4011 29.5822 38.5422C29.657 38.2238 29.6547 37.8725 29.589 37.5529Z" fill="#C4CFE0"/>
<path d="M62.993 11.7466H2.28822C1.37717 11.7466 0.640625 12.4843 0.640625 13.3942V51.5744C0.640625 52.4843 1.37717 53.2231 2.28822 53.2231H62.993C63.9041 53.2231 64.6406 52.4854 64.6406 51.5755V13.3942C64.6406 12.4843 63.9041 11.7466 62.993 11.7466ZM26.755 27.0928C26.8083 26.5251 26.9737 25.9846 27.393 25.5177C27.9381 24.9126 28.9375 24.7982 29.6672 25.2775C29.5686 25.4021 29.478 25.5166 29.3896 25.6265C29.3579 25.631 29.3386 25.639 29.3216 25.6344C28.4378 25.3953 27.9063 25.6095 27.6389 26.3336C27.4417 26.8628 27.3998 27.4089 27.5143 27.9517C27.7318 28.9987 28.5601 29.3613 29.7635 28.9602C29.8746 29.4475 29.8111 29.5075 29.2434 29.6401C28.44 29.8293 27.657 29.5483 27.2072 28.95C26.7766 28.3778 26.6961 27.7443 26.755 27.0928ZM7.19134 23.282C7.56188 22.9545 8.01287 22.7846 8.55678 22.7868C8.94205 22.788 9.32617 22.7868 9.71257 22.7868C10.1318 22.788 10.133 22.7868 10.133 23.1234C10.133 25.1483 10.133 27.1732 10.133 29.197C10.133 29.3194 10.133 29.4395 10.133 29.5823C9.86102 29.5823 9.61059 29.5823 9.32164 29.5823C9.32164 28.7517 9.32164 27.92 9.32164 27.095C8.84345 27.0033 8.81853 27.0123 8.61569 27.3251C8.17603 28.0072 7.72617 28.6849 7.30238 29.3727C7.19133 29.5506 7.06783 29.6276 6.8276 29.6061C6.6463 29.5902 6.46046 29.6027 6.2191 29.6027C6.81173 28.7098 7.37716 27.8577 7.946 27.0033C6.25309 26.5466 5.91882 24.4072 7.19134 23.282ZM11.6854 42.1829C11.291 42.1829 10.9103 42.1829 10.4956 42.1829C10.4956 41.6265 10.4956 41.0792 10.4956 40.5137C9.0055 40.5137 7.54715 40.5137 6.05933 40.5137C6.05933 41.0611 6.05933 41.6084 6.05933 42.1761C5.6378 42.1761 5.24799 42.1761 4.83439 42.1761C4.83439 41.3387 4.83439 40.5001 4.83439 39.6571C4.86385 39.6492 4.89332 39.6288 4.91712 39.6333C5.37037 39.7081 5.54827 39.4996 5.69671 39.1846C6.14544 38.2248 6.36981 37.2288 6.45253 36.2135C6.54544 35.0701 6.57263 33.9222 6.62929 32.7562C7.9596 32.7562 9.32391 32.7562 10.7324 32.7562C10.7324 35.052 10.7324 37.3273 10.7324 39.6254C11.0553 39.6254 11.3579 39.6254 11.6854 39.6254C11.6854 40.4888 11.6854 41.3296 11.6854 42.1829ZM12.1409 29.597C11.8848 29.597 11.6638 29.597 11.4191 29.597C11.4191 28.1273 11.4191 26.6611 11.4191 25.1687C11.6559 25.1687 11.8712 25.1687 12.1194 25.1687C12.1194 25.7647 12.1194 26.3551 12.1194 26.9636C12.5783 26.9636 13.0032 26.9636 13.4587 26.9636C13.4587 26.3676 13.4587 25.7772 13.4587 25.1744C13.7126 25.1744 13.9335 25.1744 14.176 25.1744C14.176 26.6486 14.176 28.116 14.176 29.5993C13.9392 29.5993 13.7182 29.5993 13.4633 29.5993C13.4633 28.9364 13.4633 28.2826 13.4633 27.614C13.0134 27.614 12.5941 27.614 12.1409 27.614C12.1409 28.2724 12.1409 28.9251 12.1409 29.597ZM14.142 40.4514C13.5256 40.1489 13.155 39.6775 12.9364 39.1358C12.2089 37.3432 12.2905 35.5664 13.24 33.8407C13.5641 33.2526 14.0457 32.7562 14.8355 32.5421C15.5958 32.3358 16.2055 32.4843 16.712 32.9942C17.2842 33.5721 17.5607 34.2611 17.7001 34.9783C17.81 35.5517 17.8157 36.1421 17.8701 36.7483C16.5431 36.7483 15.2684 36.7483 13.9539 36.7483C13.9652 37.4781 13.955 38.167 14.2191 38.8356C14.5613 39.7058 15.3454 40.0367 16.5454 39.7919C16.916 39.716 17.265 39.5778 17.6536 39.4599C17.7284 39.639 17.8123 39.8475 17.895 40.0503C16.848 40.7846 15.1766 40.9591 14.142 40.4514ZM18.7641 30.4242C18.5715 30.4242 18.3709 30.4242 18.133 30.4242C18.133 30.1341 18.133 29.8373 18.133 29.5234C17.2842 29.5234 16.4729 29.5234 15.6253 29.5234C15.6253 29.8203 15.6253 30.1171 15.6253 30.4288C15.3873 30.4288 15.1845 30.4288 14.9579 30.4288C14.9579 29.9732 14.9579 29.5154 14.9579 29.035C15.3171 29.0826 15.3862 28.8548 15.4791 28.6418C15.8553 27.7783 15.8882 26.8752 15.9267 25.9732C15.9381 25.7137 15.9279 25.4554 15.9279 25.1676C16.7177 25.1676 17.4644 25.1676 18.2429 25.1676C18.2429 26.4492 18.2429 27.7205 18.2429 29.0089C18.4287 29.0157 18.5828 29.0225 18.7641 29.0293C18.7641 29.486 18.7641 29.946 18.7641 30.4242ZM19.7432 25.8475C19.8655 25.6322 20.04 25.4203 20.2474 25.2548C20.7992 24.8118 21.4939 24.8979 21.895 25.4373C22.3516 26.0514 22.44 26.7268 22.3924 27.4475C21.6616 27.4475 20.9454 27.4475 20.1998 27.4475C20.1839 27.929 20.1715 28.3891 20.431 28.8174C20.6519 29.1834 21.0667 29.3126 21.648 29.1948C21.8565 29.1528 22.0559 29.0803 22.2633 29.0203C22.499 29.2718 22.4899 29.3795 22.1488 29.4984C21.8429 29.605 21.5177 29.6967 21.1924 29.7307C20.5194 29.8021 19.9392 29.5143 19.6854 28.9511C19.512 28.5681 19.3998 28.1545 19.3488 27.7477C19.2672 27.0928 19.3975 26.4492 19.7432 25.8475ZM24.2678 40.5749C23.8451 40.5749 23.4372 40.5749 22.9964 40.5749C22.9964 39.4021 22.9964 38.235 22.9964 37.0339C22.3958 37.0339 21.827 37.0339 21.2582 37.0339C20.6576 37.0339 20.6576 37.0316 20.6576 37.5347C20.6565 38.4458 20.6576 39.3568 20.6576 40.2679C20.6576 40.3642 20.6576 40.4616 20.6576 40.5749C20.2225 40.5749 19.8157 40.5749 19.3907 40.5749C19.3907 37.9676 19.3907 35.3681 19.3907 32.754C19.8032 32.754 20.2021 32.754 20.6417 32.754C20.6417 33.8225 20.6417 34.8741 20.6417 35.9517C21.4531 35.9517 22.2009 35.9517 22.9873 35.9517C22.9873 34.8843 22.9873 33.8225 22.9873 32.7494C23.3862 32.7494 23.7499 32.7426 24.1114 32.7574C24.1703 32.7596 24.2304 32.8469 24.278 32.9024C24.2973 32.9251 24.2814 32.9659 24.2814 32.9987C24.2814 35.4475 24.2814 37.895 24.2825 40.3449C24.2825 40.4152 24.2735 40.4888 24.2678 40.5749ZM25.7511 29.4939C25.674 29.4849 25.5924 29.3885 25.5449 29.316C25.18 28.7766 24.823 28.2339 24.4616 27.6911C24.4106 27.614 24.3528 27.5404 24.2179 27.4577C24.1726 27.6299 24.0933 27.8021 24.0865 27.9744C24.0684 28.4764 24.0797 28.9783 24.0797 29.4916C23.8293 29.4916 23.6151 29.4916 23.3771 29.4916C23.3771 28.0605 23.3771 26.6259 23.3771 25.1687C23.6106 25.1687 23.8236 25.1687 24.0695 25.1687C24.0695 25.7863 24.0695 26.3914 24.0695 27.0724C24.1783 26.967 24.2349 26.9205 24.2803 26.8673C24.6791 26.3925 25.0927 25.9256 25.4655 25.4361C25.6355 25.214 25.8247 25.1132 26.1341 25.1551C26.2111 25.1653 26.2905 25.1562 26.4276 25.1562C26.355 25.2514 26.3097 25.316 26.2576 25.3795C25.8327 25.8894 25.4145 26.4027 24.9771 26.9047C24.8593 27.0395 24.8661 27.1381 24.9579 27.2741C25.4429 28.0004 25.9165 28.729 26.4242 29.503C26.1692 29.503 25.9573 29.52 25.7511 29.4939ZM31.1403 39.0429C30.7279 39.9857 29.8474 40.4458 28.6927 40.5296C27.9222 40.5874 27.1415 40.5409 26.3335 40.5409C26.3335 37.8916 26.3335 35.3307 26.3335 32.754C26.6916 32.754 27.0406 32.754 27.4259 32.754C27.4259 33.6877 27.4259 34.6282 27.4259 35.5562C27.9686 35.5562 28.4808 35.5245 28.9839 35.563C30.261 35.6662 31.061 36.3064 31.2729 37.3591C31.3862 37.9313 31.3817 38.5001 31.1403 39.0429ZM37.129 33.5347C35.9641 33.5347 34.7958 33.5347 33.6026 33.5347C33.6026 35.8973 33.6026 38.2282 33.6026 40.5738C33.2072 40.5738 32.8366 40.5738 32.4434 40.5738C32.4434 37.971 32.4434 35.367 32.4434 32.746C34.0196 32.746 35.5652 32.746 37.1313 32.746C37.1313 33.0078 37.1313 33.256 37.129 33.5347ZM41.3873 40.5749C41.3873 38.865 41.3873 37.1551 41.3873 35.4339C40.5896 37.1619 39.7987 38.873 39.0111 40.5817C38.5805 40.5817 38.1873 40.5817 37.7669 40.5817C37.7669 37.9721 37.7669 35.3693 37.7669 32.7494C38.1873 32.7494 38.5953 32.7494 39.0349 32.7494C39.0349 34.3676 39.0349 35.9721 39.0349 37.5755C39.0553 37.5789 39.0735 37.5823 39.095 37.5857C39.316 37.1132 39.5414 36.6429 39.7601 36.1704C40.2587 35.0917 40.7607 34.0163 41.2548 32.9364C41.3239 32.7812 41.4157 32.7234 41.6196 32.7313C42.0117 32.7483 42.406 32.737 42.8151 32.737C42.8151 35.3625 42.8151 37.9619 42.8162 40.5749C42.3449 40.5749 41.8837 40.5749 41.3873 40.5749ZM60.108 40.4242C59.8361 40.6475 59.5018 40.7234 59.1392 40.7234C57.4678 40.7256 55.7998 40.7234 54.1307 40.7234C52.4514 40.7234 50.772 40.7256 49.0939 40.7234C48.2531 40.7211 47.6457 40.3404 47.4111 39.6764C47.3805 39.5857 47.3703 39.4849 47.3703 39.3885C47.3681 37.435 47.3737 35.4826 47.3658 33.529C47.3624 32.8401 47.7533 32.3574 48.4548 32.022C50.8366 30.8877 53.2185 29.7534 55.5992 28.6169C55.989 28.431 56.3856 28.303 56.8344 28.4639C57.2242 28.6055 57.3919 28.8786 57.3941 29.2061C57.4009 31.2741 57.4213 33.3421 57.3828 35.4078C57.3703 36.0458 56.9613 36.5534 56.2032 36.8072C54.5216 37.3715 52.8366 37.9245 51.1539 38.4832C50.7335 38.6225 50.312 38.7585 49.8939 38.9058C49.7613 38.9534 49.6276 39.0203 49.5245 39.103C49.4463 39.1698 49.3466 39.3069 49.3783 39.3625C49.4293 39.4441 49.5845 39.5313 49.6967 39.5313C49.9573 39.5324 50.227 39.5041 50.4808 39.4486C52.7483 38.9568 55.0123 38.4526 57.2786 37.9528C58.0072 37.7908 58.6157 37.1528 58.6179 36.5296C58.6247 35.3409 58.6293 34.1523 58.6134 32.9647C58.6111 32.7211 58.6916 32.6203 58.9964 32.652C59.1539 32.669 59.3114 32.652 59.4701 32.6543C59.9902 32.6611 60.346 32.916 60.4219 33.3409C60.4434 33.4588 60.4457 33.5857 60.4457 33.7058C60.448 35.6106 60.448 37.5132 60.4468 39.4191C60.4468 39.7783 60.4627 40.1387 60.108 40.4242Z" fill="#C4CFE0"/>
<path d="M54.5545 31.9459C53.9925 32.0173 53.6253 32.2927 53.4554 32.7301C53.2707 33.2026 53.5676 33.5777 54.1001 33.5799C54.737 33.5811 55.384 32.9816 55.3035 32.4638C55.2503 32.1295 54.9262 31.8995 54.5545 31.9459Z" fill="#C4CFE0"/>
<path d="M16.5862 25.7114C16.5374 26.8343 16.6292 27.9606 15.9527 29.0065C16.4876 29.0065 16.9839 29.0065 17.5119 29.0065C17.5119 27.8961 17.5119 26.8094 17.5119 25.7114C17.1947 25.7114 16.8955 25.7114 16.5862 25.7114Z" fill="#C4CFE0"/>
<path d="M21.4361 25.7968C21.2174 25.4761 20.8084 25.4659 20.5625 25.773C20.2792 26.1277 20.1965 26.5288 20.1738 26.9617C20.6826 26.9617 21.1698 26.9617 21.7013 26.9617C21.7103 26.547 21.6809 26.1538 21.4361 25.7968Z" fill="#C4CFE0"/>
</g>
<defs>
<clipPath id="clip0_1_148">
<rect width="64" height="64" fill="white" transform="translate(0.640625 0.484375)"/>
</clipPath>
</defs>
</svg>
