<svg width="125" height="125" viewBox="0 0 125 125" fill="none" xmlns="http://www.w3.org/2000/svg">
<g clip-path="url(#clip0_1_202)">
<path d="M56.9231 54.2119C56.979 54.0164 57.035 53.8067 57.832 53.8067C60.3062 53.8067 60.7809 55.5256 60.7809 56.9376C60.7809 57.79 60.3197 62.0949 55.9169 62.0949C55.2601 62.0949 54.9243 62.0113 54.9243 61.55C54.9243 61.3262 55.1064 60.7112 55.2318 60.2499L56.9231 54.2119ZM54.3659 53.6105C55.0787 53.6664 55.4422 53.7365 55.4422 54.2119C55.4422 54.4918 55.3303 54.9247 55.2884 55.0785L53.5695 61.2567C53.3322 62.1232 53.1224 62.165 52.4373 62.2905V62.5144H55.9735C60.0829 62.5144 62.3332 59.9283 62.3332 57.1055C62.3332 55.6381 61.4667 53.3872 58.2521 53.3872H54.3666L54.3659 53.6105ZM65.2255 61.0746C64.6806 61.8994 64.0656 62.6681 63.2827 62.6681C62.6259 62.6681 62.6259 62.0531 62.6259 61.8016C62.6259 61.1448 63.7298 57.678 63.7298 57.2869C63.7298 56.9936 63.6179 56.9234 62.8491 56.9234V56.6996C63.3805 56.6719 64.5404 56.448 65.0852 56.3503L65.1271 56.3779L63.8971 60.8784C63.8411 61.074 63.6732 61.633 63.6732 61.8009C63.6732 61.8987 63.771 62.0106 63.8971 62.0106C64.065 62.0106 64.4702 61.7308 65.0434 60.9203L65.2255 61.0746ZM64.9463 54.8546C64.597 54.8546 64.2753 54.6166 64.2753 54.1277C64.2753 53.6388 64.597 53.3731 64.9321 53.3731C65.3934 53.3731 65.6308 53.8343 65.6308 54.1418C65.6308 54.421 65.4069 54.8546 64.9463 54.8546ZM71.753 61.0605C71.0544 61.9971 70.5649 62.6398 69.8103 62.6398C69.167 62.6398 69.1393 62.2204 69.1393 61.8151C69.1393 61.4799 70.1737 58.0692 70.1737 57.5101C70.1737 57.2586 70.0901 57.063 69.8244 57.063C69.1535 57.063 68.2728 58.2654 67.7697 59.0476C67.1271 60.0119 66.945 60.6134 66.3725 62.5137H65.3246C65.7576 60.9344 66.6941 57.6639 66.6941 57.3699C66.6941 57.1602 66.5545 57.0064 65.7999 57.0064V56.7826C66.5545 56.643 67.3091 56.5034 68.0644 56.3496L68.1062 56.3773L67.2113 59.2985L67.239 59.3262C67.8958 58.2917 69.1818 56.349 70.3416 56.349C70.9849 56.349 71.3059 56.6841 71.3059 57.2715C71.3059 57.8723 70.1879 61.3249 70.1879 61.7443C70.1879 61.954 70.3835 61.9823 70.4118 61.9823C70.6916 61.9823 71.0409 61.5352 71.5581 60.8778L71.753 61.0605ZM73.5421 58.9916C74.0593 57.7475 75.0094 56.6719 75.7647 56.6719C76.114 56.6719 76.2536 56.9376 76.2536 57.2309C76.2536 57.3429 76.1841 59.02 73.3047 59.6073L73.5421 58.9916ZM76.4208 60.9904C75.7222 61.5636 75.1349 62.0389 74.3803 62.0389C73.7929 62.0389 73.0667 61.7173 73.0667 60.7665C73.0667 60.4867 73.1368 60.2075 73.2063 59.9141L73.5974 59.8582C75.8618 59.5365 77.1754 58.4043 77.1754 57.3004C77.1754 56.6854 76.7418 56.3496 76.0291 56.3496C74.0586 56.3496 71.8502 58.6977 71.8502 60.6964C71.8502 61.5771 72.2973 62.6668 73.7653 62.6668C75.1632 62.6668 76.435 61.3809 76.5887 61.157L76.4208 60.9904ZM77.2738 62.5137L78.406 58.4326C78.5456 57.9154 78.6293 57.4407 78.6293 57.3146C78.6293 57.119 78.5598 56.8958 78.1262 56.8958C77.9725 56.8958 77.8187 56.9376 77.665 56.9653V56.7279C78.3777 56.6301 79.2025 56.448 79.8316 56.3503L79.8734 56.3779L79.1889 59.1595L79.2166 59.1872L79.3285 58.9074C79.7898 57.9849 80.8525 56.3496 81.7325 56.3496C82.0542 56.3496 82.4035 56.5593 82.4035 57.0341C82.4035 57.761 81.9005 57.761 81.7467 57.761C81.1459 57.761 81.3556 57.258 81.0198 57.258C80.5868 57.258 79.748 58.8096 79.636 59.0193C79.1047 60.0254 78.9091 60.6546 78.3359 62.5137H77.2738ZM81.6901 60.4732C81.7879 61.0882 82.0117 62.3741 83.1439 62.3741C83.9262 62.3741 84.1501 61.7031 84.1501 61.2419C84.1501 60.3194 82.4871 58.9775 82.4871 57.9013C82.4871 57.4683 82.6827 56.3496 84.1642 56.3496C84.7934 56.3496 85.0726 56.5876 85.492 56.5876C85.73 56.5876 85.8136 56.448 85.8831 56.3355H86.0787L85.7988 58.2789H85.575C85.5055 57.4818 85.1697 56.6713 84.2614 56.6713C83.9539 56.6713 83.5068 56.7967 83.5068 57.4818C83.5068 58.3625 85.2115 59.6066 85.2115 60.7942C85.2115 62.3175 83.9114 62.6675 83.1292 62.6675C82.7097 62.6675 82.1507 62.4018 81.7454 62.4018C81.5499 62.4018 81.4939 62.5414 81.4103 62.6958H81.1864L81.4662 60.4732H81.6901ZM97.6381 55.9726C97.6105 55.5815 97.4844 53.7082 95.4856 53.7082C92.6905 53.7082 91.2643 57.0907 91.2643 59.1454C91.2643 60.9769 92.0331 62.1367 93.6966 62.1367C95.2759 62.1367 96.2544 61.1441 96.9254 60.4873L97.1627 60.6829C96.6455 61.2979 95.4014 62.7652 93.3608 62.7652C91.7391 62.7652 89.6992 61.7868 89.6992 58.9916C89.6992 56.2943 92.1727 53.2052 95.3737 53.2052C96.3798 53.2052 97.2329 53.5403 97.5539 53.5403C97.9591 53.5403 98.0429 53.3724 98.1129 53.2328H98.4062L97.889 56.0145L97.6381 55.9726ZM100.209 60.9203C99.4966 61.9965 98.9511 62.6675 98.0846 62.6675C97.4696 62.6675 97.4136 62.1921 97.4136 61.8009C97.4136 61.5069 99.4407 54.2113 99.4407 53.9179C99.4407 53.5551 98.8533 53.5551 98.4899 53.5686V53.3448C99.2168 53.2611 99.9437 53.1351 100.67 52.9678L100.74 53.0373L98.6295 61.13C98.6018 61.2561 98.4899 61.633 98.4899 61.7868C98.4899 61.8704 98.4899 62.0666 98.6996 62.0666C99.049 62.0666 99.3429 61.6755 100.027 60.7942L100.209 60.9203ZM106.667 61.0045C105.786 62.2763 105.423 62.6398 104.724 62.6398C104.095 62.6398 104.067 62.1226 104.067 61.9129C104.067 61.6613 104.347 60.4873 104.668 59.341H104.626C103.675 60.9203 102.642 62.6675 101.383 62.6675C100.88 62.6675 100.615 62.4577 100.615 61.8427C100.615 61.2278 101.677 57.705 101.677 57.3281C101.677 56.9228 101.411 56.9228 100.838 56.9228V56.7279C101.544 56.6426 102.244 56.5165 102.935 56.3503L102.977 56.3779L101.704 61.4516C101.662 61.633 101.704 61.9264 101.998 61.9264C102.599 61.9264 103.48 60.6128 103.955 59.8858C104.64 58.8514 104.948 57.9707 105.493 56.4751H106.527L105.423 60.6546C105.34 60.9344 105.157 61.5494 105.157 61.7591C105.157 61.8286 105.171 61.983 105.325 61.983C105.591 61.983 105.982 61.4934 106.472 60.8784L106.667 61.0045ZM111.74 58.2229C111.74 59.3969 110.413 62.3464 108.497 62.3464C107.841 62.3464 107.841 61.983 107.841 61.8852C107.841 60.4178 109.183 57.0347 110.72 57.0347C111.601 57.0347 111.74 57.79 111.74 58.2229ZM107.855 53.5268C108.665 53.541 108.763 53.6105 108.763 53.9321C108.763 54.1277 108.638 54.477 108.54 54.8687L106.639 61.8711V61.927C106.639 62.2345 107.715 62.6681 108.456 62.6681C110.595 62.6681 112.929 60.2499 112.929 58.0415C112.929 57.0212 112.244 56.3503 111.266 56.3503C110.008 56.3503 109.127 57.6504 108.666 58.3767L108.638 58.3631C109.114 56.7832 109.756 54.1836 110.064 53.0379L109.994 52.9684C109.267 53.108 108.555 53.2058 107.856 53.2901L107.855 53.5268ZM52.4418 73.1815C53.1269 73.0554 53.3367 73.0136 53.574 72.1471L55.2929 65.9689C55.3766 65.689 55.4467 65.3539 55.4467 65.1023C55.4467 64.6134 55.0697 64.5716 54.4682 64.5015V64.2776H57.9208V64.5015C57.2363 64.6276 57.0125 64.6552 56.7745 65.5359L55.0556 71.7277C54.9719 72.0075 54.9018 72.2867 54.9018 72.6225C54.9018 73.0696 55.2511 73.1121 55.8526 73.1815V73.4054H52.4418V73.1815Z" fill="#C4CFE0"/>
<path d="M62.5752 71.9519C61.876 72.8885 61.3871 73.5318 60.6318 73.5318C59.9892 73.5318 59.9609 73.1124 59.9609 72.7071C59.9609 72.372 60.9953 68.9612 60.9953 68.4022C60.9953 68.1506 60.9117 67.9551 60.646 67.9551C59.975 67.9551 59.0943 69.1574 58.5913 69.9397C57.948 70.904 57.7666 71.5048 57.1934 73.4058H56.1454C56.5784 71.8265 57.515 68.5553 57.515 68.2619C57.515 68.0522 57.3754 67.8985 56.6208 67.8985V67.6746C57.3754 67.535 58.13 67.3948 58.8853 67.241L58.9271 67.2693L58.0329 70.1905L58.0605 70.2188C58.7174 69.1844 60.0033 67.2416 61.1632 67.2416C61.8065 67.2416 62.1281 67.5774 62.1281 68.1648C62.1281 68.7656 61.0101 72.2182 61.0101 72.6377C61.0101 72.8474 61.2056 72.875 61.2339 72.875C61.5138 72.875 61.8631 72.4279 62.3797 71.7711L62.5752 71.9519ZM66.307 67.8701H65.133L63.903 72.5244C63.8889 72.5662 63.8889 72.5939 63.8889 72.6364C63.8889 72.7618 63.9583 72.8737 64.1127 72.8737C64.3926 72.8737 64.8815 72.2169 65.2308 71.7698L65.4122 71.8676C64.6994 72.9439 64.1545 73.5589 63.4276 73.5589C63.1478 73.5589 62.7566 73.4193 62.7566 72.9998C62.7566 72.7901 63.0223 71.9377 63.0783 71.7139L64.0844 67.8701H63.05C63.0365 67.7865 63.0365 67.7164 63.0783 67.6463C63.1619 67.5202 63.553 67.4224 63.7911 67.297C64.2523 67.0589 64.9233 66.4304 65.3144 65.9409C65.3703 65.8714 65.4263 65.7453 65.5518 65.7736C65.6496 65.7453 65.6779 65.8714 65.6496 65.9833L65.2584 67.4231H66.3765L66.307 67.8701ZM67.5505 69.883C68.0677 68.6389 69.0185 67.5627 69.7731 67.5627C70.1224 67.5627 70.2627 67.8283 70.2627 68.1217C70.2627 68.2336 70.1926 69.9107 67.3138 70.498L67.5505 69.883ZM70.4299 71.8818C69.7313 72.455 69.144 72.9297 68.3894 72.9297C67.8021 72.9297 67.0758 72.6081 67.0758 71.6579C67.0758 71.3781 67.1452 71.0989 67.2154 70.8055L67.6065 70.7496C69.8709 70.4279 71.1845 69.2957 71.1845 68.1912C71.1845 67.5762 70.751 67.2404 70.0382 67.2404C68.0677 67.2404 65.8586 69.5884 65.8586 71.5871C65.8586 72.4678 66.3057 73.5576 67.7738 73.5576C69.1716 73.5576 70.4435 72.2716 70.5972 72.0484L70.4299 71.8818ZM71.5622 73.4051L72.6944 69.324C72.834 68.8068 72.9182 68.3314 72.9182 68.206C72.9182 68.0104 72.8481 67.7865 72.4152 67.7865C72.2614 67.7865 72.1077 67.8283 71.9539 67.8566V67.6186C72.6667 67.5208 73.4914 67.3388 74.1206 67.241L74.1624 67.2693L73.4779 70.0509L73.5056 70.0786L73.6175 69.7988C74.0788 68.8763 75.1408 67.2404 76.0215 67.2404C76.3431 67.2404 76.6925 67.4501 76.6925 67.9255C76.6925 68.6524 76.1894 68.6524 76.0357 68.6524C75.4348 68.6524 75.6445 68.1493 75.3094 68.1493C74.8758 68.1493 74.0369 69.701 73.9256 69.9107C73.3943 70.9168 73.1987 71.546 72.6255 73.4051H71.5622Z" fill="#C4CFE0"/>
<path d="M82.2962 71.9517C81.5976 72.8884 81.1082 73.5317 80.3536 73.5317C79.7102 73.5317 79.6825 73.1122 79.6825 72.7069C79.6825 72.3718 80.7169 68.961 80.7169 68.4019C80.7169 68.1504 80.6334 67.9548 80.3677 67.9548C79.6974 67.9548 78.816 69.1572 78.313 69.9394C77.6703 70.9038 77.4882 71.5046 76.915 73.4056H75.8671C76.3007 71.8263 77.2366 68.555 77.2366 68.2617C77.2366 68.052 77.0971 67.8982 76.3419 67.8982V67.6743C77.0965 67.5347 77.8516 67.3945 78.6062 67.2407L78.648 67.2691L77.7533 70.1903L77.781 70.2186C78.4378 69.1842 79.7237 67.2414 80.8842 67.2414C81.5275 67.2414 81.8485 67.5772 81.8485 68.1645C81.8485 68.7654 80.7305 72.218 80.7305 72.6375C80.7305 72.8472 80.9261 72.8749 80.9544 72.8749C81.2342 72.8749 81.5836 72.4278 82.1008 71.7709L82.2962 71.9517Z" fill="#C4CFE0"/>
<path d="M83.3726 71.8815C83.3726 70.6232 84.6309 67.5489 86.2662 67.5489C86.6714 67.5489 87.0632 67.8145 87.0632 68.4855C87.0632 69.8551 85.6936 72.8741 84.2115 72.8741C83.8339 72.8741 83.3726 72.6226 83.3726 71.8815ZM88.4463 71.8673C87.8172 72.4823 87.5373 72.8323 87.3282 72.8323C87.2163 72.8323 87.1327 72.7486 87.1327 72.6502C87.1327 72.2173 88.4186 67.4504 88.4605 67.2832L88.3627 67.2414L87.5103 67.3392L87.4685 67.381L87.3289 67.9966H87.3012C87.2594 67.6048 86.7982 67.2414 86.1973 67.2414C84.3382 67.2414 82.1999 69.8551 82.1999 71.9098C82.1999 72.3151 82.2417 73.5586 83.6396 73.5586C84.4784 73.5586 85.2189 73.1391 86.3787 71.4344L86.4064 71.462C86.1825 72.3144 86.1131 72.6219 86.1131 72.9436C86.1131 73.1809 86.1131 73.5444 86.7004 73.5444C87.3012 73.5444 87.7766 73.0413 88.6155 72.0069L88.4463 71.8673ZM92.5975 67.8699H91.4235L90.1935 72.5241C90.1794 72.5659 90.1794 72.5936 90.1794 72.6361C90.1794 72.7615 90.2495 72.8734 90.4032 72.8734C90.6831 72.8734 91.172 72.2166 91.5213 71.7695L91.7027 71.8673C90.9899 72.9436 90.445 73.5586 89.7181 73.5586C89.4383 73.5586 89.0471 73.419 89.0471 72.9995C89.0471 72.7898 89.3128 71.9374 89.3688 71.7136L90.3749 67.8699H89.3405C89.327 67.7862 89.327 67.7161 89.3688 67.646C89.4524 67.5199 89.8435 67.4221 90.0816 67.2967C90.5428 67.0587 91.2138 66.4302 91.6049 65.9406C91.6609 65.8711 91.7168 65.7451 91.8429 65.7734C91.9407 65.7451 91.9684 65.8711 91.9407 65.9831L91.5496 67.4228H92.6676L92.5975 67.8699ZM95.2814 71.9657C94.7358 72.7905 94.1215 73.5592 93.3386 73.5592C92.6818 73.5592 92.6818 72.9442 92.6818 72.6927C92.6818 72.0359 93.7857 68.5698 93.7857 68.178C93.7857 67.884 93.6737 67.8145 92.905 67.8145V67.5907C93.4357 67.563 94.5956 67.3392 95.1411 67.2414L95.1829 67.2697L93.9529 71.7702C93.897 71.9657 93.7291 72.5248 93.7291 72.6927C93.7291 72.7905 93.8269 72.9024 93.9529 72.9024C94.1208 72.9024 94.5261 72.6226 95.0987 71.812L95.2814 71.9657ZM95.0015 65.7457C94.6522 65.7457 94.3306 65.5083 94.3306 65.0188C94.3306 64.5299 94.6522 64.2642 94.9874 64.2642C95.4486 64.2642 95.686 64.7254 95.686 65.0329C95.6866 65.3121 95.4628 65.7457 95.0015 65.7457ZM99.852 67.5347C100.522 67.5347 100.83 68.1497 100.83 68.8766C100.83 70.3723 99.7265 73.2652 98.1331 73.2652C97.4345 73.2652 97.015 72.7621 97.015 71.9651C97.0144 70.3163 98.2862 67.5347 99.852 67.5347ZM99.9498 67.2407C97.9092 67.2407 95.8404 69.4916 95.8404 71.5457C95.8404 72.7055 96.4695 73.5579 97.951 73.5579C100.089 73.5579 102.004 71.0285 102.004 69.3089C102.004 68.3871 101.571 67.2407 99.9498 67.2407Z" fill="#C4CFE0"/>
<path d="M108.098 71.952C107.399 72.8887 106.91 73.532 106.155 73.532C105.512 73.532 105.484 73.1126 105.484 72.7073C105.484 72.3721 106.519 68.9613 106.519 68.4023C106.519 68.1508 106.435 67.9552 106.169 67.9552C105.499 67.9552 104.618 69.1575 104.115 69.9398C103.471 70.9041 103.29 71.505 102.717 73.4059H101.669C102.103 71.8266 103.039 68.5554 103.039 68.2621C103.039 68.0523 102.899 67.8986 102.144 67.8986V67.6747C102.898 67.5351 103.654 67.3949 104.408 67.2411L104.45 67.2694L103.555 70.1907L103.583 70.219C104.24 69.1846 105.526 67.2418 106.686 67.2418C107.329 67.2418 107.65 67.5776 107.65 68.1649C107.65 68.7658 106.532 72.2184 106.532 72.6378C106.532 72.8475 106.728 72.8752 106.756 72.8752C107.036 72.8752 107.385 72.4281 107.903 71.7713L108.098 71.952ZM109.454 71.8819C109.454 70.6236 110.712 67.5493 112.347 67.5493C112.752 67.5493 113.144 67.815 113.144 68.4859C113.144 69.8555 111.774 72.8745 110.292 72.8745C109.915 72.8745 109.454 72.623 109.454 71.8819ZM114.527 71.8678C113.898 72.4828 113.618 72.8327 113.409 72.8327C113.297 72.8327 113.214 72.7491 113.214 72.6507C113.214 72.2177 114.5 67.4509 114.541 67.2836L114.444 67.2418L113.591 67.3396L113.549 67.3814L113.409 67.997H113.382C113.34 67.6052 112.878 67.2418 112.278 67.2418C110.418 67.2418 108.28 69.8555 108.28 71.9102C108.28 72.3155 108.322 73.559 109.72 73.559C110.558 73.559 111.299 73.1396 112.459 71.4348L112.487 71.4625C112.263 72.3149 112.193 72.6224 112.193 72.944C112.193 73.1814 112.193 73.5449 112.78 73.5449C113.382 73.5449 113.856 73.0418 114.695 72.0074L114.527 71.8678ZM117.7 71.8118C116.987 72.888 116.442 73.559 115.576 73.559C114.961 73.559 114.905 73.0843 114.905 72.6925C114.905 72.3991 116.931 65.1028 116.931 64.8095C116.931 64.446 116.344 64.446 115.98 64.4601V64.2363C116.714 64.1514 117.442 64.0253 118.161 63.8587L118.231 63.9288L116.12 72.0215C116.092 72.147 115.98 72.5246 115.98 72.6783C115.98 72.762 115.98 72.9582 116.19 72.9582C116.539 72.9582 116.833 72.567 117.518 71.6864L117.7 71.8118ZM119.66 64.1739H119.804C119.937 64.1739 120.045 64.2401 120.045 64.4396C120.045 64.6248 119.979 64.7573 119.807 64.7573H119.66V64.1739ZM119.269 64.1597C119.44 64.1771 119.437 64.1739 119.437 64.3276V65.1626C119.437 65.3125 119.44 65.3125 119.269 65.3305V65.3826H119.828V65.3305C119.654 65.3132 119.66 65.3132 119.66 65.1626V64.8204H119.824C120.044 65.1453 120.132 65.3826 120.244 65.3826H120.464V65.3511C120.397 65.3022 120.293 65.1839 120.202 65.0578L120.002 64.785C120.16 64.7329 120.278 64.5997 120.278 64.4222C120.278 64.2054 120.086 64.1076 119.88 64.1076H119.268L119.269 64.1597ZM121.009 64.7644C121.009 64.1037 120.496 63.5659 119.831 63.5659C119.674 63.5655 119.518 63.5963 119.373 63.6564C119.228 63.7166 119.096 63.805 118.985 63.9164C118.875 64.0279 118.787 64.1603 118.728 64.3058C118.668 64.4514 118.639 64.6073 118.64 64.7644C118.64 65.4244 119.161 65.9558 119.831 65.9558C120.496 65.9558 121.009 65.4244 121.009 64.7644ZM120.817 64.7644C120.817 65.3196 120.38 65.8091 119.831 65.8091C119.272 65.8091 118.832 65.3196 118.832 64.7644C118.832 64.2086 119.269 63.7126 119.831 63.7126C120.384 63.7126 120.817 64.2054 120.817 64.7644Z" fill="#C4CFE0"/>
<path d="M35.0754 77.0892C43.071 77.1284 49.6274 70.5712 49.5715 62.593C49.6269 54.3967 43.071 47.8402 35.0754 47.8428H19.0539C10.9625 47.8409 4.40603 54.3967 4.3031 62.593C4.40603 70.5712 10.9626 77.1278 19.0534 77.0892H35.0754Z" fill="#C4CFE0"/>
<path d="M5.3208 62.5929C5.40057 54.946 11.5113 48.8346 19.054 48.8604C26.5884 48.8346 32.6996 54.946 32.7865 62.5936C32.6996 70.023 26.5884 76.1344 19.054 76.072C11.5113 76.1344 5.40057 70.0224 5.3208 62.5929Z" fill="#EFF6FE"/>
<path d="M16.0015 54.4551C12.8409 55.8813 10.4698 58.9305 10.4067 62.5929C10.4698 66.1175 12.7277 69.2221 16.0015 70.4765V54.4551ZM22.1051 70.4772C25.3712 69.2227 27.6285 66.1175 27.6999 62.5935C27.6285 58.8521 25.3705 55.7469 22.1051 54.4557V70.4772Z" fill="#C4CFE0"/>
</g>
<defs>
<clipPath id="clip0_1_202">
<rect width="124" height="124" fill="white" transform="translate(0.65625 0.484375)"/>
</clipPath>
</defs>
</svg>
