<svg width="65" height="65" viewBox="0 0 65 65" fill="none" xmlns="http://www.w3.org/2000/svg">
<g clip-path="url(#clip0_1_111)">
<path d="M17.6019 29.7329C16.403 29.7329 15.4841 30.1182 15.4841 30.1182L15.2302 31.6253C15.2302 31.6253 15.9883 31.3171 17.1362 31.3171C17.7877 31.3171 18.2637 31.3896 18.2637 31.9188C18.2637 32.2406 18.2059 32.3596 18.2059 32.3596C18.2059 32.3596 17.6926 32.3176 17.4546 32.3176C15.9418 32.3176 14.3532 32.9613 14.3532 34.9091C14.3532 36.4434 15.3945 36.7936 16.0416 36.7936C17.2756 36.7936 17.8081 35.9936 17.8353 35.9913L17.7775 36.6598H19.3175L20.0042 31.844C20.003 29.7987 18.2206 29.7329 17.6019 29.7329ZM16.7384 35.3284C16.1957 35.3284 16.054 34.9148 16.054 34.6678C16.054 34.1896 16.3135 33.614 17.5951 33.614C17.8943 33.6151 17.926 33.6457 17.9758 33.6547C18.0098 33.9494 17.7923 35.3284 16.7384 35.3284Z" fill="#C4CFE0"/>
<path d="M23.1633 31.3479C23.4092 31.3479 24.3576 31.4261 24.3576 31.4261L24.5786 29.8827C24.5786 29.8827 23.9644 29.7456 22.965 29.7456C21.671 29.7456 20.3588 30.2623 20.3588 32.0289C20.3588 34.0323 22.548 33.8284 22.548 34.6737C22.548 35.2357 21.9361 35.2822 21.4647 35.2822C20.6477 35.2822 19.9135 35.0034 19.9112 35.0148L19.6778 36.5456C19.7197 36.557 20.1729 36.7587 21.6404 36.7587C22.0336 36.7587 24.2851 36.8606 24.2851 34.5366C24.2851 32.3632 22.2013 32.7927 22.2013 31.919C22.2013 31.4839 22.5401 31.3479 23.1633 31.3479Z" fill="#C4CFE0"/>
<path d="M26.8426 31.5451H27.7684L27.9916 29.8997H27.1191L27.297 28.8799H25.5486C25.51 28.9173 24.5163 34.6317 24.5163 35.3252C24.5163 36.3575 25.0953 36.8153 25.91 36.8074C26.548 36.8029 27.0454 36.6261 27.2211 36.5774L27.4398 35.0907C27.3197 35.0907 27.144 35.1428 26.9888 35.1428C26.3803 35.1428 26.3134 34.8176 26.352 34.5785L26.8426 31.5451Z" fill="#C4CFE0"/>
<path d="M34.1706 21.9995H31.05C30.6307 22.5661 30.2364 23.1689 29.8794 23.7582H35.4466C35.0602 23.144 34.633 22.557 34.1706 21.9995Z" fill="#C4CFE0"/>
<path d="M58.5197 41.7819C58.4857 41.7309 58.4574 41.6923 58.4347 41.6685C58.4223 41.6572 58.4064 41.6447 58.386 41.6391C58.4347 41.6357 58.4755 41.6176 58.505 41.587C58.5333 41.5564 58.5492 41.5201 58.5492 41.4782C58.5492 41.4487 58.5401 41.4204 58.5231 41.3943C58.5061 41.3683 58.4812 41.349 58.4506 41.3388C58.4223 41.3275 58.3735 41.3218 58.3067 41.3218H58.1095V41.894H58.2024V41.6515H58.2557C58.2874 41.6515 58.3135 41.6583 58.3282 41.6719C58.352 41.6912 58.386 41.7354 58.4257 41.8045L58.4755 41.8952H58.59L58.5197 41.7819ZM58.3135 41.5756H58.2002V41.4034H58.3067C58.3509 41.4034 58.3803 41.4068 58.3973 41.4136C58.4155 41.4204 58.4268 41.4306 58.437 41.443C58.4461 41.4566 58.4506 41.4714 58.4506 41.4872C58.4506 41.5133 58.4415 41.536 58.4223 41.5518C58.403 41.5666 58.3656 41.5756 58.3135 41.5756Z" fill="#C4CFE0"/>
<path d="M36.3928 25.4839H28.9061C28.4279 26.3893 28.1107 27.0737 28.0211 27.2437H37.1022C36.8971 26.6386 36.6614 26.0528 36.3928 25.4839Z" fill="#C4CFE0"/>
<path d="M12.2103 28.3403L10.4868 33.4507L10.3973 28.3403H7.84544L6.44714 36.6677H8.13439L9.19841 30.3901L9.35479 36.6677H10.5594L12.8064 30.3901L11.8103 36.6677H13.6007L14.9797 28.3403H12.2103Z" fill="#C4CFE0"/>
<path d="M45.9508 29.7329C44.7497 29.7329 43.8319 30.1182 43.8319 30.1182L43.5769 31.6253C43.5769 31.6253 44.3361 31.3171 45.4829 31.3171C46.1344 31.3171 46.6115 31.3896 46.6115 31.9188C46.6115 32.2406 46.5514 32.3596 46.5514 32.3596C46.5514 32.3596 46.0392 32.3176 45.799 32.3176C44.2874 32.3176 42.6999 32.9613 42.6999 34.9091C42.6999 36.4434 43.7423 36.7936 44.3882 36.7936C45.6211 36.7936 46.1537 35.9936 46.182 35.9913L46.1242 36.6598H47.663L48.3497 31.844C48.3531 29.7987 46.5695 29.7329 45.9508 29.7329ZM45.0897 35.3284C44.5457 35.3284 44.4052 34.9148 44.4052 34.6678C44.4052 34.1896 44.6647 33.614 45.9463 33.614C46.2443 33.6151 46.2761 33.6457 46.3271 33.6547C46.3599 33.9494 46.1412 35.3284 45.0897 35.3284Z" fill="#C4CFE0"/>
<path d="M58.5752 35.9011C58.5288 35.815 58.4608 35.7492 58.3758 35.7039C58.2919 35.6575 58.2058 35.6348 58.1152 35.6348C58.0279 35.6359 57.9407 35.6586 57.8546 35.7039C57.7696 35.7492 57.7038 35.815 57.6563 35.9011C57.6087 35.9861 57.5849 36.0745 57.5849 36.1662C57.5849 36.258 57.6087 36.3453 57.6563 36.4291C57.7027 36.513 57.7684 36.5798 57.8523 36.6274C57.9373 36.6739 58.0245 36.6977 58.1152 36.6977C58.2081 36.6977 58.2965 36.6739 58.3792 36.6274C58.4631 36.5798 58.5288 36.513 58.5752 36.4291C58.624 36.3453 58.6455 36.258 58.6455 36.1662C58.6455 36.0722 58.6228 35.9838 58.5752 35.9011ZM58.5016 36.3849C58.4631 36.4552 58.4087 36.5084 58.3373 36.5504C58.267 36.5889 58.1945 36.6093 58.1186 36.6093C58.0415 36.6093 57.9679 36.5889 57.8987 36.5504C57.8274 36.5107 57.7741 36.4563 57.7333 36.3849C57.6925 36.3135 57.6744 36.241 57.6744 36.1651C57.6744 36.0892 57.6936 36.0155 57.7356 35.9441C57.7752 35.8739 57.8285 35.8195 57.901 35.7798C57.9735 35.7402 58.0449 35.7232 58.1186 35.7232C58.1922 35.7232 58.2648 35.7413 58.3339 35.7798C58.4064 35.8195 58.4597 35.8727 58.4993 35.9441C58.539 36.0155 58.5605 36.0892 58.5605 36.1651C58.5605 36.241 58.5412 36.3147 58.5016 36.3849Z" fill="#C4CFE0"/>
<path d="M58.2954 36.3462C58.2625 36.293 58.2331 36.2556 58.2115 36.2329C58.1979 36.2204 58.1832 36.2102 58.1628 36.2034C58.2115 36.2 58.2512 36.1819 58.2807 36.1513C58.309 36.1218 58.326 36.0833 58.326 36.0425C58.326 36.0142 58.3169 35.9847 58.2988 35.9587C58.2807 35.9337 58.2569 35.9145 58.2285 35.9032C58.2002 35.8918 58.1504 35.8862 58.0835 35.8862H57.8841V36.4573H57.977V36.2148H58.0302C58.0631 36.2148 58.0892 36.2216 58.105 36.234C58.1288 36.2544 58.1605 36.2975 58.2025 36.3689L58.2512 36.4584H58.3656L58.2954 36.3462ZM58.0914 36.1366H57.9792V35.9632H58.0835C58.1288 35.9632 58.1583 35.9666 58.1764 35.9723C58.1911 35.9802 58.2047 35.9881 58.2138 36.0029C58.224 36.0176 58.2285 36.0301 58.2285 36.0493C58.2285 36.0743 58.2183 36.0958 58.2013 36.1116C58.1798 36.1309 58.1447 36.1366 58.0914 36.1366Z" fill="#C4CFE0"/>
<path d="M51.8931 29.8159C51.1101 29.8159 50.5288 30.8845 50.5288 30.8845L50.6852 29.9021H49.0557L47.9645 36.6805H49.7594C50.2705 33.7842 50.3634 31.4352 51.577 31.8647C51.7911 30.7451 51.9974 30.3111 52.2297 29.8386C52.2297 29.8386 52.1209 29.8159 51.8931 29.8159Z" fill="#C4CFE0"/>
<path d="M56.403 28.3496L56.0257 30.6896C56.0257 30.6896 55.3685 29.7796 54.3373 29.7796C52.7339 29.7808 51.3991 31.7128 51.3991 33.9315C51.3991 35.3649 52.1118 36.7689 53.5668 36.7689C54.6149 36.7689 55.1951 36.038 55.1951 36.038L55.1192 36.6624H56.82L58.1571 28.3462L56.403 28.3496ZM54.1855 35.0692C53.5554 35.0692 53.2608 34.5411 53.2608 33.7117C53.2608 32.3553 53.8693 31.4612 54.6387 31.4612C55.2665 31.4624 55.5894 31.8941 55.5894 32.9117C55.5894 33.8352 55.1328 35.0692 54.1855 35.0692Z" fill="#C4CFE0"/>
<path d="M62.8993 11.4844H2.19447C1.28342 11.4844 0.546875 12.2221 0.546875 13.132V51.3133C0.546875 52.2232 1.28342 52.9609 2.19447 52.9609H62.8993C63.8104 52.9609 64.5469 52.2232 64.5469 51.3133V13.132C64.5469 12.2221 63.8104 11.4844 62.8993 11.4844ZM58.8007 41.6023C58.7531 41.6884 58.6885 41.7541 58.6047 41.8006C58.5208 41.847 58.4325 41.8708 58.3418 41.8708C58.2489 41.8708 58.1605 41.847 58.0766 41.8006C57.9939 41.7541 57.9282 41.6884 57.8795 41.6023C57.833 41.5195 57.8092 41.4311 57.8092 41.3394C57.8092 41.2476 57.833 41.1603 57.8806 41.0742C57.9271 40.9881 57.9951 40.9235 58.0789 40.877C58.1639 40.8328 58.25 40.809 58.3407 40.809C58.4302 40.809 58.5163 40.8328 58.6002 40.877C58.6851 40.9235 58.752 40.9881 58.7985 41.0742C58.8461 41.1603 58.8687 41.2487 58.8687 41.3394C58.8687 41.43 58.8483 41.5218 58.8007 41.6023ZM59.9883 32.2232C59.9905 41.294 52.641 48.6504 43.569 48.6527C39.3265 48.6538 35.4579 47.0459 32.5435 44.4045C29.6291 47.0413 25.7684 48.6481 21.5327 48.6481C12.4664 48.6481 5.10779 41.2906 5.10779 32.2232C5.10779 23.192 12.4087 15.8561 21.4274 15.7971C21.4625 15.7971 21.4976 15.7971 21.5327 15.7971C25.7684 15.7971 29.6302 17.4039 32.5446 20.0408C35.4579 17.4028 39.322 15.7949 43.5611 15.7937C52.633 15.7903 59.9883 23.1433 59.9905 32.2153C59.9883 32.2175 59.9883 32.2187 59.9883 32.2232Z" fill="#C4CFE0"/>
<path d="M30.862 42.8706C31.3821 43.5075 31.9328 44.1148 32.5413 44.6655C32.5549 44.6531 32.5696 44.6417 32.5832 44.6304L32.5821 44.6293H32.5855C33.1838 44.0842 33.7424 43.4973 34.2535 42.8706H30.862Z" fill="#C4CFE0"/>
<path d="M33.0988 33.8555C33.0988 33.8555 33.3288 32.7223 33.3288 32.2611C33.3288 31.1087 32.7555 29.7036 30.8359 29.7036C29.0773 29.7048 27.7753 31.5994 27.7753 33.741C27.7753 36.2124 29.4059 36.7994 30.7963 36.7994C32.079 36.7994 32.6433 36.5116 32.6433 36.5116L32.9515 34.8255C32.9515 34.8255 31.9759 35.256 31.0943 35.256C29.2167 35.256 29.5453 33.8555 29.5453 33.8555H33.0988ZM30.8416 31.273C31.8286 31.273 31.6461 32.3824 31.6461 32.4708H29.705C29.705 32.3563 29.8886 31.273 30.8416 31.273Z" fill="#C4CFE0"/>
<path d="M41.3005 29.9361C42.19 29.9361 42.905 30.4358 42.905 30.4358L43.1906 28.5831C43.1906 28.5831 42.1322 28.1548 41.2212 28.1548C39.203 28.1548 37.2393 29.9067 37.2393 33.1962C37.2393 35.3775 38.2988 36.8177 40.386 36.8177C40.9753 36.8177 41.9158 36.5786 41.9158 36.5786L42.2285 34.6704C42.2285 34.6704 41.3719 35.0999 40.7826 35.0999C39.5407 35.0987 39.0432 34.1514 39.0432 33.1361C39.0432 31.0704 40.1107 29.9361 41.3005 29.9361Z" fill="#C4CFE0"/>
<path d="M28.6693 39.4204C28.9538 40.0312 29.2846 40.6125 29.6393 41.1791H35.4671C35.8206 40.6148 36.139 40.0278 36.4234 39.4204H28.6693Z" fill="#C4CFE0"/>
<path d="M37.2076 29.818C36.4246 29.818 35.8444 30.8865 35.8444 30.8865L36.0019 29.9041H34.3736L33.2824 36.6825H35.0773C35.5861 33.7874 35.6812 31.4372 36.8948 31.8667C37.1079 30.746 37.313 30.312 37.5453 29.8384C37.5453 29.8384 37.4365 29.8157 37.2076 29.818Z" fill="#C4CFE0"/>
</g>
<defs>
<clipPath id="clip0_1_111">
<rect width="64" height="64" fill="white" transform="translate(0.546875 0.484375)"/>
</clipPath>
</defs>
</svg>
