<svg width="64" height="65" viewBox="0 0 64 65" fill="none" xmlns="http://www.w3.org/2000/svg">
<g clip-path="url(#clip0_1_107)">
<path d="M62.3524 11.7466H1.64759C0.736544 11.7466 0 12.4843 0 13.3942V51.5755C0 52.4854 0.736544 53.2231 1.64759 53.2231H62.3524C63.2635 53.2231 64 52.4854 64 51.5755V13.3942C64 12.4843 63.2635 11.7466 62.3524 11.7466ZM4.95524 24.2803H11.7858C12.7071 24.3154 13.4493 24.6089 13.7054 25.5936L15.1909 32.7381C13.7314 29.001 10.2142 25.8916 4.89858 24.6044L4.95524 24.2803ZM13.2204 40.5749L9.27479 27.095C12.111 28.9103 14.5269 31.7908 15.3779 33.7953L15.838 35.4599L20.153 24.4356H24.8215L17.8833 40.5715L13.2204 40.5749ZM28.2527 40.5863H23.847L26.6017 24.4186H31.0096L28.2527 40.5863ZM35.9195 40.8288C33.9445 40.8084 32.0419 40.4174 31.0108 39.9653L31.6306 36.3472L32.1983 36.6044C33.6453 37.2084 34.5824 37.4531 36.3467 37.4531C37.6125 37.4531 38.9688 36.9579 38.9813 35.8747C38.9892 35.1664 38.4136 34.6611 36.698 33.8679C35.0255 33.095 32.8113 31.7987 32.8385 29.4769C32.8623 26.3347 35.9309 24.1421 40.2856 24.1421C41.9921 24.1421 43.3598 24.4933 44.2323 24.8208L43.6374 28.3256L43.2397 28.1387C42.4283 27.8123 41.3847 27.4973 39.9422 27.52C38.2176 27.52 37.4176 28.2384 37.4176 28.9103C37.4085 29.6673 38.3513 30.1659 39.8924 30.916C42.434 32.0696 43.6091 33.469 43.5932 35.3081C43.5592 38.6622 40.553 40.8288 35.9195 40.8288ZM55.013 40.5931C55.013 40.5931 54.6108 38.7347 54.4771 38.1704C53.8357 38.1704 49.3394 38.1636 48.834 38.1636C48.6629 38.5999 47.9082 40.5931 47.9082 40.5931H43.2816L49.8232 25.7772C50.2878 24.7245 51.0754 24.4356 52.1314 24.4356H55.5354L59.1014 40.5919L55.013 40.5931Z" fill="#C4CFE0"/>
<path d="M52.7388 30.1897L52.4419 28.7959C52.2175 29.4044 51.8311 30.3823 51.8561 30.3393C51.8561 30.3393 50.4634 33.9279 50.1008 34.8582H53.7598C53.583 34.048 52.7388 30.1897 52.7388 30.1897Z" fill="#C4CFE0"/>
</g>
<defs>
<clipPath id="clip0_1_107">
<rect width="64" height="64" fill="white" transform="translate(0 0.484375)"/>
</clipPath>
</defs>
</svg>
